ISO-10303-21;
HEADER;
/* Generated by software containing ST-Developer
 * from STEP Tools, Inc. (www.steptools.com) 
 */
/* OPTION: using custom renumber hook */

FILE_DESCRIPTION(
/* description */ ('STEP AP242 Edition 2',
'CAx-IF Rec.Pracs.---Representation and Presentation of Product Manufa
cturing Information (PMI)---4.0---2014-10-13',
'CAx-IF Rec.Pracs.---3D Tessellated Geometry---0.4---2014-09-14','2;1',
'CAx-IF Rec.Pracs.---User Defined Attributes---1.5---2016-08-15'),
/* implementation_level */ '2;1');

FILE_NAME(
/* name */ 'RM_Lite_Proto (BETA) - smalleye',
/* time_stamp */ '2026-03-25T08:53:54Z',
/* author */ (''),
/* organization */ (''),
/* preprocessor_version */ 'ST-DEVELOPER v20',
/* originating_system */ 'ONSHAPE BY PTC INC, 1.212',
/* authorisation */ '  ');

FILE_SCHEMA (('AP242_MANAGED_MODEL_BASED_3D_ENGINEERING_MIM_LF { 1 0 10303 442 3 1 4 }'));
ENDSEC;

DATA;
#10=SHAPE_REPRESENTATION_RELATIONSHIP('','',#591,#11);
#11=ADVANCED_BREP_SHAPE_REPRESENTATION('',(#589),#1013);
#12=B_SPLINE_CURVE_WITH_KNOTS('',3,(#964,#965,#966,#967),.UNSPECIFIED.,
 .F.,.F.,(4,4),(0.,0.000759293125793882),.UNSPECIFIED.);
#13=B_SPLINE_CURVE_WITH_KNOTS('',3,(#972,#973,#974,#975),.UNSPECIFIED.,
 .F.,.F.,(4,4),(0.,0.000759293125793882),.UNSPECIFIED.);
#14=B_SPLINE_CURVE_WITH_KNOTS('',3,(#979,#980,#981,#982),.UNSPECIFIED.,
 .F.,.F.,(4,4),(0.,0.000759293125793879),.UNSPECIFIED.);
#15=B_SPLINE_CURVE_WITH_KNOTS('',3,(#986,#987,#988,#989),.UNSPECIFIED.,
 .F.,.F.,(4,4),(0.,0.000759293125793879),.UNSPECIFIED.);
#16=CONICAL_SURFACE('',#638,0.0177358925139777,1.0471975511966);
#17=CONICAL_SURFACE('',#640,0.0177358925139777,1.0471975511966);
#18=CYLINDRICAL_SURFACE('',#596,0.0158815533070923);
#19=CYLINDRICAL_SURFACE('',#607,0.0177358925139777);
#20=CYLINDRICAL_SURFACE('',#618,0.0198815533070923);
#21=CYLINDRICAL_SURFACE('',#630,0.004);
#22=CYLINDRICAL_SURFACE('',#632,0.004);
#23=CYLINDRICAL_SURFACE('',#634,0.004);
#24=CYLINDRICAL_SURFACE('',#636,0.002);
#25=CYLINDRICAL_SURFACE('',#637,0.002);
#26=CYLINDRICAL_SURFACE('',#644,0.0183626874332209);
#27=LINE('',#833,#77);
#28=LINE('',#837,#78);
#29=LINE('',#842,#79);
#30=LINE('',#846,#80);
#31=LINE('',#850,#81);
#32=LINE('',#854,#82);
#33=LINE('',#858,#83);
#34=LINE('',#862,#84);
#35=LINE('',#866,#85);
#36=LINE('',#867,#86);
#37=LINE('',#872,#87);
#38=LINE('',#875,#88);
#39=LINE('',#880,#89);
#40=LINE('',#881,#90);
#41=LINE('',#885,#91);
#42=LINE('',#886,#92);
#43=LINE('',#890,#93);
#44=LINE('',#894,#94);
#45=LINE('',#895,#95);
#46=LINE('',#900,#96);
#47=LINE('',#904,#97);
#48=LINE('',#906,#98);
#49=LINE('',#908,#99);
#50=LINE('',#910,#100);
#51=LINE('',#912,#101);
#52=LINE('',#915,#102);
#53=LINE('',#917,#103);
#54=LINE('',#919,#104);
#55=LINE('',#921,#105);
#56=LINE('',#924,#106);
#57=LINE('',#926,#107);
#58=LINE('',#928,#108);
#59=LINE('',#930,#109);
#60=LINE('',#933,#110);
#61=LINE('',#935,#111);
#62=LINE('',#936,#112);
#63=LINE('',#938,#113);
#64=LINE('',#950,#114);
#65=LINE('',#969,#115);
#66=LINE('',#970,#116);
#67=LINE('',#977,#117);
#68=LINE('',#991,#118);
#69=LINE('',#993,#119);
#70=LINE('',#995,#120);
#71=LINE('',#997,#121);
#72=LINE('',#998,#122);
#73=LINE('',#1003,#123);
#74=LINE('',#1005,#124);
#75=LINE('',#1008,#125);
#76=LINE('',#1010,#126);
#77=VECTOR('',#660,1.);
#78=VECTOR('',#663,1.);
#79=VECTOR('',#668,1.);
#80=VECTOR('',#671,1.);
#81=VECTOR('',#674,1.);
#82=VECTOR('',#677,1.);
#83=VECTOR('',#680,1.);
#84=VECTOR('',#683,1.);
#85=VECTOR('',#686,1.);
#86=VECTOR('',#687,1.);
#87=VECTOR('',#692,1.);
#88=VECTOR('',#695,1.);
#89=VECTOR('',#700,1.);
#90=VECTOR('',#701,1.);
#91=VECTOR('',#704,1.);
#92=VECTOR('',#705,1.);
#93=VECTOR('',#708,1.);
#94=VECTOR('',#711,1.);
#95=VECTOR('',#712,1.);
#96=VECTOR('',#715,1.);
#97=VECTOR('',#720,1.);
#98=VECTOR('',#721,1.);
#99=VECTOR('',#722,1.);
#100=VECTOR('',#723,1.);
#101=VECTOR('',#726,1.);
#102=VECTOR('',#727,1.);
#103=VECTOR('',#728,1.);
#104=VECTOR('',#729,1.);
#105=VECTOR('',#732,1.);
#106=VECTOR('',#733,1.);
#107=VECTOR('',#734,1.);
#108=VECTOR('',#735,1.);
#109=VECTOR('',#738,1.);
#110=VECTOR('',#739,1.);
#111=VECTOR('',#740,1.);
#112=VECTOR('',#741,1.);
#113=VECTOR('',#742,1.);
#114=VECTOR('',#765,1.);
#115=VECTOR('',#788,1.);
#116=VECTOR('',#789,1.);
#117=VECTOR('',#792,1.);
#118=VECTOR('',#795,1.);
#119=VECTOR('',#798,1.);
#120=VECTOR('',#801,1.);
#121=VECTOR('',#804,1.);
#122=VECTOR('',#805,1.);
#123=VECTOR('',#814,1.);
#124=VECTOR('',#817,1.);
#125=VECTOR('',#822,1.);
#126=VECTOR('',#825,1.);
#127=ORIENTED_EDGE('',*,*,#295,.T.);
#128=ORIENTED_EDGE('',*,*,#296,.T.);
#129=ORIENTED_EDGE('',*,*,#297,.T.);
#130=ORIENTED_EDGE('',*,*,#298,.F.);
#131=ORIENTED_EDGE('',*,*,#299,.T.);
#132=ORIENTED_EDGE('',*,*,#300,.T.);
#133=ORIENTED_EDGE('',*,*,#301,.F.);
#134=ORIENTED_EDGE('',*,*,#302,.T.);
#135=ORIENTED_EDGE('',*,*,#303,.T.);
#136=ORIENTED_EDGE('',*,*,#304,.T.);
#137=ORIENTED_EDGE('',*,*,#305,.T.);
#138=ORIENTED_EDGE('',*,*,#306,.T.);
#139=ORIENTED_EDGE('',*,*,#307,.F.);
#140=ORIENTED_EDGE('',*,*,#308,.T.);
#141=ORIENTED_EDGE('',*,*,#309,.F.);
#142=ORIENTED_EDGE('',*,*,#310,.F.);
#143=ORIENTED_EDGE('',*,*,#311,.F.);
#144=ORIENTED_EDGE('',*,*,#312,.T.);
#145=ORIENTED_EDGE('',*,*,#297,.F.);
#146=ORIENTED_EDGE('',*,*,#313,.F.);
#147=ORIENTED_EDGE('',*,*,#314,.T.);
#148=ORIENTED_EDGE('',*,*,#315,.T.);
#149=ORIENTED_EDGE('',*,*,#309,.T.);
#150=ORIENTED_EDGE('',*,*,#316,.T.);
#151=ORIENTED_EDGE('',*,*,#317,.T.);
#152=ORIENTED_EDGE('',*,*,#318,.T.);
#153=ORIENTED_EDGE('',*,*,#319,.T.);
#154=ORIENTED_EDGE('',*,*,#295,.F.);
#155=ORIENTED_EDGE('',*,*,#320,.F.);
#156=ORIENTED_EDGE('',*,*,#321,.F.);
#157=ORIENTED_EDGE('',*,*,#322,.T.);
#158=ORIENTED_EDGE('',*,*,#314,.F.);
#159=ORIENTED_EDGE('',*,*,#323,.T.);
#160=ORIENTED_EDGE('',*,*,#324,.T.);
#161=ORIENTED_EDGE('',*,*,#325,.F.);
#162=ORIENTED_EDGE('',*,*,#326,.F.);
#163=ORIENTED_EDGE('',*,*,#327,.F.);
#164=ORIENTED_EDGE('',*,*,#328,.F.);
#165=ORIENTED_EDGE('',*,*,#329,.T.);
#166=ORIENTED_EDGE('',*,*,#330,.T.);
#167=ORIENTED_EDGE('',*,*,#331,.F.);
#168=ORIENTED_EDGE('',*,*,#317,.F.);
#169=ORIENTED_EDGE('',*,*,#332,.T.);
#170=ORIENTED_EDGE('',*,*,#333,.T.);
#171=ORIENTED_EDGE('',*,*,#334,.T.);
#172=ORIENTED_EDGE('',*,*,#335,.F.);
#173=ORIENTED_EDGE('',*,*,#323,.F.);
#174=ORIENTED_EDGE('',*,*,#336,.T.);
#175=ORIENTED_EDGE('',*,*,#337,.T.);
#176=ORIENTED_EDGE('',*,*,#338,.F.);
#177=ORIENTED_EDGE('',*,*,#339,.T.);
#178=ORIENTED_EDGE('',*,*,#340,.T.);
#179=ORIENTED_EDGE('',*,*,#341,.T.);
#180=ORIENTED_EDGE('',*,*,#342,.F.);
#181=ORIENTED_EDGE('',*,*,#343,.T.);
#182=ORIENTED_EDGE('',*,*,#344,.F.);
#183=ORIENTED_EDGE('',*,*,#345,.T.);
#184=ORIENTED_EDGE('',*,*,#346,.T.);
#185=ORIENTED_EDGE('',*,*,#325,.T.);
#186=ORIENTED_EDGE('',*,*,#347,.T.);
#187=ORIENTED_EDGE('',*,*,#348,.F.);
#188=ORIENTED_EDGE('',*,*,#349,.T.);
#189=ORIENTED_EDGE('',*,*,#334,.F.);
#190=ORIENTED_EDGE('',*,*,#350,.F.);
#191=ORIENTED_EDGE('',*,*,#348,.T.);
#192=ORIENTED_EDGE('',*,*,#303,.F.);
#193=ORIENTED_EDGE('',*,*,#351,.T.);
#194=ORIENTED_EDGE('',*,*,#344,.T.);
#195=ORIENTED_EDGE('',*,*,#350,.T.);
#196=ORIENTED_EDGE('',*,*,#333,.F.);
#197=ORIENTED_EDGE('',*,*,#352,.T.);
#198=ORIENTED_EDGE('',*,*,#307,.T.);
#199=ORIENTED_EDGE('',*,*,#353,.T.);
#200=ORIENTED_EDGE('',*,*,#336,.F.);
#201=ORIENTED_EDGE('',*,*,#354,.T.);
#202=ORIENTED_EDGE('',*,*,#340,.F.);
#203=ORIENTED_EDGE('',*,*,#355,.T.);
#204=ORIENTED_EDGE('',*,*,#324,.F.);
#205=ORIENTED_EDGE('',*,*,#335,.T.);
#206=ORIENTED_EDGE('',*,*,#349,.F.);
#207=ORIENTED_EDGE('',*,*,#347,.F.);
#208=ORIENTED_EDGE('',*,*,#356,.F.);
#209=ORIENTED_EDGE('',*,*,#326,.T.);
#210=ORIENTED_EDGE('',*,*,#346,.F.);
#211=ORIENTED_EDGE('',*,*,#357,.T.);
#212=ORIENTED_EDGE('',*,*,#301,.T.);
#213=ORIENTED_EDGE('',*,*,#353,.F.);
#214=ORIENTED_EDGE('',*,*,#306,.F.);
#215=ORIENTED_EDGE('',*,*,#358,.F.);
#216=ORIENTED_EDGE('',*,*,#337,.F.);
#217=ORIENTED_EDGE('',*,*,#354,.F.);
#218=ORIENTED_EDGE('',*,*,#339,.F.);
#219=ORIENTED_EDGE('',*,*,#359,.F.);
#220=ORIENTED_EDGE('',*,*,#341,.F.);
#221=ORIENTED_EDGE('',*,*,#355,.F.);
#222=ORIENTED_EDGE('',*,*,#343,.F.);
#223=ORIENTED_EDGE('',*,*,#360,.F.);
#224=ORIENTED_EDGE('',*,*,#304,.F.);
#225=ORIENTED_EDGE('',*,*,#351,.F.);
#226=ORIENTED_EDGE('',*,*,#302,.F.);
#227=ORIENTED_EDGE('',*,*,#357,.F.);
#228=ORIENTED_EDGE('',*,*,#345,.F.);
#229=ORIENTED_EDGE('',*,*,#352,.F.);
#230=ORIENTED_EDGE('',*,*,#332,.F.);
#231=ORIENTED_EDGE('',*,*,#316,.F.);
#232=ORIENTED_EDGE('',*,*,#308,.F.);
#233=ORIENTED_EDGE('',*,*,#361,.T.);
#234=ORIENTED_EDGE('',*,*,#362,.T.);
#235=ORIENTED_EDGE('',*,*,#363,.F.);
#236=ORIENTED_EDGE('',*,*,#331,.T.);
#237=ORIENTED_EDGE('',*,*,#364,.T.);
#238=ORIENTED_EDGE('',*,*,#365,.T.);
#239=ORIENTED_EDGE('',*,*,#366,.T.);
#240=ORIENTED_EDGE('',*,*,#367,.T.);
#241=ORIENTED_EDGE('',*,*,#368,.T.);
#242=ORIENTED_EDGE('',*,*,#369,.T.);
#243=ORIENTED_EDGE('',*,*,#370,.F.);
#244=ORIENTED_EDGE('',*,*,#329,.F.);
#245=ORIENTED_EDGE('',*,*,#363,.T.);
#246=ORIENTED_EDGE('',*,*,#371,.T.);
#247=ORIENTED_EDGE('',*,*,#366,.F.);
#248=ORIENTED_EDGE('',*,*,#328,.T.);
#249=ORIENTED_EDGE('',*,*,#370,.T.);
#250=ORIENTED_EDGE('',*,*,#372,.T.);
#251=ORIENTED_EDGE('',*,*,#364,.F.);
#252=ORIENTED_EDGE('',*,*,#330,.F.);
#253=ORIENTED_EDGE('',*,*,#368,.F.);
#254=ORIENTED_EDGE('',*,*,#373,.T.);
#255=ORIENTED_EDGE('',*,*,#361,.F.);
#256=ORIENTED_EDGE('',*,*,#374,.T.);
#257=ORIENTED_EDGE('',*,*,#362,.F.);
#258=ORIENTED_EDGE('',*,*,#373,.F.);
#259=ORIENTED_EDGE('',*,*,#367,.F.);
#260=ORIENTED_EDGE('',*,*,#371,.F.);
#261=ORIENTED_EDGE('',*,*,#369,.F.);
#262=ORIENTED_EDGE('',*,*,#374,.F.);
#263=ORIENTED_EDGE('',*,*,#365,.F.);
#264=ORIENTED_EDGE('',*,*,#372,.F.);
#265=ORIENTED_EDGE('',*,*,#360,.T.);
#266=ORIENTED_EDGE('',*,*,#342,.T.);
#267=ORIENTED_EDGE('',*,*,#359,.T.);
#268=ORIENTED_EDGE('',*,*,#338,.T.);
#269=ORIENTED_EDGE('',*,*,#358,.T.);
#270=ORIENTED_EDGE('',*,*,#305,.F.);
#271=ORIENTED_EDGE('',*,*,#298,.T.);
#272=ORIENTED_EDGE('',*,*,#312,.F.);
#273=ORIENTED_EDGE('',*,*,#375,.F.);
#274=ORIENTED_EDGE('',*,*,#320,.T.);
#275=ORIENTED_EDGE('',*,*,#315,.F.);
#276=ORIENTED_EDGE('',*,*,#322,.F.);
#277=ORIENTED_EDGE('',*,*,#376,.T.);
#278=ORIENTED_EDGE('',*,*,#310,.T.);
#279=ORIENTED_EDGE('',*,*,#321,.T.);
#280=ORIENTED_EDGE('',*,*,#375,.T.);
#281=ORIENTED_EDGE('',*,*,#311,.T.);
#282=ORIENTED_EDGE('',*,*,#376,.F.);
#283=ORIENTED_EDGE('',*,*,#356,.T.);
#284=ORIENTED_EDGE('',*,*,#300,.F.);
#285=ORIENTED_EDGE('',*,*,#377,.F.);
#286=ORIENTED_EDGE('',*,*,#327,.T.);
#287=ORIENTED_EDGE('',*,*,#296,.F.);
#288=ORIENTED_EDGE('',*,*,#319,.F.);
#289=ORIENTED_EDGE('',*,*,#378,.T.);
#290=ORIENTED_EDGE('',*,*,#313,.T.);
#291=ORIENTED_EDGE('',*,*,#318,.F.);
#292=ORIENTED_EDGE('',*,*,#377,.T.);
#293=ORIENTED_EDGE('',*,*,#299,.F.);
#294=ORIENTED_EDGE('',*,*,#378,.F.);
#295=EDGE_CURVE('',#379,#380,#435,.T.);
#296=EDGE_CURVE('',#380,#381,#27,.T.);
#297=EDGE_CURVE('',#381,#382,#436,.T.);
#298=EDGE_CURVE('',#379,#382,#28,.T.);
#299=EDGE_CURVE('',#383,#384,#437,.T.);
#300=EDGE_CURVE('',#384,#385,#29,.T.);
#301=EDGE_CURVE('',#386,#385,#438,.T.);
#302=EDGE_CURVE('',#386,#387,#30,.F.);
#303=EDGE_CURVE('',#387,#388,#439,.T.);
#304=EDGE_CURVE('',#388,#389,#31,.T.);
#305=EDGE_CURVE('',#389,#390,#440,.T.);
#306=EDGE_CURVE('',#390,#391,#32,.F.);
#307=EDGE_CURVE('',#392,#391,#441,.T.);
#308=EDGE_CURVE('',#392,#393,#33,.T.);
#309=EDGE_CURVE('',#394,#393,#442,.T.);
#310=EDGE_CURVE('',#395,#394,#34,.T.);
#311=EDGE_CURVE('',#396,#395,#443,.T.);
#312=EDGE_CURVE('',#396,#382,#35,.T.);
#313=EDGE_CURVE('',#383,#381,#36,.T.);
#314=EDGE_CURVE('',#397,#398,#444,.T.);
#315=EDGE_CURVE('',#398,#394,#37,.T.);
#316=EDGE_CURVE('',#393,#399,#445,.T.);
#317=EDGE_CURVE('',#399,#397,#38,.T.);
#318=EDGE_CURVE('',#400,#401,#446,.T.);
#319=EDGE_CURVE('',#401,#380,#39,.T.);
#320=EDGE_CURVE('',#402,#379,#40,.T.);
#321=EDGE_CURVE('',#403,#402,#447,.T.);
#322=EDGE_CURVE('',#403,#398,#41,.T.);
#323=EDGE_CURVE('',#397,#404,#42,.T.);
#324=EDGE_CURVE('',#404,#405,#448,.T.);
#325=EDGE_CURVE('',#406,#405,#43,.T.);
#326=EDGE_CURVE('',#407,#406,#449,.T.);
#327=EDGE_CURVE('',#400,#407,#44,.T.);
#328=EDGE_CURVE('',#408,#409,#45,.T.);
#329=EDGE_CURVE('',#408,#410,#450,.T.);
#330=EDGE_CURVE('',#410,#411,#46,.T.);
#331=EDGE_CURVE('',#409,#411,#451,.T.);
#332=EDGE_CURVE('',#399,#412,#47,.F.);
#333=EDGE_CURVE('',#412,#413,#48,.T.);
#334=EDGE_CURVE('',#413,#414,#49,.T.);
#335=EDGE_CURVE('',#404,#414,#50,.T.);
#336=EDGE_CURVE('',#415,#416,#51,.T.);
#337=EDGE_CURVE('',#416,#417,#52,.F.);
#338=EDGE_CURVE('',#418,#417,#53,.T.);
#339=EDGE_CURVE('',#418,#415,#54,.F.);
#340=EDGE_CURVE('',#419,#420,#55,.T.);
#341=EDGE_CURVE('',#420,#421,#56,.T.);
#342=EDGE_CURVE('',#422,#421,#57,.T.);
#343=EDGE_CURVE('',#422,#419,#58,.T.);
#344=EDGE_CURVE('',#423,#424,#59,.T.);
#345=EDGE_CURVE('',#423,#425,#60,.F.);
#346=EDGE_CURVE('',#425,#406,#61,.T.);
#347=EDGE_CURVE('',#405,#426,#62,.T.);
#348=EDGE_CURVE('',#424,#426,#63,.T.);
#349=EDGE_CURVE('',#426,#414,#452,.T.);
#350=EDGE_CURVE('',#424,#413,#453,.T.);
#351=EDGE_CURVE('',#387,#423,#454,.T.);
#352=EDGE_CURVE('',#412,#392,#455,.T.);
#353=EDGE_CURVE('',#391,#416,#456,.F.);
#354=EDGE_CURVE('',#415,#420,#457,.T.);
#355=EDGE_CURVE('',#419,#388,#458,.F.);
#356=EDGE_CURVE('',#407,#385,#64,.T.);
#357=EDGE_CURVE('',#425,#386,#459,.T.);
#358=EDGE_CURVE('',#417,#390,#460,.T.);
#359=EDGE_CURVE('',#421,#418,#461,.F.);
#360=EDGE_CURVE('',#389,#422,#462,.T.);
#361=EDGE_CURVE('',#427,#428,#463,.F.);
#362=EDGE_CURVE('',#428,#429,#12,.T.);
#363=EDGE_CURVE('',#409,#429,#65,.T.);
#364=EDGE_CURVE('',#411,#430,#66,.T.);
#365=EDGE_CURVE('',#430,#427,#13,.T.);
#366=EDGE_CURVE('',#408,#431,#67,.T.);
#367=EDGE_CURVE('',#431,#432,#14,.T.);
#368=EDGE_CURVE('',#432,#433,#464,.F.);
#369=EDGE_CURVE('',#433,#434,#15,.T.);
#370=EDGE_CURVE('',#410,#434,#68,.T.);
#371=EDGE_CURVE('',#429,#431,#69,.T.);
#372=EDGE_CURVE('',#434,#430,#70,.T.);
#373=EDGE_CURVE('',#432,#428,#71,.F.);
#374=EDGE_CURVE('',#427,#433,#72,.T.);
#375=EDGE_CURVE('',#402,#396,#73,.T.);
#376=EDGE_CURVE('',#403,#395,#74,.T.);
#377=EDGE_CURVE('',#400,#384,#75,.T.);
#378=EDGE_CURVE('',#401,#383,#76,.T.);
#379=VERTEX_POINT('',#831);
#380=VERTEX_POINT('',#832);
#381=VERTEX_POINT('',#834);
#382=VERTEX_POINT('',#836);
#383=VERTEX_POINT('',#840);
#384=VERTEX_POINT('',#841);
#385=VERTEX_POINT('',#843);
#386=VERTEX_POINT('',#845);
#387=VERTEX_POINT('',#847);
#388=VERTEX_POINT('',#849);
#389=VERTEX_POINT('',#851);
#390=VERTEX_POINT('',#853);
#391=VERTEX_POINT('',#855);
#392=VERTEX_POINT('',#857);
#393=VERTEX_POINT('',#859);
#394=VERTEX_POINT('',#861);
#395=VERTEX_POINT('',#863);
#396=VERTEX_POINT('',#865);
#397=VERTEX_POINT('',#870);
#398=VERTEX_POINT('',#871);
#399=VERTEX_POINT('',#874);
#400=VERTEX_POINT('',#878);
#401=VERTEX_POINT('',#879);
#402=VERTEX_POINT('',#882);
#403=VERTEX_POINT('',#884);
#404=VERTEX_POINT('',#887);
#405=VERTEX_POINT('',#889);
#406=VERTEX_POINT('',#891);
#407=VERTEX_POINT('',#893);
#408=VERTEX_POINT('',#896);
#409=VERTEX_POINT('',#897);
#410=VERTEX_POINT('',#899);
#411=VERTEX_POINT('',#901);
#412=VERTEX_POINT('',#905);
#413=VERTEX_POINT('',#907);
#414=VERTEX_POINT('',#909);
#415=VERTEX_POINT('',#913);
#416=VERTEX_POINT('',#914);
#417=VERTEX_POINT('',#916);
#418=VERTEX_POINT('',#918);
#419=VERTEX_POINT('',#922);
#420=VERTEX_POINT('',#923);
#421=VERTEX_POINT('',#925);
#422=VERTEX_POINT('',#927);
#423=VERTEX_POINT('',#931);
#424=VERTEX_POINT('',#932);
#425=VERTEX_POINT('',#934);
#426=VERTEX_POINT('',#937);
#427=VERTEX_POINT('',#962);
#428=VERTEX_POINT('',#963);
#429=VERTEX_POINT('',#968);
#430=VERTEX_POINT('',#971);
#431=VERTEX_POINT('',#978);
#432=VERTEX_POINT('',#983);
#433=VERTEX_POINT('',#985);
#434=VERTEX_POINT('',#990);
#435=CIRCLE('',#594,0.0177358925139777);
#436=CIRCLE('',#595,0.0158815533070923);
#437=CIRCLE('',#597,0.0158815533070923);
#438=CIRCLE('',#598,0.0158815533070923);
#439=CIRCLE('',#599,0.0158815533070923);
#440=CIRCLE('',#600,0.0158815533070923);
#441=CIRCLE('',#601,0.0158815533070924);
#442=CIRCLE('',#602,0.0158815533070923);
#443=CIRCLE('',#603,0.0158815533070923);
#444=CIRCLE('',#605,0.0177358925139777);
#445=CIRCLE('',#606,0.002);
#446=CIRCLE('',#608,0.0177358925139777);
#447=CIRCLE('',#609,0.0177358925139777);
#448=CIRCLE('',#610,0.0177358925139777);
#449=CIRCLE('',#611,0.0177358925139777);
#450=CIRCLE('',#612,0.0177358925139777);
#451=CIRCLE('',#613,0.0177358925139777);
#452=CIRCLE('',#619,0.0198815533070923);
#453=CIRCLE('',#620,0.0198815533070923);
#454=CIRCLE('',#622,0.002);
#455=CIRCLE('',#623,0.002);
#456=CIRCLE('',#624,0.004);
#457=CIRCLE('',#625,0.004);
#458=CIRCLE('',#626,0.004);
#459=CIRCLE('',#629,0.002);
#460=CIRCLE('',#631,0.004);
#461=CIRCLE('',#633,0.004);
#462=CIRCLE('',#635,0.004);
#463=CIRCLE('',#639,0.0183626874332209);
#464=CIRCLE('',#641,0.0183626874332209);
#465=EDGE_LOOP('',(#127,#128,#129,#130));
#466=EDGE_LOOP('',(#131,#132,#133,#134,#135,#136,#137,#138,#139,#140,#141,
#142,#143,#144,#145,#146));
#467=EDGE_LOOP('',(#147,#148,#149,#150,#151));
#468=EDGE_LOOP('',(#152,#153,#154,#155,#156,#157,#158,#159,#160,#161,#162,
#163));
#469=EDGE_LOOP('',(#164,#165,#166,#167));
#470=EDGE_LOOP('',(#168,#169,#170,#171,#172,#173));
#471=EDGE_LOOP('',(#174,#175,#176,#177));
#472=EDGE_LOOP('',(#178,#179,#180,#181));
#473=EDGE_LOOP('',(#182,#183,#184,#185,#186,#187));
#474=EDGE_LOOP('',(#188,#189,#190,#191));
#475=EDGE_LOOP('',(#192,#193,#194,#195,#196,#197,#198,#199,#200,#201,#202,
#203));
#476=EDGE_LOOP('',(#204,#205,#206,#207));
#477=EDGE_LOOP('',(#208,#209,#210,#211,#212));
#478=EDGE_LOOP('',(#213,#214,#215,#216));
#479=EDGE_LOOP('',(#217,#218,#219,#220));
#480=EDGE_LOOP('',(#221,#222,#223,#224));
#481=EDGE_LOOP('',(#225,#226,#227,#228));
#482=EDGE_LOOP('',(#229,#230,#231,#232));
#483=EDGE_LOOP('',(#233,#234,#235,#236,#237,#238));
#484=EDGE_LOOP('',(#239,#240,#241,#242,#243,#244));
#485=EDGE_LOOP('',(#245,#246,#247,#248));
#486=EDGE_LOOP('',(#249,#250,#251,#252));
#487=EDGE_LOOP('',(#253,#254,#255,#256));
#488=EDGE_LOOP('',(#257,#258,#259,#260));
#489=EDGE_LOOP('',(#261,#262,#263,#264));
#490=EDGE_LOOP('',(#265,#266,#267,#268,#269,#270));
#491=EDGE_LOOP('',(#271,#272,#273,#274));
#492=EDGE_LOOP('',(#275,#276,#277,#278));
#493=EDGE_LOOP('',(#279,#280,#281,#282));
#494=EDGE_LOOP('',(#283,#284,#285,#286));
#495=EDGE_LOOP('',(#287,#288,#289,#290));
#496=EDGE_LOOP('',(#291,#292,#293,#294));
#497=FACE_BOUND('',#465,.T.);
#498=FACE_BOUND('',#466,.T.);
#499=FACE_BOUND('',#467,.T.);
#500=FACE_BOUND('',#468,.T.);
#501=FACE_BOUND('',#469,.T.);
#502=FACE_BOUND('',#470,.T.);
#503=FACE_BOUND('',#471,.T.);
#504=FACE_BOUND('',#472,.T.);
#505=FACE_BOUND('',#473,.T.);
#506=FACE_BOUND('',#474,.T.);
#507=FACE_BOUND('',#475,.T.);
#508=FACE_BOUND('',#476,.T.);
#509=FACE_BOUND('',#477,.T.);
#510=FACE_BOUND('',#478,.T.);
#511=FACE_BOUND('',#479,.T.);
#512=FACE_BOUND('',#480,.T.);
#513=FACE_BOUND('',#481,.T.);
#514=FACE_BOUND('',#482,.T.);
#515=FACE_BOUND('',#483,.T.);
#516=FACE_BOUND('',#484,.T.);
#517=FACE_BOUND('',#485,.T.);
#518=FACE_BOUND('',#486,.T.);
#519=FACE_BOUND('',#487,.T.);
#520=FACE_BOUND('',#488,.T.);
#521=FACE_BOUND('',#489,.T.);
#522=FACE_BOUND('',#490,.T.);
#523=FACE_BOUND('',#491,.T.);
#524=FACE_BOUND('',#492,.T.);
#525=FACE_BOUND('',#493,.T.);
#526=FACE_BOUND('',#494,.T.);
#527=FACE_BOUND('',#495,.T.);
#528=FACE_BOUND('',#496,.T.);
#529=PLANE('',#593);
#530=PLANE('',#604);
#531=PLANE('',#614);
#532=PLANE('',#615);
#533=PLANE('',#616);
#534=PLANE('',#617);
#535=PLANE('',#621);
#536=PLANE('',#627);
#537=PLANE('',#628);
#538=PLANE('',#642);
#539=PLANE('',#643);
#540=PLANE('',#645);
#541=PLANE('',#646);
#542=PLANE('',#647);
#543=PLANE('',#648);
#544=PLANE('',#649);
#545=PLANE('',#650);
#546=PLANE('',#651);
#547=PLANE('',#652);
#548=PLANE('',#653);
#549=ADVANCED_FACE('',(#497),#529,.T.);
#550=ADVANCED_FACE('',(#498),#18,.F.);
#551=ADVANCED_FACE('',(#499),#530,.T.);
#552=ADVANCED_FACE('',(#500,#501),#19,.T.);
#553=ADVANCED_FACE('',(#502),#531,.T.);
#554=ADVANCED_FACE('',(#503),#532,.T.);
#555=ADVANCED_FACE('',(#504),#533,.T.);
#556=ADVANCED_FACE('',(#505),#534,.F.);
#557=ADVANCED_FACE('',(#506),#20,.T.);
#558=ADVANCED_FACE('',(#507),#535,.T.);
#559=ADVANCED_FACE('',(#508),#536,.F.);
#560=ADVANCED_FACE('',(#509),#537,.T.);
#561=ADVANCED_FACE('',(#510),#21,.F.);
#562=ADVANCED_FACE('',(#511),#22,.T.);
#563=ADVANCED_FACE('',(#512),#23,.F.);
#564=ADVANCED_FACE('',(#513),#24,.T.);
#565=ADVANCED_FACE('',(#514),#25,.T.);
#566=ADVANCED_FACE('',(#515),#16,.T.);
#567=ADVANCED_FACE('',(#516),#17,.T.);
#568=ADVANCED_FACE('',(#517),#538,.T.);
#569=ADVANCED_FACE('',(#518),#539,.F.);
#570=ADVANCED_FACE('',(#519),#26,.T.);
#571=ADVANCED_FACE('',(#520),#540,.F.);
#572=ADVANCED_FACE('',(#521),#541,.T.);
#573=ADVANCED_FACE('',(#522),#542,.T.);
#574=ADVANCED_FACE('',(#523),#543,.F.);
#575=ADVANCED_FACE('',(#524),#544,.T.);
#576=ADVANCED_FACE('',(#525),#545,.T.);
#577=ADVANCED_FACE('',(#526),#546,.F.);
#578=ADVANCED_FACE('',(#527),#547,.T.);
#579=ADVANCED_FACE('',(#528),#548,.T.);
#580=CLOSED_SHELL('',(#549,#550,#551,#552,#553,#554,#555,#556,#557,#558,
#559,#560,#561,#562,#563,#564,#565,#566,#567,#568,#569,#570,#571,#572,#573,
#574,#575,#576,#577,#578,#579));
#581=STYLED_ITEM('',(#582),#589);
#582=PRESENTATION_STYLE_ASSIGNMENT((#583));
#583=SURFACE_STYLE_USAGE(.BOTH.,#584);
#584=SURFACE_SIDE_STYLE('',(#585));
#585=SURFACE_STYLE_FILL_AREA(#586);
#586=FILL_AREA_STYLE('',(#587));
#587=FILL_AREA_STYLE_COLOUR('',#588);
#588=COLOUR_RGB('',0.980392156862745,0.713725490196078,0.00392156862745098);
#589=MANIFOLD_SOLID_BREP('smalleye',#580);
#590=SHAPE_DEFINITION_REPRESENTATION(#1018,#591);
#591=SHAPE_REPRESENTATION('smalleye',(#592),#1013);
#592=AXIS2_PLACEMENT_3D('',#828,#654,#655);
#593=AXIS2_PLACEMENT_3D('',#829,#656,#657);
#594=AXIS2_PLACEMENT_3D('',#830,#658,#659);
#595=AXIS2_PLACEMENT_3D('',#835,#661,#662);
#596=AXIS2_PLACEMENT_3D('',#838,#664,#665);
#597=AXIS2_PLACEMENT_3D('',#839,#666,#667);
#598=AXIS2_PLACEMENT_3D('',#844,#669,#670);
#599=AXIS2_PLACEMENT_3D('',#848,#672,#673);
#600=AXIS2_PLACEMENT_3D('',#852,#675,#676);
#601=AXIS2_PLACEMENT_3D('',#856,#678,#679);
#602=AXIS2_PLACEMENT_3D('',#860,#681,#682);
#603=AXIS2_PLACEMENT_3D('',#864,#684,#685);
#604=AXIS2_PLACEMENT_3D('',#868,#688,#689);
#605=AXIS2_PLACEMENT_3D('',#869,#690,#691);
#606=AXIS2_PLACEMENT_3D('',#873,#693,#694);
#607=AXIS2_PLACEMENT_3D('',#876,#696,#697);
#608=AXIS2_PLACEMENT_3D('',#877,#698,#699);
#609=AXIS2_PLACEMENT_3D('',#883,#702,#703);
#610=AXIS2_PLACEMENT_3D('',#888,#706,#707);
#611=AXIS2_PLACEMENT_3D('',#892,#709,#710);
#612=AXIS2_PLACEMENT_3D('',#898,#713,#714);
#613=AXIS2_PLACEMENT_3D('',#902,#716,#717);
#614=AXIS2_PLACEMENT_3D('',#903,#718,#719);
#615=AXIS2_PLACEMENT_3D('',#911,#724,#725);
#616=AXIS2_PLACEMENT_3D('',#920,#730,#731);
#617=AXIS2_PLACEMENT_3D('',#929,#736,#737);
#618=AXIS2_PLACEMENT_3D('',#939,#743,#744);
#619=AXIS2_PLACEMENT_3D('',#940,#745,#746);
#620=AXIS2_PLACEMENT_3D('',#941,#747,#748);
#621=AXIS2_PLACEMENT_3D('',#942,#749,#750);
#622=AXIS2_PLACEMENT_3D('',#943,#751,#752);
#623=AXIS2_PLACEMENT_3D('',#944,#753,#754);
#624=AXIS2_PLACEMENT_3D('',#945,#755,#756);
#625=AXIS2_PLACEMENT_3D('',#946,#757,#758);
#626=AXIS2_PLACEMENT_3D('',#947,#759,#760);
#627=AXIS2_PLACEMENT_3D('',#948,#761,#762);
#628=AXIS2_PLACEMENT_3D('',#949,#763,#764);
#629=AXIS2_PLACEMENT_3D('',#951,#766,#767);
#630=AXIS2_PLACEMENT_3D('',#952,#768,#769);
#631=AXIS2_PLACEMENT_3D('',#953,#770,#771);
#632=AXIS2_PLACEMENT_3D('',#954,#772,#773);
#633=AXIS2_PLACEMENT_3D('',#955,#774,#775);
#634=AXIS2_PLACEMENT_3D('',#956,#776,#777);
#635=AXIS2_PLACEMENT_3D('',#957,#778,#779);
#636=AXIS2_PLACEMENT_3D('',#958,#780,#781);
#637=AXIS2_PLACEMENT_3D('',#959,#782,#783);
#638=AXIS2_PLACEMENT_3D('',#960,#784,#785);
#639=AXIS2_PLACEMENT_3D('',#961,#786,#787);
#640=AXIS2_PLACEMENT_3D('',#976,#790,#791);
#641=AXIS2_PLACEMENT_3D('',#984,#793,#794);
#642=AXIS2_PLACEMENT_3D('',#992,#796,#797);
#643=AXIS2_PLACEMENT_3D('',#994,#799,#800);
#644=AXIS2_PLACEMENT_3D('',#996,#802,#803);
#645=AXIS2_PLACEMENT_3D('',#999,#806,#807);
#646=AXIS2_PLACEMENT_3D('',#1000,#808,#809);
#647=AXIS2_PLACEMENT_3D('',#1001,#810,#811);
#648=AXIS2_PLACEMENT_3D('',#1002,#812,#813);
#649=AXIS2_PLACEMENT_3D('',#1004,#815,#816);
#650=AXIS2_PLACEMENT_3D('',#1006,#818,#819);
#651=AXIS2_PLACEMENT_3D('',#1007,#820,#821);
#652=AXIS2_PLACEMENT_3D('',#1009,#823,#824);
#653=AXIS2_PLACEMENT_3D('',#1011,#826,#827);
#654=DIRECTION('',(0.,0.,1.));
#655=DIRECTION('',(1.,0.,0.));
#656=DIRECTION('',(0.,0.,-1.));
#657=DIRECTION('',(-1.,0.,0.));
#658=DIRECTION('',(0.,0.,-1.));
#659=DIRECTION('',(0.,1.,0.));
#660=DIRECTION('',(0.,1.,0.));
#661=DIRECTION('',(0.,0.,1.));
#662=DIRECTION('',(0.,-1.,0.));
#663=DIRECTION('',(0.,-1.,0.));
#664=DIRECTION('',(0.,0.,-1.));
#665=DIRECTION('',(0.,1.,0.));
#666=DIRECTION('',(0.,0.,-1.));
#667=DIRECTION('',(0.,1.,0.));
#668=DIRECTION('',(0.,0.,-1.));
#669=DIRECTION('',(0.,0.,1.));
#670=DIRECTION('',(0.,-1.,0.));
#671=DIRECTION('',(0.,0.,-1.));
#672=DIRECTION('',(0.,0.,1.));
#673=DIRECTION('',(0.,-1.,0.));
#674=DIRECTION('',(0.,0.,-1.));
#675=DIRECTION('',(0.,0.,1.));
#676=DIRECTION('',(0.,-1.,0.));
#677=DIRECTION('',(0.,0.,-1.));
#678=DIRECTION('',(0.,0.,-1.));
#679=DIRECTION('',(0.,-1.,0.));
#680=DIRECTION('',(0.,0.,-1.));
#681=DIRECTION('',(0.,0.,1.));
#682=DIRECTION('',(0.,-1.,0.));
#683=DIRECTION('',(0.,0.,-1.));
#684=DIRECTION('',(0.,0.,1.));
#685=DIRECTION('',(0.,-1.,0.));
#686=DIRECTION('',(0.,0.,-1.));
#687=DIRECTION('',(0.,0.,-1.));
#688=DIRECTION('',(0.,0.,-1.));
#689=DIRECTION('',(-1.,0.,0.));
#690=DIRECTION('',(0.,0.,-1.));
#691=DIRECTION('',(0.,1.,0.));
#692=DIRECTION('',(0.,-1.,0.));
#693=DIRECTION('',(0.,0.,-1.));
#694=DIRECTION('',(0.,1.,0.));
#695=DIRECTION('',(-1.,0.,0.));
#696=DIRECTION('',(0.,0.,1.));
#697=DIRECTION('',(0.,-1.,0.));
#698=DIRECTION('',(0.,0.,1.));
#699=DIRECTION('',(0.,-1.,0.));
#700=DIRECTION('',(0.,0.,-1.));
#701=DIRECTION('',(0.,0.,-1.));
#702=DIRECTION('',(0.,0.,-1.));
#703=DIRECTION('',(0.,1.,0.));
#704=DIRECTION('',(0.,0.,-1.));
#705=DIRECTION('',(0.,0.,1.));
#706=DIRECTION('',(0.,0.,-1.));
#707=DIRECTION('',(0.,1.,0.));
#708=DIRECTION('',(0.,0.,1.));
#709=DIRECTION('',(0.,0.,-1.));
#710=DIRECTION('',(0.,1.,0.));
#711=DIRECTION('',(0.,0.,-1.));
#712=DIRECTION('',(0.,0.,-1.));
#713=DIRECTION('',(0.,0.,1.));
#714=DIRECTION('',(0.,-1.,0.));
#715=DIRECTION('',(0.,0.,-1.));
#716=DIRECTION('',(0.,0.,1.));
#717=DIRECTION('',(0.,-1.,0.));
#718=DIRECTION('',(0.,-1.,0.));
#719=DIRECTION('',(-1.,0.,0.));
#720=DIRECTION('',(0.,0.,-1.));
#721=DIRECTION('',(-1.,0.,0.));
#722=DIRECTION('',(0.,0.,-1.));
#723=DIRECTION('',(-1.,0.,0.));
#724=DIRECTION('',(0.633879830346479,0.773431548800487,0.));
#725=DIRECTION('',(0.773431548800487,-0.633879830346479,0.));
#726=DIRECTION('',(0.773431548800487,-0.633879830346479,0.));
#727=DIRECTION('',(0.,0.,1.));
#728=DIRECTION('',(0.773431548800487,-0.633879830346479,0.));
#729=DIRECTION('',(0.,0.,-1.));
#730=DIRECTION('',(-0.352871454176326,0.935671810426864,0.));
#731=DIRECTION('',(0.935671810426864,0.352871454176326,0.));
#732=DIRECTION('',(0.935671810426864,0.352871454176326,0.));
#733=DIRECTION('',(0.,0.,-1.));
#734=DIRECTION('',(0.935671810426864,0.352871454176326,0.));
#735=DIRECTION('',(0.,0.,1.));
#736=DIRECTION('',(0.,-1.,0.));
#737=DIRECTION('',(-1.,0.,0.));
#738=DIRECTION('',(-1.,0.,0.));
#739=DIRECTION('',(0.,0.,1.));
#740=DIRECTION('',(-1.,0.,0.));
#741=DIRECTION('',(-1.,0.,0.));
#742=DIRECTION('',(0.,0.,-1.));
#743=DIRECTION('',(0.,0.,-1.));
#744=DIRECTION('',(0.,1.,0.));
#745=DIRECTION('',(0.,0.,1.));
#746=DIRECTION('',(0.,-1.,0.));
#747=DIRECTION('',(0.,0.,1.));
#748=DIRECTION('',(0.,-1.,0.));
#749=DIRECTION('',(0.,0.,1.));
#750=DIRECTION('',(1.,0.,0.));
#751=DIRECTION('',(0.,0.,1.));
#752=DIRECTION('',(0.,-1.,0.));
#753=DIRECTION('',(0.,0.,1.));
#754=DIRECTION('',(0.,-1.,0.));
#755=DIRECTION('',(0.,0.,1.));
#756=DIRECTION('',(0.,-1.,0.));
#757=DIRECTION('',(0.,0.,1.));
#758=DIRECTION('',(0.,-1.,0.));
#759=DIRECTION('',(0.,0.,1.));
#760=DIRECTION('',(0.,-1.,0.));
#761=DIRECTION('',(0.,0.,1.));
#762=DIRECTION('',(1.,0.,0.));
#763=DIRECTION('',(0.,0.,-1.));
#764=DIRECTION('',(-1.,0.,0.));
#765=DIRECTION('',(0.,1.,0.));
#766=DIRECTION('',(0.,0.,-1.));
#767=DIRECTION('',(0.,1.,0.));
#768=DIRECTION('',(0.,0.,-1.));
#769=DIRECTION('',(0.,1.,0.));
#770=DIRECTION('',(0.,0.,1.));
#771=DIRECTION('',(0.,-1.,0.));
#772=DIRECTION('',(0.,0.,-1.));
#773=DIRECTION('',(0.,1.,0.));
#774=DIRECTION('',(0.,0.,1.));
#775=DIRECTION('',(0.,-1.,0.));
#776=DIRECTION('',(0.,0.,-1.));
#777=DIRECTION('',(0.,1.,0.));
#778=DIRECTION('',(0.,0.,1.));
#779=DIRECTION('',(0.,-1.,0.));
#780=DIRECTION('',(0.,0.,-1.));
#781=DIRECTION('',(0.,1.,0.));
#782=DIRECTION('',(0.,0.,-1.));
#783=DIRECTION('',(0.,1.,0.));
#784=DIRECTION('',(0.,0.,1.));
#785=DIRECTION('',(0.,-1.,0.));
#786=DIRECTION('',(0.,0.,1.));
#787=DIRECTION('',(0.,-1.,0.));
#788=DIRECTION('',(-0.709406479916222,-0.496731764892155,0.5));
#789=DIRECTION('',(-0.709406479916223,0.496731764892154,0.5));
#790=DIRECTION('',(0.,0.,-1.));
#791=DIRECTION('',(0.,1.,0.));
#792=DIRECTION('',(-0.709406479916222,-0.496731764892155,-0.5));
#793=DIRECTION('',(0.,0.,-1.));
#794=DIRECTION('',(0.,1.,0.));
#795=DIRECTION('',(-0.709406479916223,0.496731764892154,-0.5));
#796=DIRECTION('',(-0.573576436351047,0.819152044288991,0.));
#797=DIRECTION('',(0.,0.,-1.));
#798=DIRECTION('',(0.,0.,1.));
#799=DIRECTION('',(0.573576436351046,0.819152044288992,0.));
#800=DIRECTION('',(0.,0.,-1.));
#801=DIRECTION('',(0.,0.,-1.));
#802=DIRECTION('',(0.,0.,1.));
#803=DIRECTION('',(0.,-1.,0.));
#804=DIRECTION('',(0.,0.,1.));
#805=DIRECTION('',(0.,0.,1.));
#806=DIRECTION('',(0.985967033724227,-0.166940134206991,0.));
#807=DIRECTION('',(0.,0.,1.));
#808=DIRECTION('',(-0.985967033724227,-0.16694013420699,0.));
#809=DIRECTION('',(0.,0.,1.));
#810=DIRECTION('',(0.,0.,-1.));
#811=DIRECTION('',(-1.,0.,0.));
#812=DIRECTION('',(1.,0.,0.));
#813=DIRECTION('',(0.,-1.,0.));
#814=DIRECTION('',(0.,-1.,0.));
#815=DIRECTION('',(1.,0.,0.));
#816=DIRECTION('',(0.,-1.,0.));
#817=DIRECTION('',(0.,-1.,0.));
#818=DIRECTION('',(0.,0.,-1.));
#819=DIRECTION('',(-1.,0.,0.));
#820=DIRECTION('',(-1.,0.,0.));
#821=DIRECTION('',(0.,1.,0.));
#822=DIRECTION('',(0.,1.,0.));
#823=DIRECTION('',(-1.,0.,0.));
#824=DIRECTION('',(0.,1.,0.));
#825=DIRECTION('',(0.,1.,0.));
#826=DIRECTION('',(0.,0.,-1.));
#827=DIRECTION('',(-1.,0.,0.));
#828=CARTESIAN_POINT('',(0.,0.,0.));
#829=CARTESIAN_POINT('',(0.0326523276564461,-1.7347234759768E-17,0.0475));
#830=CARTESIAN_POINT('',(0.0325382206761615,1.06455987548537E-16,0.0475));
#831=CARTESIAN_POINT('',(0.0343418625345872,0.0176439439840957,0.0475));
#832=CARTESIAN_POINT('',(0.0343418625345872,-0.0176439439840957,0.0475));
#833=CARTESIAN_POINT('',(0.0343418625345872,-0.0167113732920919,0.0475));
#834=CARTESIAN_POINT('',(0.0343418625345872,-0.0157788026000881,0.0475));
#835=CARTESIAN_POINT('',(0.0325382206761615,-5.83300768797201E-17,0.0475));
#836=CARTESIAN_POINT('',(0.0343418625345872,0.0157788026000881,0.0475));
#837=CARTESIAN_POINT('',(0.0343418625345872,0.0167113732920919,0.0475));
#838=CARTESIAN_POINT('',(0.0325382206761615,-5.83300768797201E-17,0.0505));
#839=CARTESIAN_POINT('',(0.0325382206761615,5.83300768797201E-17,0.0476));
#840=CARTESIAN_POINT('',(0.0343418625345872,-0.0157788026000881,0.0476));
#841=CARTESIAN_POINT('',(0.0307345788177362,-0.0157788026000881,0.0476));
#842=CARTESIAN_POINT('',(0.0307345788177362,-0.0157788026000881,0.0476));
#843=CARTESIAN_POINT('',(0.0307345788177362,-0.0157788026000881,0.0475));
#844=CARTESIAN_POINT('',(0.0325382206761615,-5.83300768797201E-17,0.0475));
#845=CARTESIAN_POINT('',(0.0172911263419034,-0.00444408031073337,0.0475));
#846=CARTESIAN_POINT('',(0.0172911263419034,-0.00444408031073337,0.0505));
#847=CARTESIAN_POINT('',(0.0172911263419034,-0.00444408031073337,0.0505));
#848=CARTESIAN_POINT('',(0.0325382206761615,-5.83300768797201E-17,0.0505));
#849=CARTESIAN_POINT('',(0.0174600811180071,-0.00498732823371712,0.0505));
#850=CARTESIAN_POINT('',(0.0174600811180071,-0.00498732823371712,0.0505));
#851=CARTESIAN_POINT('',(0.0174600811180071,-0.00498732823371712,0.0485));
#852=CARTESIAN_POINT('',(0.0325382206761615,-5.83300768797201E-17,0.0485));
#853=CARTESIAN_POINT('',(0.0452257389963284,-0.00955251874227121,0.0485));
#854=CARTESIAN_POINT('',(0.0452257389963284,-0.00955251874227122,0.0505));
#855=CARTESIAN_POINT('',(0.0452257389963285,-0.00955251874227128,0.0505));
#856=CARTESIAN_POINT('',(0.0325382206761616,-1.69135538907739E-17,0.0505));
#857=CARTESIAN_POINT('',(0.0172911892304803,0.00444429606804255,0.0505));
#858=CARTESIAN_POINT('',(0.0172911892304803,0.00444429606804254,0.0505));
#859=CARTESIAN_POINT('',(0.0172911892304803,0.00444429606804254,0.0475));
#860=CARTESIAN_POINT('',(0.0325382206761615,-5.83300768797201E-17,0.0475));
#861=CARTESIAN_POINT('',(0.0307345788177362,0.0157788026000881,0.0475));
#862=CARTESIAN_POINT('',(0.0307345788177362,0.0157788026000881,0.0476));
#863=CARTESIAN_POINT('',(0.0307345788177362,0.0157788026000881,0.0476));
#864=CARTESIAN_POINT('',(0.0325382206761615,-5.83300768797201E-17,0.0476));
#865=CARTESIAN_POINT('',(0.0343418625345872,0.0157788026000881,0.0476));
#866=CARTESIAN_POINT('',(0.0343418625345872,0.0157788026000881,0.0476));
#867=CARTESIAN_POINT('',(0.0343418625345872,-0.0157788026000881,0.0476));
#868=CARTESIAN_POINT('',(0.0326523276564461,-1.7347234759768E-17,0.0475));
#869=CARTESIAN_POINT('',(0.0325382206761615,1.06455987548537E-16,0.0475));
#870=CARTESIAN_POINT('',(0.0150585751021632,0.00300397634390799,0.0475));
#871=CARTESIAN_POINT('',(0.0307345788177362,0.0176439439840958,0.0475));
#872=CARTESIAN_POINT('',(0.0307345788177362,0.0167113732920919,0.0475));
#873=CARTESIAN_POINT('',(0.0153710960064916,0.00500397634390799,0.0475));
#874=CARTESIAN_POINT('',(0.0153710960064916,0.00300397634390799,0.0475));
#875=CARTESIAN_POINT('',(0.0131704288761479,0.00300397634390799,0.0475));
#876=CARTESIAN_POINT('',(0.0325382206761615,1.06455987548537E-16,0.0475));
#877=CARTESIAN_POINT('',(0.0325382206761615,-1.06455987548537E-16,0.0476));
#878=CARTESIAN_POINT('',(0.0307345788177362,-0.0176439439840958,0.0476));
#879=CARTESIAN_POINT('',(0.0343418625345872,-0.0176439439840955,0.0476));
#880=CARTESIAN_POINT('',(0.0343418625345872,-0.0176439439840957,0.0476));
#881=CARTESIAN_POINT('',(0.0343418625345872,0.0176439439840957,0.0476));
#882=CARTESIAN_POINT('',(0.0343418625345872,0.0176439439840957,0.0476));
#883=CARTESIAN_POINT('',(0.0325382206761615,1.06455987548537E-16,0.0476));
#884=CARTESIAN_POINT('',(0.0307345788177362,0.0176439439840958,0.0476));
#885=CARTESIAN_POINT('',(0.0307345788177362,0.0176439439840958,0.0476));
#886=CARTESIAN_POINT('',(0.0150585751021632,0.00300397634390799,0.0475));
#887=CARTESIAN_POINT('',(0.0150585751021629,0.00300397634390799,0.0495));
#888=CARTESIAN_POINT('',(0.0325382206761615,1.06455987548537E-16,0.0495));
#889=CARTESIAN_POINT('',(0.015058533355325,-0.0030037334157919,0.0495));
#890=CARTESIAN_POINT('',(0.015058533355325,-0.0030037334157919,0.0475));
#891=CARTESIAN_POINT('',(0.015058533355325,-0.0030037334157919,0.0475));
#892=CARTESIAN_POINT('',(0.0325382206761615,1.06455987548537E-16,0.0475));
#893=CARTESIAN_POINT('',(0.0307345788177362,-0.0176439439840958,0.0475));
#894=CARTESIAN_POINT('',(0.0307345788177362,-0.0176439439840958,0.0476));
#895=CARTESIAN_POINT('',(0.018009828066047,-0.0101728900236726,0.0481350852961086));
#896=CARTESIAN_POINT('',(0.0180098280660471,-0.0101728900236725,0.0485969655114604));
#897=CARTESIAN_POINT('',(0.0180098280660471,-0.0101728900236725,0.0476732050807568));
#898=CARTESIAN_POINT('',(0.0325382206761618,0.,0.0485969655114603));
#899=CARTESIAN_POINT('',(0.018009828066047,0.0101728900236726,0.0485969655114603));
#900=CARTESIAN_POINT('',(0.018009828066047,0.0101728900236726,0.0481350852961086));
#901=CARTESIAN_POINT('',(0.018009828066047,0.0101728900236726,0.0476732050807569));
#902=CARTESIAN_POINT('',(0.0325382206761618,0.,0.0476732050807569));
#903=CARTESIAN_POINT('',(0.0131704288761479,0.00300397634390799,0.0505));
#904=CARTESIAN_POINT('',(0.0153710960064916,0.00300397634390799,0.0505));
#905=CARTESIAN_POINT('',(0.0153710960064916,0.00300397634390799,0.0505));
#906=CARTESIAN_POINT('',(0.0131704288761479,0.00300397634390799,0.0505));
#907=CARTESIAN_POINT('',(0.0128849184592824,0.00300397634390799,0.0505));
#908=CARTESIAN_POINT('',(0.0128849184592824,0.00300397634390799,0.0505));
#909=CARTESIAN_POINT('',(0.0128849184592824,0.00300397634390799,0.0495));
#910=CARTESIAN_POINT('',(0.0131704288761479,0.00300397634390799,0.0495));
#911=CARTESIAN_POINT('',(0.0370864486321073,-0.00826659152872675,0.0505));
#912=CARTESIAN_POINT('',(0.0370864486321073,-0.00826659152872675,0.0505));
#913=CARTESIAN_POINT('',(0.0336667099404206,-0.00546388276273765,0.0505));
#914=CARTESIAN_POINT('',(0.0394946838039012,-0.0102403042696909,0.0505));
#915=CARTESIAN_POINT('',(0.0394946838039012,-0.0102403042696909,0.0495));
#916=CARTESIAN_POINT('',(0.0394946838039012,-0.0102403042696909,0.0485));
#917=CARTESIAN_POINT('',(0.0370864486321073,-0.00826659152872675,0.0485));
#918=CARTESIAN_POINT('',(0.0336667099404206,-0.00546388276273765,0.0485));
#919=CARTESIAN_POINT('',(0.0336667099404206,-0.00546388276273765,0.0505));
#920=CARTESIAN_POINT('',(0.0255826184657302,-0.00637514791454281,0.0505));
#921=CARTESIAN_POINT('',(0.0255826184657302,-0.00637514791454281,0.0505));
#922=CARTESIAN_POINT('',(0.0226692155063848,-0.00747388438112164,0.0505));
#923=CARTESIAN_POINT('',(0.0297197048023293,-0.00481492171623215,0.0505));
#924=CARTESIAN_POINT('',(0.0297197048023293,-0.00481492171623214,0.0505));
#925=CARTESIAN_POINT('',(0.0297197048023293,-0.00481492171623215,0.0485));
#926=CARTESIAN_POINT('',(0.0255826184657302,-0.00637514791454281,0.0485));
#927=CARTESIAN_POINT('',(0.0226692155063848,-0.00747388438112164,0.0485));
#928=CARTESIAN_POINT('',(0.0226692155063848,-0.00747388438112164,0.0505));
#929=CARTESIAN_POINT('',(0.0131704103113257,-0.0030037334157919,0.0505));
#930=CARTESIAN_POINT('',(0.0131704103113257,-0.0030037334157919,0.0505));
#931=CARTESIAN_POINT('',(0.0153710251982138,-0.0030037334157919,0.0505));
#932=CARTESIAN_POINT('',(0.0128848813296383,-0.0030037334157919,0.0505));
#933=CARTESIAN_POINT('',(0.0153710251982138,-0.0030037334157919,0.0475));
#934=CARTESIAN_POINT('',(0.0153710251982138,-0.0030037334157919,0.0475));
#935=CARTESIAN_POINT('',(0.0131704103113257,-0.0030037334157919,0.0475));
#936=CARTESIAN_POINT('',(0.0131704103113257,-0.0030037334157919,0.0495));
#937=CARTESIAN_POINT('',(0.0128848813296383,-0.0030037334157919,0.0495));
#938=CARTESIAN_POINT('',(0.0128848813296383,-0.0030037334157919,0.0505));
#939=CARTESIAN_POINT('',(0.0325382206761616,-1.59559699090131E-17,0.0505));
#940=CARTESIAN_POINT('',(0.0325382206761616,-1.59559699090131E-17,0.0495));
#941=CARTESIAN_POINT('',(0.0325382206761616,-1.59559699090131E-17,0.0505));
#942=CARTESIAN_POINT('',(0.0326523151564461,-2.08166817117217E-17,0.0505));
#943=CARTESIAN_POINT('',(0.0153710251982138,-0.00500373341579189,0.0505));
#944=CARTESIAN_POINT('',(0.0153710960064916,0.00500397634390799,0.0505));
#945=CARTESIAN_POINT('',(0.0420302031252872,-0.00714657807448899,0.0505));
#946=CARTESIAN_POINT('',(0.0311311906190347,-0.0085576089579396,0.0505));
#947=CARTESIAN_POINT('',(0.0212577296896795,-0.00373119713941418,0.0505));
#948=CARTESIAN_POINT('',(0.0326523151564461,-2.08166817117217E-17,0.0495));
#949=CARTESIAN_POINT('',(0.0326523276564461,-1.7347234759768E-17,0.0475));
#950=CARTESIAN_POINT('',(0.0307345788177362,-0.0167113732920919,0.0475));
#951=CARTESIAN_POINT('',(0.0153710251982138,-0.00500373341579189,0.0475));
#952=CARTESIAN_POINT('',(0.0420302031252872,-0.00714657807448899,0.0505));
#953=CARTESIAN_POINT('',(0.0420302031252872,-0.00714657807448899,0.0485));
#954=CARTESIAN_POINT('',(0.0311311906190347,-0.0085576089579396,0.0505));
#955=CARTESIAN_POINT('',(0.0311311906190347,-0.0085576089579396,0.0485));
#956=CARTESIAN_POINT('',(0.0212577296896795,-0.00373119713941418,0.0505));
#957=CARTESIAN_POINT('',(0.0212577296896795,-0.00373119713941418,0.0485));
#958=CARTESIAN_POINT('',(0.0153710251982138,-0.00500373341579189,0.0505));
#959=CARTESIAN_POINT('',(0.0153710960064916,0.00500397634390799,0.0505));
#960=CARTESIAN_POINT('',(0.0325382206761618,0.,0.0476732050807569));
#961=CARTESIAN_POINT('',(0.0325382206761618,0.,0.0480350852961086));
#962=CARTESIAN_POINT('',(0.0177887255638697,0.0109380383845843,0.0480350852961086));
#963=CARTESIAN_POINT('',(0.0177887255638697,-0.0109380383845843,0.0480350852961086));
#964=CARTESIAN_POINT('',(0.0177887255638697,-0.0109380383845843,0.0480350852961086));
#965=CARTESIAN_POINT('',(0.0178277302913656,-0.01070767211794,0.0479377721493096));
#966=CARTESIAN_POINT('',(0.0178668072977064,-0.0104768789643839,0.0478415122959907));
#967=CARTESIAN_POINT('',(0.0179059637487436,-0.0102456166015994,0.0477464101615138));
#968=CARTESIAN_POINT('',(0.0179059637487436,-0.0102456166015994,0.0477464101615138));
#969=CARTESIAN_POINT('',(0.0176821672483315,-0.010402320598213,0.0479041451884327));
#970=CARTESIAN_POINT('',(0.0176821672483315,0.010402320598213,0.0479041451884327));
#971=CARTESIAN_POINT('',(0.0179059637487436,0.0102456166015994,0.0477464101615138));
#972=CARTESIAN_POINT('',(0.0179059637487436,0.0102456166015994,0.0477464101615138));
#973=CARTESIAN_POINT('',(0.0178668072977064,0.0104768789643839,0.0478415122959907));
#974=CARTESIAN_POINT('',(0.0178277302913656,0.01070767211794,0.0479377721493096));
#975=CARTESIAN_POINT('',(0.0177887255638697,0.0109380383845843,0.0480350852961086));
#976=CARTESIAN_POINT('',(0.0325382206761618,0.,0.0485969655114603));
#977=CARTESIAN_POINT('',(0.0176821672483315,-0.010402320598213,0.0483660254037844));
#978=CARTESIAN_POINT('',(0.0179059637487436,-0.0102456166015994,0.0485237604307034));
#979=CARTESIAN_POINT('',(0.0179059637487436,-0.0102456166015994,0.0485237604307034));
#980=CARTESIAN_POINT('',(0.0178668072977064,-0.0104768789643839,0.0484286582962265));
#981=CARTESIAN_POINT('',(0.0178277302913656,-0.01070767211794,0.0483323984429076));
#982=CARTESIAN_POINT('',(0.0177887255638697,-0.0109380383845843,0.0482350852961086));
#983=CARTESIAN_POINT('',(0.0177887255638697,-0.0109380383845843,0.0482350852961086));
#984=CARTESIAN_POINT('',(0.0325382206761618,0.,0.0482350852961086));
#985=CARTESIAN_POINT('',(0.0177887255638697,0.0109380383845843,0.0482350852961086));
#986=CARTESIAN_POINT('',(0.0177887255638697,0.0109380383845843,0.0482350852961086));
#987=CARTESIAN_POINT('',(0.0178277302913656,0.01070767211794,0.0483323984429076));
#988=CARTESIAN_POINT('',(0.0178668072977064,0.0104768789643839,0.0484286582962265));
#989=CARTESIAN_POINT('',(0.0179059637487436,0.0102456166015994,0.0485237604307034));
#990=CARTESIAN_POINT('',(0.0179059637487436,0.0102456166015994,0.0485237604307034));
#991=CARTESIAN_POINT('',(0.0176821672483315,0.010402320598213,0.0483660254037844));
#992=CARTESIAN_POINT('',(0.029200628204846,-0.00233700740788729,0.047892321865542));
#993=CARTESIAN_POINT('',(0.0179059637487436,-0.0102456166015994,0.047892321865542));
#994=CARTESIAN_POINT('',(0.029200628204846,0.00233700740788729,0.047892321865542));
#995=CARTESIAN_POINT('',(0.0179059637487436,0.0102456166015994,0.0480350852961086));
#996=CARTESIAN_POINT('',(0.0325382206761618,0.,0.0482350852961086));
#997=CARTESIAN_POINT('',(0.0177887255638697,-0.0109380383845843,0.0482350852961086));
#998=CARTESIAN_POINT('',(0.0177887255638697,0.0109380383845843,0.0482350852961086));
#999=CARTESIAN_POINT('',(0.0179059637487436,-0.0102456166015994,0.0482350852961086));
#1000=CARTESIAN_POINT('',(0.0179059637487436,0.0102456166015994,0.0482350852961086));
#1001=CARTESIAN_POINT('',(0.0313429100571678,-0.010219581132516,0.0485));
#1002=CARTESIAN_POINT('',(0.0343418625345872,0.0167113732920919,0.0476));
#1003=CARTESIAN_POINT('',(0.0343418625345872,0.0167113732920919,0.0476));
#1004=CARTESIAN_POINT('',(0.0307345788177362,0.0167113732920919,0.0476));
#1005=CARTESIAN_POINT('',(0.0307345788177362,0.0167113732920919,0.0476));
#1006=CARTESIAN_POINT('',(0.032666323272732,0.000700000000000582,0.0476));
#1007=CARTESIAN_POINT('',(0.0307345788177362,-0.0167113732920919,0.0476));
#1008=CARTESIAN_POINT('',(0.0307345788177362,-0.0167113732920919,0.0476));
#1009=CARTESIAN_POINT('',(0.0343418625345872,-0.0167113732920919,0.0476));
#1010=CARTESIAN_POINT('',(0.0343418625345872,-0.0167113732920919,0.0476));
#1011=CARTESIAN_POINT('',(0.032666323272732,-0.000700000000000582,0.0476));
#1012=MECHANICAL_DESIGN_GEOMETRIC_PRESENTATION_REPRESENTATION('',(#581),
#1013);
#1013=(
GEOMETRIC_REPRESENTATION_CONTEXT(3)
GLOBAL_UNCERTAINTY_ASSIGNED_CONTEXT((#1014))
GLOBAL_UNIT_ASSIGNED_CONTEXT((#1017,#1016,#1015))
REPRESENTATION_CONTEXT('smalleye','TOP_LEVEL_ASSEMBLY_PART')
);
#1014=UNCERTAINTY_MEASURE_WITH_UNIT(LENGTH_MEASURE(2.E-5),#1017,
'DISTANCE_ACCURACY_VALUE','Maximum Tolerance applied to model');
#1015=(
NAMED_UNIT(*)
SI_UNIT($,.STERADIAN.)
SOLID_ANGLE_UNIT()
);
#1016=(
NAMED_UNIT(*)
PLANE_ANGLE_UNIT()
SI_UNIT($,.RADIAN.)
);
#1017=(
LENGTH_UNIT()
NAMED_UNIT(*)
SI_UNIT($,.METRE.)
);
#1018=PRODUCT_DEFINITION_SHAPE('','',#1019);
#1019=PRODUCT_DEFINITION('','',#1021,#1020);
#1020=PRODUCT_DEFINITION_CONTEXT('',#1027,'design');
#1021=PRODUCT_DEFINITION_FORMATION_WITH_SPECIFIED_SOURCE('','',#1023,
 .NOT_KNOWN.);
#1022=PRODUCT_RELATED_PRODUCT_CATEGORY('','',(#1023));
#1023=PRODUCT('smalleye','smalleye','smalleye',(#1025));
#1024=PRODUCT_CATEGORY('','');
#1025=PRODUCT_CONTEXT('',#1027,'mechanical');
#1026=APPLICATION_PROTOCOL_DEFINITION('international standard',
'ap242_managed_model_based_3d_engineering',2020,#1027);
#1027=APPLICATION_CONTEXT('managed model based 3d engineering');
ENDSEC;
END-ISO-10303-21;
