ISO-10303-21;
HEADER;
/* Generated by software containing ST-Developer
 * from STEP Tools, Inc. (www.steptools.com) 
 */
/* OPTION: using custom renumber hook */

FILE_DESCRIPTION(
/* description */ ('STEP AP242 Edition 2',
'CAx-IF Rec.Pracs.---Representation and Presentation of Product Manufa
cturing Information (PMI)---4.0---2014-10-13',
'CAx-IF Rec.Pracs.---3D Tessellated Geometry---0.4---2014-09-14','2;1',
'CAx-IF Rec.Pracs.---User Defined Attributes---1.5---2016-08-15'),
/* implementation_level */ '2;1');

FILE_NAME(
/* name */ 'RM_Lite_Proto (BETA) - bigeye',
/* time_stamp */ '2026-03-25T08:53:54Z',
/* author */ (''),
/* organization */ (''),
/* preprocessor_version */ 'ST-DEVELOPER v20',
/* originating_system */ 'ONSHAPE BY PTC INC, 1.212',
/* authorisation */ '  ');

FILE_SCHEMA (('AP242_MANAGED_MODEL_BASED_3D_ENGINEERING_MIM_LF { 1 0 10303 442 3 1 4 }'));
ENDSEC;

DATA;
#10=SHAPE_REPRESENTATION_RELATIONSHIP('','',#633,#11);
#11=ADVANCED_BREP_SHAPE_REPRESENTATION('',(#631),#1079);
#12=B_SPLINE_CURVE_WITH_KNOTS('',3,(#1030,#1031,#1032,#1033),
 .UNSPECIFIED.,.F.,.F.,(4,4),(0.,0.000760174409102835),.UNSPECIFIED.);
#13=B_SPLINE_CURVE_WITH_KNOTS('',3,(#1038,#1039,#1040,#1041),
 .UNSPECIFIED.,.F.,.F.,(4,4),(0.,0.000760174409102816),.UNSPECIFIED.);
#14=B_SPLINE_CURVE_WITH_KNOTS('',3,(#1045,#1046,#1047,#1048),
 .UNSPECIFIED.,.F.,.F.,(4,4),(0.,0.000760174409102832),.UNSPECIFIED.);
#15=B_SPLINE_CURVE_WITH_KNOTS('',3,(#1052,#1053,#1054,#1055),
 .UNSPECIFIED.,.F.,.F.,(4,4),(1.90029435765254E-17,0.000760174409102832),
 .UNSPECIFIED.);
#16=CONICAL_SURFACE('',#682,0.0222326424361414,1.04719755119659);
#17=CONICAL_SURFACE('',#684,0.0222326424361414,1.04719755119659);
#18=CYLINDRICAL_SURFACE('',#639,0.0202326424361412);
#19=CYLINDRICAL_SURFACE('',#655,0.0242326424361414);
#20=CYLINDRICAL_SURFACE('',#666,0.0222326424361413);
#21=CYLINDRICAL_SURFACE('',#674,0.002);
#22=CYLINDRICAL_SURFACE('',#675,0.002);
#23=CYLINDRICAL_SURFACE('',#676,0.004);
#24=CYLINDRICAL_SURFACE('',#678,0.004);
#25=CYLINDRICAL_SURFACE('',#680,0.004);
#26=CYLINDRICAL_SURFACE('',#688,0.0228594373553845);
#27=LINE('',#887,#83);
#28=LINE('',#893,#84);
#29=LINE('',#898,#85);
#30=LINE('',#902,#86);
#31=LINE('',#906,#87);
#32=LINE('',#910,#88);
#33=LINE('',#914,#89);
#34=LINE('',#918,#90);
#35=LINE('',#922,#91);
#36=LINE('',#923,#92);
#37=LINE('',#925,#93);
#38=LINE('',#929,#94);
#39=LINE('',#931,#95);
#40=LINE('',#934,#96);
#41=LINE('',#936,#97);
#42=LINE('',#938,#98);
#43=LINE('',#940,#99);
#44=LINE('',#942,#100);
#45=LINE('',#943,#101);
#46=LINE('',#945,#102);
#47=LINE('',#947,#103);
#48=LINE('',#950,#104);
#49=LINE('',#952,#105);
#50=LINE('',#954,#106);
#51=LINE('',#956,#107);
#52=LINE('',#959,#108);
#53=LINE('',#961,#109);
#54=LINE('',#963,#110);
#55=LINE('',#965,#111);
#56=LINE('',#968,#112);
#57=LINE('',#970,#113);
#58=LINE('',#972,#114);
#59=LINE('',#974,#115);
#60=LINE('',#976,#116);
#61=LINE('',#978,#117);
#62=LINE('',#980,#118);
#63=LINE('',#982,#119);
#64=LINE('',#998,#120);
#65=LINE('',#1001,#121);
#66=LINE('',#1005,#122);
#67=LINE('',#1006,#123);
#68=LINE('',#1010,#124);
#69=LINE('',#1014,#125);
#70=LINE('',#1016,#126);
#71=LINE('',#1035,#127);
#72=LINE('',#1036,#128);
#73=LINE('',#1043,#129);
#74=LINE('',#1057,#130);
#75=LINE('',#1059,#131);
#76=LINE('',#1061,#132);
#77=LINE('',#1063,#133);
#78=LINE('',#1064,#134);
#79=LINE('',#1069,#135);
#80=LINE('',#1071,#136);
#81=LINE('',#1074,#137);
#82=LINE('',#1076,#138);
#83=VECTOR('',#704,1.);
#84=VECTOR('',#709,1.);
#85=VECTOR('',#714,1.);
#86=VECTOR('',#717,1.);
#87=VECTOR('',#720,1.);
#88=VECTOR('',#723,1.);
#89=VECTOR('',#726,1.);
#90=VECTOR('',#729,1.);
#91=VECTOR('',#732,1.);
#92=VECTOR('',#733,1.);
#93=VECTOR('',#736,1.);
#94=VECTOR('',#739,1.);
#95=VECTOR('',#742,1.);
#96=VECTOR('',#743,1.);
#97=VECTOR('',#744,1.);
#98=VECTOR('',#745,1.);
#99=VECTOR('',#748,1.);
#100=VECTOR('',#749,1.);
#101=VECTOR('',#750,1.);
#102=VECTOR('',#751,1.);
#103=VECTOR('',#754,1.);
#104=VECTOR('',#755,1.);
#105=VECTOR('',#756,1.);
#106=VECTOR('',#757,1.);
#107=VECTOR('',#760,1.);
#108=VECTOR('',#761,1.);
#109=VECTOR('',#762,1.);
#110=VECTOR('',#763,1.);
#111=VECTOR('',#766,1.);
#112=VECTOR('',#767,1.);
#113=VECTOR('',#768,1.);
#114=VECTOR('',#769,1.);
#115=VECTOR('',#770,1.);
#116=VECTOR('',#771,1.);
#117=VECTOR('',#774,1.);
#118=VECTOR('',#775,1.);
#119=VECTOR('',#776,1.);
#120=VECTOR('',#803,1.);
#121=VECTOR('',#806,1.);
#122=VECTOR('',#809,1.);
#123=VECTOR('',#810,1.);
#124=VECTOR('',#813,1.);
#125=VECTOR('',#816,1.);
#126=VECTOR('',#819,1.);
#127=VECTOR('',#842,1.);
#128=VECTOR('',#843,1.);
#129=VECTOR('',#846,1.);
#130=VECTOR('',#849,1.);
#131=VECTOR('',#852,1.);
#132=VECTOR('',#855,1.);
#133=VECTOR('',#858,1.);
#134=VECTOR('',#859,1.);
#135=VECTOR('',#868,1.);
#136=VECTOR('',#871,1.);
#137=VECTOR('',#876,1.);
#138=VECTOR('',#879,1.);
#139=ORIENTED_EDGE('',*,*,#319,.T.);
#140=ORIENTED_EDGE('',*,*,#320,.T.);
#141=ORIENTED_EDGE('',*,*,#321,.T.);
#142=ORIENTED_EDGE('',*,*,#322,.T.);
#143=ORIENTED_EDGE('',*,*,#323,.F.);
#144=ORIENTED_EDGE('',*,*,#324,.T.);
#145=ORIENTED_EDGE('',*,*,#325,.T.);
#146=ORIENTED_EDGE('',*,*,#326,.F.);
#147=ORIENTED_EDGE('',*,*,#327,.F.);
#148=ORIENTED_EDGE('',*,*,#328,.F.);
#149=ORIENTED_EDGE('',*,*,#329,.T.);
#150=ORIENTED_EDGE('',*,*,#330,.F.);
#151=ORIENTED_EDGE('',*,*,#331,.T.);
#152=ORIENTED_EDGE('',*,*,#332,.T.);
#153=ORIENTED_EDGE('',*,*,#333,.T.);
#154=ORIENTED_EDGE('',*,*,#334,.T.);
#155=ORIENTED_EDGE('',*,*,#335,.T.);
#156=ORIENTED_EDGE('',*,*,#336,.F.);
#157=ORIENTED_EDGE('',*,*,#337,.T.);
#158=ORIENTED_EDGE('',*,*,#321,.F.);
#159=ORIENTED_EDGE('',*,*,#338,.F.);
#160=ORIENTED_EDGE('',*,*,#339,.F.);
#161=ORIENTED_EDGE('',*,*,#340,.T.);
#162=ORIENTED_EDGE('',*,*,#341,.T.);
#163=ORIENTED_EDGE('',*,*,#326,.T.);
#164=ORIENTED_EDGE('',*,*,#342,.F.);
#165=ORIENTED_EDGE('',*,*,#343,.F.);
#166=ORIENTED_EDGE('',*,*,#344,.T.);
#167=ORIENTED_EDGE('',*,*,#345,.T.);
#168=ORIENTED_EDGE('',*,*,#323,.T.);
#169=ORIENTED_EDGE('',*,*,#346,.T.);
#170=ORIENTED_EDGE('',*,*,#347,.F.);
#171=ORIENTED_EDGE('',*,*,#343,.T.);
#172=ORIENTED_EDGE('',*,*,#348,.T.);
#173=ORIENTED_EDGE('',*,*,#349,.F.);
#174=ORIENTED_EDGE('',*,*,#350,.F.);
#175=ORIENTED_EDGE('',*,*,#351,.T.);
#176=ORIENTED_EDGE('',*,*,#352,.T.);
#177=ORIENTED_EDGE('',*,*,#353,.T.);
#178=ORIENTED_EDGE('',*,*,#354,.T.);
#179=ORIENTED_EDGE('',*,*,#355,.T.);
#180=ORIENTED_EDGE('',*,*,#356,.F.);
#181=ORIENTED_EDGE('',*,*,#357,.T.);
#182=ORIENTED_EDGE('',*,*,#358,.T.);
#183=ORIENTED_EDGE('',*,*,#359,.T.);
#184=ORIENTED_EDGE('',*,*,#360,.F.);
#185=ORIENTED_EDGE('',*,*,#361,.T.);
#186=ORIENTED_EDGE('',*,*,#362,.F.);
#187=ORIENTED_EDGE('',*,*,#363,.F.);
#188=ORIENTED_EDGE('',*,*,#364,.T.);
#189=ORIENTED_EDGE('',*,*,#365,.F.);
#190=ORIENTED_EDGE('',*,*,#366,.F.);
#191=ORIENTED_EDGE('',*,*,#363,.T.);
#192=ORIENTED_EDGE('',*,*,#367,.T.);
#193=ORIENTED_EDGE('',*,*,#345,.F.);
#194=ORIENTED_EDGE('',*,*,#368,.F.);
#195=ORIENTED_EDGE('',*,*,#365,.T.);
#196=ORIENTED_EDGE('',*,*,#350,.T.);
#197=ORIENTED_EDGE('',*,*,#369,.T.);
#198=ORIENTED_EDGE('',*,*,#354,.F.);
#199=ORIENTED_EDGE('',*,*,#370,.T.);
#200=ORIENTED_EDGE('',*,*,#332,.F.);
#201=ORIENTED_EDGE('',*,*,#371,.T.);
#202=ORIENTED_EDGE('',*,*,#358,.F.);
#203=ORIENTED_EDGE('',*,*,#366,.T.);
#204=ORIENTED_EDGE('',*,*,#368,.T.);
#205=ORIENTED_EDGE('',*,*,#344,.F.);
#206=ORIENTED_EDGE('',*,*,#347,.T.);
#207=ORIENTED_EDGE('',*,*,#372,.T.);
#208=ORIENTED_EDGE('',*,*,#336,.T.);
#209=ORIENTED_EDGE('',*,*,#373,.T.);
#210=ORIENTED_EDGE('',*,*,#374,.F.);
#211=ORIENTED_EDGE('',*,*,#348,.F.);
#212=ORIENTED_EDGE('',*,*,#342,.T.);
#213=ORIENTED_EDGE('',*,*,#367,.F.);
#214=ORIENTED_EDGE('',*,*,#364,.F.);
#215=ORIENTED_EDGE('',*,*,#362,.T.);
#216=ORIENTED_EDGE('',*,*,#375,.T.);
#217=ORIENTED_EDGE('',*,*,#376,.T.);
#218=ORIENTED_EDGE('',*,*,#319,.F.);
#219=ORIENTED_EDGE('',*,*,#349,.T.);
#220=ORIENTED_EDGE('',*,*,#374,.T.);
#221=ORIENTED_EDGE('',*,*,#361,.F.);
#222=ORIENTED_EDGE('',*,*,#377,.F.);
#223=ORIENTED_EDGE('',*,*,#378,.F.);
#224=ORIENTED_EDGE('',*,*,#379,.F.);
#225=ORIENTED_EDGE('',*,*,#380,.T.);
#226=ORIENTED_EDGE('',*,*,#340,.F.);
#227=ORIENTED_EDGE('',*,*,#381,.F.);
#228=ORIENTED_EDGE('',*,*,#382,.F.);
#229=ORIENTED_EDGE('',*,*,#383,.T.);
#230=ORIENTED_EDGE('',*,*,#384,.T.);
#231=ORIENTED_EDGE('',*,*,#385,.F.);
#232=ORIENTED_EDGE('',*,*,#386,.F.);
#233=ORIENTED_EDGE('',*,*,#377,.T.);
#234=ORIENTED_EDGE('',*,*,#360,.T.);
#235=ORIENTED_EDGE('',*,*,#387,.T.);
#236=ORIENTED_EDGE('',*,*,#330,.T.);
#237=ORIENTED_EDGE('',*,*,#372,.F.);
#238=ORIENTED_EDGE('',*,*,#346,.F.);
#239=ORIENTED_EDGE('',*,*,#322,.F.);
#240=ORIENTED_EDGE('',*,*,#337,.F.);
#241=ORIENTED_EDGE('',*,*,#371,.F.);
#242=ORIENTED_EDGE('',*,*,#331,.F.);
#243=ORIENTED_EDGE('',*,*,#387,.F.);
#244=ORIENTED_EDGE('',*,*,#359,.F.);
#245=ORIENTED_EDGE('',*,*,#373,.F.);
#246=ORIENTED_EDGE('',*,*,#335,.F.);
#247=ORIENTED_EDGE('',*,*,#388,.F.);
#248=ORIENTED_EDGE('',*,*,#351,.F.);
#249=ORIENTED_EDGE('',*,*,#369,.F.);
#250=ORIENTED_EDGE('',*,*,#353,.F.);
#251=ORIENTED_EDGE('',*,*,#389,.F.);
#252=ORIENTED_EDGE('',*,*,#355,.F.);
#253=ORIENTED_EDGE('',*,*,#370,.F.);
#254=ORIENTED_EDGE('',*,*,#357,.F.);
#255=ORIENTED_EDGE('',*,*,#390,.F.);
#256=ORIENTED_EDGE('',*,*,#333,.F.);
#257=ORIENTED_EDGE('',*,*,#391,.T.);
#258=ORIENTED_EDGE('',*,*,#392,.T.);
#259=ORIENTED_EDGE('',*,*,#393,.F.);
#260=ORIENTED_EDGE('',*,*,#382,.T.);
#261=ORIENTED_EDGE('',*,*,#394,.T.);
#262=ORIENTED_EDGE('',*,*,#395,.T.);
#263=ORIENTED_EDGE('',*,*,#396,.T.);
#264=ORIENTED_EDGE('',*,*,#397,.T.);
#265=ORIENTED_EDGE('',*,*,#398,.T.);
#266=ORIENTED_EDGE('',*,*,#399,.T.);
#267=ORIENTED_EDGE('',*,*,#400,.F.);
#268=ORIENTED_EDGE('',*,*,#384,.F.);
#269=ORIENTED_EDGE('',*,*,#393,.T.);
#270=ORIENTED_EDGE('',*,*,#401,.T.);
#271=ORIENTED_EDGE('',*,*,#396,.F.);
#272=ORIENTED_EDGE('',*,*,#383,.F.);
#273=ORIENTED_EDGE('',*,*,#400,.T.);
#274=ORIENTED_EDGE('',*,*,#402,.T.);
#275=ORIENTED_EDGE('',*,*,#394,.F.);
#276=ORIENTED_EDGE('',*,*,#385,.T.);
#277=ORIENTED_EDGE('',*,*,#398,.F.);
#278=ORIENTED_EDGE('',*,*,#403,.T.);
#279=ORIENTED_EDGE('',*,*,#391,.F.);
#280=ORIENTED_EDGE('',*,*,#404,.T.);
#281=ORIENTED_EDGE('',*,*,#392,.F.);
#282=ORIENTED_EDGE('',*,*,#403,.F.);
#283=ORIENTED_EDGE('',*,*,#397,.F.);
#284=ORIENTED_EDGE('',*,*,#401,.F.);
#285=ORIENTED_EDGE('',*,*,#399,.F.);
#286=ORIENTED_EDGE('',*,*,#404,.F.);
#287=ORIENTED_EDGE('',*,*,#395,.F.);
#288=ORIENTED_EDGE('',*,*,#402,.F.);
#289=ORIENTED_EDGE('',*,*,#390,.T.);
#290=ORIENTED_EDGE('',*,*,#356,.T.);
#291=ORIENTED_EDGE('',*,*,#389,.T.);
#292=ORIENTED_EDGE('',*,*,#352,.F.);
#293=ORIENTED_EDGE('',*,*,#388,.T.);
#294=ORIENTED_EDGE('',*,*,#334,.F.);
#295=ORIENTED_EDGE('',*,*,#386,.T.);
#296=ORIENTED_EDGE('',*,*,#329,.F.);
#297=ORIENTED_EDGE('',*,*,#405,.F.);
#298=ORIENTED_EDGE('',*,*,#378,.T.);
#299=ORIENTED_EDGE('',*,*,#341,.F.);
#300=ORIENTED_EDGE('',*,*,#380,.F.);
#301=ORIENTED_EDGE('',*,*,#406,.T.);
#302=ORIENTED_EDGE('',*,*,#327,.T.);
#303=ORIENTED_EDGE('',*,*,#379,.T.);
#304=ORIENTED_EDGE('',*,*,#405,.T.);
#305=ORIENTED_EDGE('',*,*,#328,.T.);
#306=ORIENTED_EDGE('',*,*,#406,.F.);
#307=ORIENTED_EDGE('',*,*,#339,.T.);
#308=ORIENTED_EDGE('',*,*,#325,.F.);
#309=ORIENTED_EDGE('',*,*,#407,.F.);
#310=ORIENTED_EDGE('',*,*,#381,.T.);
#311=ORIENTED_EDGE('',*,*,#320,.F.);
#312=ORIENTED_EDGE('',*,*,#376,.F.);
#313=ORIENTED_EDGE('',*,*,#408,.T.);
#314=ORIENTED_EDGE('',*,*,#338,.T.);
#315=ORIENTED_EDGE('',*,*,#375,.F.);
#316=ORIENTED_EDGE('',*,*,#407,.T.);
#317=ORIENTED_EDGE('',*,*,#324,.F.);
#318=ORIENTED_EDGE('',*,*,#408,.F.);
#319=EDGE_CURVE('',#409,#410,#469,.T.);
#320=EDGE_CURVE('',#410,#411,#27,.T.);
#321=EDGE_CURVE('',#411,#412,#470,.T.);
#322=EDGE_CURVE('',#412,#413,#471,.T.);
#323=EDGE_CURVE('',#409,#413,#28,.T.);
#324=EDGE_CURVE('',#414,#415,#472,.T.);
#325=EDGE_CURVE('',#415,#416,#29,.T.);
#326=EDGE_CURVE('',#417,#416,#473,.T.);
#327=EDGE_CURVE('',#418,#417,#30,.T.);
#328=EDGE_CURVE('',#419,#418,#474,.T.);
#329=EDGE_CURVE('',#419,#420,#31,.T.);
#330=EDGE_CURVE('',#421,#420,#475,.T.);
#331=EDGE_CURVE('',#421,#422,#32,.F.);
#332=EDGE_CURVE('',#422,#423,#476,.T.);
#333=EDGE_CURVE('',#423,#424,#33,.T.);
#334=EDGE_CURVE('',#424,#425,#477,.T.);
#335=EDGE_CURVE('',#425,#426,#34,.F.);
#336=EDGE_CURVE('',#427,#426,#478,.T.);
#337=EDGE_CURVE('',#427,#412,#35,.T.);
#338=EDGE_CURVE('',#414,#411,#36,.T.);
#339=EDGE_CURVE('',#428,#416,#37,.T.);
#340=EDGE_CURVE('',#428,#429,#479,.T.);
#341=EDGE_CURVE('',#429,#417,#38,.T.);
#342=EDGE_CURVE('',#430,#431,#39,.T.);
#343=EDGE_CURVE('',#432,#430,#40,.T.);
#344=EDGE_CURVE('',#432,#433,#41,.T.);
#345=EDGE_CURVE('',#433,#431,#42,.T.);
#346=EDGE_CURVE('',#413,#434,#43,.T.);
#347=EDGE_CURVE('',#432,#434,#44,.T.);
#348=EDGE_CURVE('',#430,#435,#45,.T.);
#349=EDGE_CURVE('',#409,#435,#46,.T.);
#350=EDGE_CURVE('',#436,#437,#47,.T.);
#351=EDGE_CURVE('',#436,#438,#48,.T.);
#352=EDGE_CURVE('',#438,#439,#49,.T.);
#353=EDGE_CURVE('',#439,#437,#50,.F.);
#354=EDGE_CURVE('',#440,#441,#51,.T.);
#355=EDGE_CURVE('',#441,#442,#52,.T.);
#356=EDGE_CURVE('',#443,#442,#53,.T.);
#357=EDGE_CURVE('',#443,#440,#54,.T.);
#358=EDGE_CURVE('',#444,#445,#55,.T.);
#359=EDGE_CURVE('',#445,#446,#56,.T.);
#360=EDGE_CURVE('',#447,#446,#57,.T.);
#361=EDGE_CURVE('',#447,#448,#58,.T.);
#362=EDGE_CURVE('',#449,#448,#59,.T.);
#363=EDGE_CURVE('',#444,#449,#60,.T.);
#364=EDGE_CURVE('',#449,#450,#61,.T.);
#365=EDGE_CURVE('',#451,#450,#62,.T.);
#366=EDGE_CURVE('',#444,#451,#63,.T.);
#367=EDGE_CURVE('',#450,#431,#480,.T.);
#368=EDGE_CURVE('',#451,#433,#481,.T.);
#369=EDGE_CURVE('',#437,#441,#482,.T.);
#370=EDGE_CURVE('',#440,#423,#483,.F.);
#371=EDGE_CURVE('',#422,#445,#484,.T.);
#372=EDGE_CURVE('',#434,#427,#485,.T.);
#373=EDGE_CURVE('',#426,#436,#486,.F.);
#374=EDGE_CURVE('',#435,#448,#487,.T.);
#375=EDGE_CURVE('',#452,#453,#488,.T.);
#376=EDGE_CURVE('',#453,#410,#64,.T.);
#377=EDGE_CURVE('',#454,#447,#489,.T.);
#378=EDGE_CURVE('',#455,#454,#65,.T.);
#379=EDGE_CURVE('',#456,#455,#490,.T.);
#380=EDGE_CURVE('',#456,#429,#66,.T.);
#381=EDGE_CURVE('',#452,#428,#67,.T.);
#382=EDGE_CURVE('',#457,#458,#491,.T.);
#383=EDGE_CURVE('',#457,#459,#68,.T.);
#384=EDGE_CURVE('',#459,#460,#492,.T.);
#385=EDGE_CURVE('',#458,#460,#69,.T.);
#386=EDGE_CURVE('',#454,#420,#70,.T.);
#387=EDGE_CURVE('',#446,#421,#493,.T.);
#388=EDGE_CURVE('',#438,#425,#494,.T.);
#389=EDGE_CURVE('',#442,#439,#495,.F.);
#390=EDGE_CURVE('',#424,#443,#496,.T.);
#391=EDGE_CURVE('',#461,#462,#497,.F.);
#392=EDGE_CURVE('',#462,#463,#12,.T.);
#393=EDGE_CURVE('',#457,#463,#71,.T.);
#394=EDGE_CURVE('',#458,#464,#72,.T.);
#395=EDGE_CURVE('',#464,#461,#13,.T.);
#396=EDGE_CURVE('',#459,#465,#73,.T.);
#397=EDGE_CURVE('',#465,#466,#14,.T.);
#398=EDGE_CURVE('',#466,#467,#498,.F.);
#399=EDGE_CURVE('',#467,#468,#15,.T.);
#400=EDGE_CURVE('',#460,#468,#74,.T.);
#401=EDGE_CURVE('',#463,#465,#75,.T.);
#402=EDGE_CURVE('',#468,#464,#76,.T.);
#403=EDGE_CURVE('',#466,#462,#77,.F.);
#404=EDGE_CURVE('',#461,#467,#78,.T.);
#405=EDGE_CURVE('',#455,#419,#79,.T.);
#406=EDGE_CURVE('',#456,#418,#80,.T.);
#407=EDGE_CURVE('',#452,#415,#81,.T.);
#408=EDGE_CURVE('',#453,#414,#82,.T.);
#409=VERTEX_POINT('',#885);
#410=VERTEX_POINT('',#886);
#411=VERTEX_POINT('',#888);
#412=VERTEX_POINT('',#890);
#413=VERTEX_POINT('',#892);
#414=VERTEX_POINT('',#896);
#415=VERTEX_POINT('',#897);
#416=VERTEX_POINT('',#899);
#417=VERTEX_POINT('',#901);
#418=VERTEX_POINT('',#903);
#419=VERTEX_POINT('',#905);
#420=VERTEX_POINT('',#907);
#421=VERTEX_POINT('',#909);
#422=VERTEX_POINT('',#911);
#423=VERTEX_POINT('',#913);
#424=VERTEX_POINT('',#915);
#425=VERTEX_POINT('',#917);
#426=VERTEX_POINT('',#919);
#427=VERTEX_POINT('',#921);
#428=VERTEX_POINT('',#926);
#429=VERTEX_POINT('',#928);
#430=VERTEX_POINT('',#932);
#431=VERTEX_POINT('',#933);
#432=VERTEX_POINT('',#935);
#433=VERTEX_POINT('',#937);
#434=VERTEX_POINT('',#941);
#435=VERTEX_POINT('',#944);
#436=VERTEX_POINT('',#948);
#437=VERTEX_POINT('',#949);
#438=VERTEX_POINT('',#951);
#439=VERTEX_POINT('',#953);
#440=VERTEX_POINT('',#957);
#441=VERTEX_POINT('',#958);
#442=VERTEX_POINT('',#960);
#443=VERTEX_POINT('',#962);
#444=VERTEX_POINT('',#966);
#445=VERTEX_POINT('',#967);
#446=VERTEX_POINT('',#969);
#447=VERTEX_POINT('',#971);
#448=VERTEX_POINT('',#973);
#449=VERTEX_POINT('',#975);
#450=VERTEX_POINT('',#979);
#451=VERTEX_POINT('',#981);
#452=VERTEX_POINT('',#996);
#453=VERTEX_POINT('',#997);
#454=VERTEX_POINT('',#1000);
#455=VERTEX_POINT('',#1002);
#456=VERTEX_POINT('',#1004);
#457=VERTEX_POINT('',#1008);
#458=VERTEX_POINT('',#1009);
#459=VERTEX_POINT('',#1011);
#460=VERTEX_POINT('',#1013);
#461=VERTEX_POINT('',#1028);
#462=VERTEX_POINT('',#1029);
#463=VERTEX_POINT('',#1034);
#464=VERTEX_POINT('',#1037);
#465=VERTEX_POINT('',#1044);
#466=VERTEX_POINT('',#1049);
#467=VERTEX_POINT('',#1051);
#468=VERTEX_POINT('',#1056);
#469=CIRCLE('',#636,0.0222326424361413);
#470=CIRCLE('',#637,0.0202326424361412);
#471=CIRCLE('',#638,0.002);
#472=CIRCLE('',#640,0.0202326424361412);
#473=CIRCLE('',#641,0.0202326424361412);
#474=CIRCLE('',#642,0.0202326424361412);
#475=CIRCLE('',#643,0.0202326424361412);
#476=CIRCLE('',#644,0.0202326424361412);
#477=CIRCLE('',#645,0.0202326424361412);
#478=CIRCLE('',#646,0.0202326424361412);
#479=CIRCLE('',#648,0.0222326424361413);
#480=CIRCLE('',#656,0.0242326424361414);
#481=CIRCLE('',#657,0.0242326424361414);
#482=CIRCLE('',#659,0.004);
#483=CIRCLE('',#660,0.004);
#484=CIRCLE('',#661,0.002);
#485=CIRCLE('',#662,0.002);
#486=CIRCLE('',#663,0.004);
#487=CIRCLE('',#665,0.0222326424361413);
#488=CIRCLE('',#667,0.0222326424361413);
#489=CIRCLE('',#668,0.0222326424361413);
#490=CIRCLE('',#669,0.0222326424361413);
#491=CIRCLE('',#670,0.0222326424361414);
#492=CIRCLE('',#671,0.0222326424361414);
#493=CIRCLE('',#673,0.002);
#494=CIRCLE('',#677,0.004);
#495=CIRCLE('',#679,0.004);
#496=CIRCLE('',#681,0.004);
#497=CIRCLE('',#683,0.0228594373553845);
#498=CIRCLE('',#685,0.0228594373553845);
#499=EDGE_LOOP('',(#139,#140,#141,#142,#143));
#500=EDGE_LOOP('',(#144,#145,#146,#147,#148,#149,#150,#151,#152,#153,#154,
#155,#156,#157,#158,#159));
#501=EDGE_LOOP('',(#160,#161,#162,#163));
#502=EDGE_LOOP('',(#164,#165,#166,#167));
#503=EDGE_LOOP('',(#168,#169,#170,#171,#172,#173));
#504=EDGE_LOOP('',(#174,#175,#176,#177));
#505=EDGE_LOOP('',(#178,#179,#180,#181));
#506=EDGE_LOOP('',(#182,#183,#184,#185,#186,#187));
#507=EDGE_LOOP('',(#188,#189,#190,#191));
#508=EDGE_LOOP('',(#192,#193,#194,#195));
#509=EDGE_LOOP('',(#196,#197,#198,#199,#200,#201,#202,#203,#204,#205,#206,
#207,#208,#209));
#510=EDGE_LOOP('',(#210,#211,#212,#213,#214,#215));
#511=EDGE_LOOP('',(#216,#217,#218,#219,#220,#221,#222,#223,#224,#225,#226,
#227));
#512=EDGE_LOOP('',(#228,#229,#230,#231));
#513=EDGE_LOOP('',(#232,#233,#234,#235,#236));
#514=EDGE_LOOP('',(#237,#238,#239,#240));
#515=EDGE_LOOP('',(#241,#242,#243,#244));
#516=EDGE_LOOP('',(#245,#246,#247,#248));
#517=EDGE_LOOP('',(#249,#250,#251,#252));
#518=EDGE_LOOP('',(#253,#254,#255,#256));
#519=EDGE_LOOP('',(#257,#258,#259,#260,#261,#262));
#520=EDGE_LOOP('',(#263,#264,#265,#266,#267,#268));
#521=EDGE_LOOP('',(#269,#270,#271,#272));
#522=EDGE_LOOP('',(#273,#274,#275,#276));
#523=EDGE_LOOP('',(#277,#278,#279,#280));
#524=EDGE_LOOP('',(#281,#282,#283,#284));
#525=EDGE_LOOP('',(#285,#286,#287,#288));
#526=EDGE_LOOP('',(#289,#290,#291,#292,#293,#294));
#527=EDGE_LOOP('',(#295,#296,#297,#298));
#528=EDGE_LOOP('',(#299,#300,#301,#302));
#529=EDGE_LOOP('',(#303,#304,#305,#306));
#530=EDGE_LOOP('',(#307,#308,#309,#310));
#531=EDGE_LOOP('',(#311,#312,#313,#314));
#532=EDGE_LOOP('',(#315,#316,#317,#318));
#533=FACE_BOUND('',#499,.T.);
#534=FACE_BOUND('',#500,.T.);
#535=FACE_BOUND('',#501,.T.);
#536=FACE_BOUND('',#502,.T.);
#537=FACE_BOUND('',#503,.T.);
#538=FACE_BOUND('',#504,.T.);
#539=FACE_BOUND('',#505,.T.);
#540=FACE_BOUND('',#506,.T.);
#541=FACE_BOUND('',#507,.T.);
#542=FACE_BOUND('',#508,.T.);
#543=FACE_BOUND('',#509,.T.);
#544=FACE_BOUND('',#510,.T.);
#545=FACE_BOUND('',#511,.T.);
#546=FACE_BOUND('',#512,.T.);
#547=FACE_BOUND('',#513,.T.);
#548=FACE_BOUND('',#514,.T.);
#549=FACE_BOUND('',#515,.T.);
#550=FACE_BOUND('',#516,.T.);
#551=FACE_BOUND('',#517,.T.);
#552=FACE_BOUND('',#518,.T.);
#553=FACE_BOUND('',#519,.T.);
#554=FACE_BOUND('',#520,.T.);
#555=FACE_BOUND('',#521,.T.);
#556=FACE_BOUND('',#522,.T.);
#557=FACE_BOUND('',#523,.T.);
#558=FACE_BOUND('',#524,.T.);
#559=FACE_BOUND('',#525,.T.);
#560=FACE_BOUND('',#526,.T.);
#561=FACE_BOUND('',#527,.T.);
#562=FACE_BOUND('',#528,.T.);
#563=FACE_BOUND('',#529,.T.);
#564=FACE_BOUND('',#530,.T.);
#565=FACE_BOUND('',#531,.T.);
#566=FACE_BOUND('',#532,.T.);
#567=PLANE('',#635);
#568=PLANE('',#647);
#569=PLANE('',#649);
#570=PLANE('',#650);
#571=PLANE('',#651);
#572=PLANE('',#652);
#573=PLANE('',#653);
#574=PLANE('',#654);
#575=PLANE('',#658);
#576=PLANE('',#664);
#577=PLANE('',#672);
#578=PLANE('',#686);
#579=PLANE('',#687);
#580=PLANE('',#689);
#581=PLANE('',#690);
#582=PLANE('',#691);
#583=PLANE('',#692);
#584=PLANE('',#693);
#585=PLANE('',#694);
#586=PLANE('',#695);
#587=PLANE('',#696);
#588=PLANE('',#697);
#589=ADVANCED_FACE('',(#533),#567,.T.);
#590=ADVANCED_FACE('',(#534),#18,.F.);
#591=ADVANCED_FACE('',(#535),#568,.T.);
#592=ADVANCED_FACE('',(#536),#569,.T.);
#593=ADVANCED_FACE('',(#537),#570,.F.);
#594=ADVANCED_FACE('',(#538),#571,.F.);
#595=ADVANCED_FACE('',(#539),#572,.T.);
#596=ADVANCED_FACE('',(#540),#573,.T.);
#597=ADVANCED_FACE('',(#541),#574,.F.);
#598=ADVANCED_FACE('',(#542),#19,.T.);
#599=ADVANCED_FACE('',(#543),#575,.T.);
#600=ADVANCED_FACE('',(#544),#576,.F.);
#601=ADVANCED_FACE('',(#545,#546),#20,.T.);
#602=ADVANCED_FACE('',(#547),#577,.T.);
#603=ADVANCED_FACE('',(#548),#21,.T.);
#604=ADVANCED_FACE('',(#549),#22,.T.);
#605=ADVANCED_FACE('',(#550),#23,.F.);
#606=ADVANCED_FACE('',(#551),#24,.T.);
#607=ADVANCED_FACE('',(#552),#25,.F.);
#608=ADVANCED_FACE('',(#553),#16,.T.);
#609=ADVANCED_FACE('',(#554),#17,.T.);
#610=ADVANCED_FACE('',(#555),#578,.T.);
#611=ADVANCED_FACE('',(#556),#579,.F.);
#612=ADVANCED_FACE('',(#557),#26,.T.);
#613=ADVANCED_FACE('',(#558),#580,.F.);
#614=ADVANCED_FACE('',(#559),#581,.T.);
#615=ADVANCED_FACE('',(#560),#582,.T.);
#616=ADVANCED_FACE('',(#561),#583,.F.);
#617=ADVANCED_FACE('',(#562),#584,.T.);
#618=ADVANCED_FACE('',(#563),#585,.T.);
#619=ADVANCED_FACE('',(#564),#586,.F.);
#620=ADVANCED_FACE('',(#565),#587,.T.);
#621=ADVANCED_FACE('',(#566),#588,.T.);
#622=CLOSED_SHELL('',(#589,#590,#591,#592,#593,#594,#595,#596,#597,#598,
#599,#600,#601,#602,#603,#604,#605,#606,#607,#608,#609,#610,#611,#612,#613,
#614,#615,#616,#617,#618,#619,#620,#621));
#623=STYLED_ITEM('',(#624),#631);
#624=PRESENTATION_STYLE_ASSIGNMENT((#625));
#625=SURFACE_STYLE_USAGE(.BOTH.,#626);
#626=SURFACE_SIDE_STYLE('',(#627));
#627=SURFACE_STYLE_FILL_AREA(#628);
#628=FILL_AREA_STYLE('',(#629));
#629=FILL_AREA_STYLE_COLOUR('',#630);
#630=COLOUR_RGB('',0.980392156862745,0.713725490196078,0.00392156862745098);
#631=MANIFOLD_SOLID_BREP('bigeye',#622);
#632=SHAPE_DEFINITION_REPRESENTATION(#1084,#633);
#633=SHAPE_REPRESENTATION('bigeye',(#634),#1079);
#634=AXIS2_PLACEMENT_3D('',#882,#698,#699);
#635=AXIS2_PLACEMENT_3D('',#883,#700,#701);
#636=AXIS2_PLACEMENT_3D('',#884,#702,#703);
#637=AXIS2_PLACEMENT_3D('',#889,#705,#706);
#638=AXIS2_PLACEMENT_3D('',#891,#707,#708);
#639=AXIS2_PLACEMENT_3D('',#894,#710,#711);
#640=AXIS2_PLACEMENT_3D('',#895,#712,#713);
#641=AXIS2_PLACEMENT_3D('',#900,#715,#716);
#642=AXIS2_PLACEMENT_3D('',#904,#718,#719);
#643=AXIS2_PLACEMENT_3D('',#908,#721,#722);
#644=AXIS2_PLACEMENT_3D('',#912,#724,#725);
#645=AXIS2_PLACEMENT_3D('',#916,#727,#728);
#646=AXIS2_PLACEMENT_3D('',#920,#730,#731);
#647=AXIS2_PLACEMENT_3D('',#924,#734,#735);
#648=AXIS2_PLACEMENT_3D('',#927,#737,#738);
#649=AXIS2_PLACEMENT_3D('',#930,#740,#741);
#650=AXIS2_PLACEMENT_3D('',#939,#746,#747);
#651=AXIS2_PLACEMENT_3D('',#946,#752,#753);
#652=AXIS2_PLACEMENT_3D('',#955,#758,#759);
#653=AXIS2_PLACEMENT_3D('',#964,#764,#765);
#654=AXIS2_PLACEMENT_3D('',#977,#772,#773);
#655=AXIS2_PLACEMENT_3D('',#983,#777,#778);
#656=AXIS2_PLACEMENT_3D('',#984,#779,#780);
#657=AXIS2_PLACEMENT_3D('',#985,#781,#782);
#658=AXIS2_PLACEMENT_3D('',#986,#783,#784);
#659=AXIS2_PLACEMENT_3D('',#987,#785,#786);
#660=AXIS2_PLACEMENT_3D('',#988,#787,#788);
#661=AXIS2_PLACEMENT_3D('',#989,#789,#790);
#662=AXIS2_PLACEMENT_3D('',#990,#791,#792);
#663=AXIS2_PLACEMENT_3D('',#991,#793,#794);
#664=AXIS2_PLACEMENT_3D('',#992,#795,#796);
#665=AXIS2_PLACEMENT_3D('',#993,#797,#798);
#666=AXIS2_PLACEMENT_3D('',#994,#799,#800);
#667=AXIS2_PLACEMENT_3D('',#995,#801,#802);
#668=AXIS2_PLACEMENT_3D('',#999,#804,#805);
#669=AXIS2_PLACEMENT_3D('',#1003,#807,#808);
#670=AXIS2_PLACEMENT_3D('',#1007,#811,#812);
#671=AXIS2_PLACEMENT_3D('',#1012,#814,#815);
#672=AXIS2_PLACEMENT_3D('',#1015,#817,#818);
#673=AXIS2_PLACEMENT_3D('',#1017,#820,#821);
#674=AXIS2_PLACEMENT_3D('',#1018,#822,#823);
#675=AXIS2_PLACEMENT_3D('',#1019,#824,#825);
#676=AXIS2_PLACEMENT_3D('',#1020,#826,#827);
#677=AXIS2_PLACEMENT_3D('',#1021,#828,#829);
#678=AXIS2_PLACEMENT_3D('',#1022,#830,#831);
#679=AXIS2_PLACEMENT_3D('',#1023,#832,#833);
#680=AXIS2_PLACEMENT_3D('',#1024,#834,#835);
#681=AXIS2_PLACEMENT_3D('',#1025,#836,#837);
#682=AXIS2_PLACEMENT_3D('',#1026,#838,#839);
#683=AXIS2_PLACEMENT_3D('',#1027,#840,#841);
#684=AXIS2_PLACEMENT_3D('',#1042,#844,#845);
#685=AXIS2_PLACEMENT_3D('',#1050,#847,#848);
#686=AXIS2_PLACEMENT_3D('',#1058,#850,#851);
#687=AXIS2_PLACEMENT_3D('',#1060,#853,#854);
#688=AXIS2_PLACEMENT_3D('',#1062,#856,#857);
#689=AXIS2_PLACEMENT_3D('',#1065,#860,#861);
#690=AXIS2_PLACEMENT_3D('',#1066,#862,#863);
#691=AXIS2_PLACEMENT_3D('',#1067,#864,#865);
#692=AXIS2_PLACEMENT_3D('',#1068,#866,#867);
#693=AXIS2_PLACEMENT_3D('',#1070,#869,#870);
#694=AXIS2_PLACEMENT_3D('',#1072,#872,#873);
#695=AXIS2_PLACEMENT_3D('',#1073,#874,#875);
#696=AXIS2_PLACEMENT_3D('',#1075,#877,#878);
#697=AXIS2_PLACEMENT_3D('',#1077,#880,#881);
#698=DIRECTION('',(0.,0.,1.));
#699=DIRECTION('',(1.,0.,0.));
#700=DIRECTION('',(0.,0.,-1.));
#701=DIRECTION('',(-1.,0.,0.));
#702=DIRECTION('',(0.,0.,-1.));
#703=DIRECTION('',(0.,1.,0.));
#704=DIRECTION('',(0.,1.,0.));
#705=DIRECTION('',(0.,0.,1.));
#706=DIRECTION('',(0.,-1.,0.));
#707=DIRECTION('',(0.,0.,-1.));
#708=DIRECTION('',(0.,1.,0.));
#709=DIRECTION('',(-0.999999999900708,-1.40919708371704E-5,0.));
#710=DIRECTION('',(0.,0.,-1.));
#711=DIRECTION('',(0.,1.,0.));
#712=DIRECTION('',(0.,0.,-1.));
#713=DIRECTION('',(0.,1.,0.));
#714=DIRECTION('',(0.,0.,-1.));
#715=DIRECTION('',(0.,0.,1.));
#716=DIRECTION('',(0.,-1.,0.));
#717=DIRECTION('',(0.,0.,-1.));
#718=DIRECTION('',(0.,0.,1.));
#719=DIRECTION('',(0.,-1.,0.));
#720=DIRECTION('',(0.,0.,-1.));
#721=DIRECTION('',(0.,0.,1.));
#722=DIRECTION('',(0.,-1.,0.));
#723=DIRECTION('',(0.,0.,-1.));
#724=DIRECTION('',(0.,0.,1.));
#725=DIRECTION('',(0.,-1.,0.));
#726=DIRECTION('',(0.,0.,-1.));
#727=DIRECTION('',(0.,0.,1.));
#728=DIRECTION('',(0.,-1.,0.));
#729=DIRECTION('',(0.,0.,-1.));
#730=DIRECTION('',(0.,0.,-1.));
#731=DIRECTION('',(0.,-1.,0.));
#732=DIRECTION('',(0.,0.,-1.));
#733=DIRECTION('',(0.,0.,-1.));
#734=DIRECTION('',(0.,0.,-1.));
#735=DIRECTION('',(-1.,0.,0.));
#736=DIRECTION('',(0.,1.,0.));
#737=DIRECTION('',(0.,0.,-1.));
#738=DIRECTION('',(0.,1.,0.));
#739=DIRECTION('',(0.,-1.,0.));
#740=DIRECTION('',(-0.000170602226673431,0.99999998544744,0.));
#741=DIRECTION('',(0.99999998544744,0.000170602226673431,0.));
#742=DIRECTION('',(0.99999998544744,0.000170602226673431,0.));
#743=DIRECTION('',(0.,0.,-1.));
#744=DIRECTION('',(0.99999998544744,0.000170602226673431,0.));
#745=DIRECTION('',(0.,0.,-1.));
#746=DIRECTION('',(1.40919708371704E-5,-0.999999999900708,0.));
#747=DIRECTION('',(-0.999999999900708,-1.40919708371704E-5,0.));
#748=DIRECTION('',(0.,0.,1.));
#749=DIRECTION('',(-0.999999999900708,-1.40919708371704E-5,0.));
#750=DIRECTION('',(-0.999999999900708,-1.40919708371704E-5,0.));
#751=DIRECTION('',(0.,0.,1.));
#752=DIRECTION('',(-0.356014170167332,-0.93448055658749,0.));
#753=DIRECTION('',(-0.93448055658749,0.356014170167332,0.));
#754=DIRECTION('',(-0.93448055658749,0.356014170167332,0.));
#755=DIRECTION('',(0.,0.,-1.));
#756=DIRECTION('',(-0.93448055658749,0.356014170167332,0.));
#757=DIRECTION('',(0.,0.,-1.));
#758=DIRECTION('',(-0.631276816263722,0.775557593765891,0.));
#759=DIRECTION('',(0.775557593765891,0.631276816263722,0.));
#760=DIRECTION('',(0.775557593765891,0.631276816263722,0.));
#761=DIRECTION('',(0.,0.,-1.));
#762=DIRECTION('',(0.775557593765891,0.631276816263722,0.));
#763=DIRECTION('',(0.,0.,1.));
#764=DIRECTION('',(0.,-1.,0.));
#765=DIRECTION('',(-1.,0.,0.));
#766=DIRECTION('',(-1.,0.,0.));
#767=DIRECTION('',(0.,0.,-1.));
#768=DIRECTION('',(-1.,0.,0.));
#769=DIRECTION('',(0.,0.,1.));
#770=DIRECTION('',(-1.,0.,0.));
#771=DIRECTION('',(0.,0.,-1.));
#772=DIRECTION('',(0.000170601799880414,0.999999985447513,0.));
#773=DIRECTION('',(0.999999985447513,-0.000170601799880414,0.));
#774=DIRECTION('',(0.999999985447513,-0.000170601799880414,0.));
#775=DIRECTION('',(0.,0.,-1.));
#776=DIRECTION('',(0.999999985447513,-0.000170601799880414,0.));
#777=DIRECTION('',(0.,0.,-1.));
#778=DIRECTION('',(0.,1.,0.));
#779=DIRECTION('',(0.,0.,1.));
#780=DIRECTION('',(0.,-1.,0.));
#781=DIRECTION('',(0.,0.,1.));
#782=DIRECTION('',(0.,-1.,0.));
#783=DIRECTION('',(0.,0.,1.));
#784=DIRECTION('',(1.,0.,0.));
#785=DIRECTION('',(0.,0.,1.));
#786=DIRECTION('',(0.,-1.,0.));
#787=DIRECTION('',(0.,0.,1.));
#788=DIRECTION('',(0.,-1.,0.));
#789=DIRECTION('',(0.,0.,1.));
#790=DIRECTION('',(0.,-1.,0.));
#791=DIRECTION('',(0.,0.,1.));
#792=DIRECTION('',(0.,-1.,0.));
#793=DIRECTION('',(0.,0.,1.));
#794=DIRECTION('',(0.,-1.,0.));
#795=DIRECTION('',(0.,0.,1.));
#796=DIRECTION('',(1.,0.,0.));
#797=DIRECTION('',(0.,0.,-1.));
#798=DIRECTION('',(0.,1.,0.));
#799=DIRECTION('',(0.,0.,1.));
#800=DIRECTION('',(0.,-1.,0.));
#801=DIRECTION('',(0.,0.,1.));
#802=DIRECTION('',(0.,-1.,0.));
#803=DIRECTION('',(0.,0.,-1.));
#804=DIRECTION('',(0.,0.,-1.));
#805=DIRECTION('',(0.,1.,0.));
#806=DIRECTION('',(0.,0.,-1.));
#807=DIRECTION('',(0.,0.,-1.));
#808=DIRECTION('',(0.,1.,0.));
#809=DIRECTION('',(0.,0.,-1.));
#810=DIRECTION('',(0.,0.,-1.));
#811=DIRECTION('',(0.,0.,1.));
#812=DIRECTION('',(0.,-1.,0.));
#813=DIRECTION('',(0.,0.,1.));
#814=DIRECTION('',(0.,0.,1.));
#815=DIRECTION('',(0.,-1.,0.));
#816=DIRECTION('',(0.,0.,1.));
#817=DIRECTION('',(0.,0.,-1.));
#818=DIRECTION('',(-1.,0.,0.));
#819=DIRECTION('',(0.,-1.,0.));
#820=DIRECTION('',(0.,0.,-1.));
#821=DIRECTION('',(0.,1.,0.));
#822=DIRECTION('',(0.,0.,-1.));
#823=DIRECTION('',(0.,1.,0.));
#824=DIRECTION('',(0.,0.,-1.));
#825=DIRECTION('',(0.,1.,0.));
#826=DIRECTION('',(0.,0.,-1.));
#827=DIRECTION('',(0.,1.,0.));
#828=DIRECTION('',(0.,0.,1.));
#829=DIRECTION('',(0.,-1.,0.));
#830=DIRECTION('',(0.,0.,1.));
#831=DIRECTION('',(0.,-1.,0.));
#832=DIRECTION('',(0.,0.,1.));
#833=DIRECTION('',(0.,-1.,0.));
#834=DIRECTION('',(0.,0.,-1.));
#835=DIRECTION('',(0.,1.,0.));
#836=DIRECTION('',(0.,0.,1.));
#837=DIRECTION('',(0.,-1.,0.));
#838=DIRECTION('',(0.,0.,1.));
#839=DIRECTION('',(0.,-1.,0.));
#840=DIRECTION('',(0.,0.,1.));
#841=DIRECTION('',(0.,-1.,0.));
#842=DIRECTION('',(0.709406479916222,0.496731764892154,0.5));
#843=DIRECTION('',(0.709406479916222,-0.496731764892154,0.5));
#844=DIRECTION('',(0.,0.,-1.));
#845=DIRECTION('',(0.,1.,0.));
#846=DIRECTION('',(0.709406479916221,0.496731764892153,-0.5));
#847=DIRECTION('',(0.,0.,-1.));
#848=DIRECTION('',(0.,1.,0.));
#849=DIRECTION('',(0.709406479916221,-0.496731764892153,-0.5));
#850=DIRECTION('',(0.573576436351047,-0.819152044288992,0.));
#851=DIRECTION('',(0.,0.,-1.));
#852=DIRECTION('',(0.,0.,1.));
#853=DIRECTION('',(-0.573576436351046,-0.819152044288992,0.));
#854=DIRECTION('',(0.,0.,-1.));
#855=DIRECTION('',(0.,0.,-1.));
#856=DIRECTION('',(0.,0.,1.));
#857=DIRECTION('',(0.,-1.,0.));
#858=DIRECTION('',(0.,0.,1.));
#859=DIRECTION('',(0.,0.,1.));
#860=DIRECTION('',(-0.985742586333114,0.168260374091179,0.));
#861=DIRECTION('',(0.,0.,1.));
#862=DIRECTION('',(0.985742586333114,0.168260374091179,0.));
#863=DIRECTION('',(0.,0.,1.));
#864=DIRECTION('',(0.,0.,-1.));
#865=DIRECTION('',(-1.,0.,0.));
#866=DIRECTION('',(1.,0.,0.));
#867=DIRECTION('',(0.,-1.,0.));
#868=DIRECTION('',(0.,-1.,0.));
#869=DIRECTION('',(1.,0.,0.));
#870=DIRECTION('',(0.,-1.,0.));
#871=DIRECTION('',(0.,-1.,0.));
#872=DIRECTION('',(0.,0.,-1.));
#873=DIRECTION('',(-1.,0.,0.));
#874=DIRECTION('',(-1.,0.,0.));
#875=DIRECTION('',(0.,1.,0.));
#876=DIRECTION('',(0.,1.,0.));
#877=DIRECTION('',(-1.,0.,0.));
#878=DIRECTION('',(0.,1.,0.));
#879=DIRECTION('',(0.,1.,0.));
#880=DIRECTION('',(0.,0.,-1.));
#881=DIRECTION('',(-1.,0.,0.));
#882=CARTESIAN_POINT('',(0.,0.,0.));
#883=CARTESIAN_POINT('',(-0.0326326316652737,-6.93889390390723E-18,0.0475));
#884=CARTESIAN_POINT('',(-0.0325392419753971,1.433164526631E-17,0.0475));
#885=CARTESIAN_POINT('',(-0.0105103612191066,-0.00300313208474751,0.0475));
#886=CARTESIAN_POINT('',(-0.030746907053254,-0.0221602780943782,0.0475));
#887=CARTESIAN_POINT('',(-0.030746907053254,-0.0211566880034984,0.0475));
#888=CARTESIAN_POINT('',(-0.030746907053254,-0.020153097912619,0.0475));
#889=CARTESIAN_POINT('',(-0.0325392419753975,5.22585447138013E-17,0.0475));
#890=CARTESIAN_POINT('',(-0.0128255561075571,-0.00455306593987513,0.0475));
#891=CARTESIAN_POINT('',(-0.0108768550488534,-0.00500313724956646,0.0475));
#892=CARTESIAN_POINT('',(-0.0108768832327951,-0.00300313724976504,0.0475));
#893=CARTESIAN_POINT('',(-0.0105120632716211,-0.00300313210873278,0.0475));
#894=CARTESIAN_POINT('',(-0.0325392419753975,5.22585447138013E-17,0.0505));
#895=CARTESIAN_POINT('',(-0.0325392419753975,-5.22585447138013E-17,0.0476));
#896=CARTESIAN_POINT('',(-0.030746907053254,-0.020153097912619,0.0476));
#897=CARTESIAN_POINT('',(-0.0343315768975406,-0.0201530979126191,0.0476));
#898=CARTESIAN_POINT('',(-0.0343315768975406,-0.0201530979126191,0.0476));
#899=CARTESIAN_POINT('',(-0.0343315768975406,-0.0201530979126191,0.0475));
#900=CARTESIAN_POINT('',(-0.0325392419753975,5.22585447138013E-17,0.0475));
#901=CARTESIAN_POINT('',(-0.0343315768975406,0.0201530979126191,0.0475));
#902=CARTESIAN_POINT('',(-0.0343315768975406,0.0201530979126191,0.0476));
#903=CARTESIAN_POINT('',(-0.0343315768975406,0.0201530979126191,0.0476));
#904=CARTESIAN_POINT('',(-0.0325392419753975,5.22585447138013E-17,0.0476));
#905=CARTESIAN_POINT('',(-0.030746907053254,0.020153097912619,0.0476));
#906=CARTESIAN_POINT('',(-0.030746907053254,0.020153097912619,0.0476));
#907=CARTESIAN_POINT('',(-0.030746907053254,0.020153097912619,0.0475));
#908=CARTESIAN_POINT('',(-0.0325392419753975,5.22585447138013E-17,0.0475));
#909=CARTESIAN_POINT('',(-0.0128256001094417,0.00455325645330668,0.0475));
#910=CARTESIAN_POINT('',(-0.0128256001094417,0.00455325645330668,0.0505));
#911=CARTESIAN_POINT('',(-0.0128256001094417,0.00455325645330668,0.0505));
#912=CARTESIAN_POINT('',(-0.0325392419753975,5.22585447138013E-17,0.0505));
#913=CARTESIAN_POINT('',(-0.0479678208544756,-0.0130888797733345,0.0505));
#914=CARTESIAN_POINT('',(-0.0479678208544756,-0.0130888797733345,0.0505));
#915=CARTESIAN_POINT('',(-0.0479678208544756,-0.0130888797733345,0.0485));
#916=CARTESIAN_POINT('',(-0.0325392419753975,5.22585447138013E-17,0.0485));
#917=CARTESIAN_POINT('',(-0.0137826326812987,-0.00758613391242658,0.0485));
#918=CARTESIAN_POINT('',(-0.0137826326812987,-0.00758613391242658,0.0505));
#919=CARTESIAN_POINT('',(-0.0137826326812987,-0.00758613391242658,0.0505));
#920=CARTESIAN_POINT('',(-0.0325392419753975,2.53703308361608E-17,0.0505));
#921=CARTESIAN_POINT('',(-0.0128255561075571,-0.00455306593987513,0.0505));
#922=CARTESIAN_POINT('',(-0.0128255561075571,-0.00455306593987513,0.0505));
#923=CARTESIAN_POINT('',(-0.030746907053254,-0.020153097912619,0.0476));
#924=CARTESIAN_POINT('',(-0.0326326316652737,-6.93889390390723E-18,0.0475));
#925=CARTESIAN_POINT('',(-0.0343315768975406,-0.0211566880034986,0.0475));
#926=CARTESIAN_POINT('',(-0.0343315768975406,-0.0221602780943782,0.0475));
#927=CARTESIAN_POINT('',(-0.0325392419753971,1.433164526631E-17,0.0475));
#928=CARTESIAN_POINT('',(-0.0343315768975406,0.0221602780943782,0.0475));
#929=CARTESIAN_POINT('',(-0.0343315768975406,0.0211566880034986,0.0475));
#930=CARTESIAN_POINT('',(-0.00866014786395097,-0.00300313210873281,0.0505));
#931=CARTESIAN_POINT('',(-0.00866014786395097,-0.00300313210873281,0.0495));
#932=CARTESIAN_POINT('',(-0.00882689180926147,-0.0030031344584836,0.0495));
#933=CARTESIAN_POINT('',(-0.00849340391900823,-0.00300310366184411,0.0495));
#934=CARTESIAN_POINT('',(-0.00882689180926147,-0.0030031344584836,0.0505));
#935=CARTESIAN_POINT('',(-0.00882689180926147,-0.0030031344584836,0.0505));
#936=CARTESIAN_POINT('',(-0.00866014786395097,-0.00300313210873281,0.0505));
#937=CARTESIAN_POINT('',(-0.00849340391900823,-0.00300310366184411,0.0505));
#938=CARTESIAN_POINT('',(-0.00849340391900823,-0.00300310366184411,0.0505));
#939=CARTESIAN_POINT('',(-0.0105120632716211,-0.00300313210873278,0.0505));
#940=CARTESIAN_POINT('',(-0.0108768832327951,-0.00300313724976504,0.0505));
#941=CARTESIAN_POINT('',(-0.0108768832327951,-0.00300313724976504,0.0505));
#942=CARTESIAN_POINT('',(-0.0105120632716211,-0.00300313210873278,0.0505));
#943=CARTESIAN_POINT('',(-0.0105120632716211,-0.00300313210873278,0.0495));
#944=CARTESIAN_POINT('',(-0.0105103612191064,-0.00300313208474751,0.0495));
#945=CARTESIAN_POINT('',(-0.0105103612191066,-0.00300313208474751,0.0475));
#946=CARTESIAN_POINT('',(-0.0236782604548851,-0.00800954278722299,0.0505));
#947=CARTESIAN_POINT('',(-0.0236782604548851,-0.00800954278722299,0.0505));
#948=CARTESIAN_POINT('',(-0.0189148771289982,-0.0098242749932598,0.0505));
#949=CARTESIAN_POINT('',(-0.0295865367576964,-0.00575863444008098,0.0505));
#950=CARTESIAN_POINT('',(-0.0189148771289982,-0.0098242749932598,0.0505));
#951=CARTESIAN_POINT('',(-0.0189148771289982,-0.0098242749932598,0.0485));
#952=CARTESIAN_POINT('',(-0.0236782604548851,-0.00800954278722299,0.0485));
#953=CARTESIAN_POINT('',(-0.0295865367576964,-0.00575863444008098,0.0485));
#954=CARTESIAN_POINT('',(-0.0295865367576964,-0.00575863444008098,0.0505));
#955=CARTESIAN_POINT('',(-0.0384391826650418,-0.0103855894886086,0.0505));
#956=CARTESIAN_POINT('',(-0.0384391826650418,-0.0103855894886086,0.0505));
#957=CARTESIAN_POINT('',(-0.0423924785194788,-0.0136034343537714,0.0505));
#958=CARTESIAN_POINT('',(-0.0335357007034206,-0.00639432629136738,0.0505));
#959=CARTESIAN_POINT('',(-0.0335357007034206,-0.00639432629136738,0.0495));
#960=CARTESIAN_POINT('',(-0.0335357007034206,-0.00639432629136738,0.0485));
#961=CARTESIAN_POINT('',(-0.0384391826650418,-0.0103855894886086,0.0485));
#962=CARTESIAN_POINT('',(-0.0423924785194788,-0.0136034343537714,0.0485));
#963=CARTESIAN_POINT('',(-0.0423924785194788,-0.0136034343537714,0.0505));
#964=CARTESIAN_POINT('',(-0.0105120924044876,0.00300334659528173,0.0505));
#965=CARTESIAN_POINT('',(-0.0105120924044876,0.00300334659528173,0.0505));
#966=CARTESIAN_POINT('',(-0.00882689180889308,0.00300337503951114,0.0505));
#967=CARTESIAN_POINT('',(-0.0108769034003315,0.00300334659528173,0.0505));
#968=CARTESIAN_POINT('',(-0.0108769034003315,0.00300334659528173,0.0505));
#969=CARTESIAN_POINT('',(-0.0108769034003315,0.00300334659528173,0.0475));
#970=CARTESIAN_POINT('',(-0.0105120924044876,0.00300334659528173,0.0475));
#971=CARTESIAN_POINT('',(-0.0105103904637564,0.00300334659528173,0.0475));
#972=CARTESIAN_POINT('',(-0.0105103904637564,0.00300334659528173,0.0475));
#973=CARTESIAN_POINT('',(-0.0105103904637564,0.00300334659528173,0.0495));
#974=CARTESIAN_POINT('',(-0.0105120924044876,0.00300334659528173,0.0495));
#975=CARTESIAN_POINT('',(-0.00882689180889308,0.00300337503951114,0.0495));
#976=CARTESIAN_POINT('',(-0.00882689180889308,0.00300337503951114,0.0505));
#977=CARTESIAN_POINT('',(-0.00866016303464804,0.00300337503951116,0.0505));
#978=CARTESIAN_POINT('',(-0.00866016303464804,0.00300337503951116,0.0495));
#979=CARTESIAN_POINT('',(-0.00849343426040299,0.00300334659528177,0.0495));
#980=CARTESIAN_POINT('',(-0.00849343426040299,0.00300334659528177,0.0505));
#981=CARTESIAN_POINT('',(-0.00849343426040299,0.00300334659528177,0.0505));
#982=CARTESIAN_POINT('',(-0.00866016303464804,0.00300337503951116,0.0505));
#983=CARTESIAN_POINT('',(-0.0325392419753978,-4.91231463804211E-18,0.0505));
#984=CARTESIAN_POINT('',(-0.0325392419753978,-4.91231463804211E-18,0.0495));
#985=CARTESIAN_POINT('',(-0.0325392419753978,-4.91231463804211E-18,0.0505));
#986=CARTESIAN_POINT('',(-0.00644898291061998,-0.0878836787819294,0.0505));
#987=CARTESIAN_POINT('',(-0.0310105934383658,-0.00949655666643094,0.0505));
#988=CARTESIAN_POINT('',(-0.0449175857845337,-0.0105012039787079,0.0505));
#989=CARTESIAN_POINT('',(-0.0108769034003315,0.00500334659528173,0.0505));
#990=CARTESIAN_POINT('',(-0.0108768550488534,-0.00500313724956646,0.0505));
#991=CARTESIAN_POINT('',(-0.0174908204483289,-0.00608635276690984,0.0505));
#992=CARTESIAN_POINT('',(-0.00644898291061998,-0.0878836787819294,0.0495));
#993=CARTESIAN_POINT('',(-0.0325392419753971,1.433164526631E-17,0.0495));
#994=CARTESIAN_POINT('',(-0.0325392419753971,1.433164526631E-17,0.0475));
#995=CARTESIAN_POINT('',(-0.0325392419753971,-1.433164526631E-17,0.0476));
#996=CARTESIAN_POINT('',(-0.0343315768975406,-0.0221602780943782,0.0476));
#997=CARTESIAN_POINT('',(-0.030746907053254,-0.0221602780943782,0.0476));
#998=CARTESIAN_POINT('',(-0.030746907053254,-0.0221602780943782,0.0476));
#999=CARTESIAN_POINT('',(-0.0325392419753971,1.433164526631E-17,0.0475));
#1000=CARTESIAN_POINT('',(-0.030746907053254,0.0221602780943782,0.0475));
#1001=CARTESIAN_POINT('',(-0.030746907053254,0.0221602780943782,0.0476));
#1002=CARTESIAN_POINT('',(-0.030746907053254,0.0221602780943782,0.0476));
#1003=CARTESIAN_POINT('',(-0.0325392419753971,1.433164526631E-17,0.0476));
#1004=CARTESIAN_POINT('',(-0.0343315768975406,0.0221602780943782,0.0476));
#1005=CARTESIAN_POINT('',(-0.0343315768975406,0.0221602780943782,0.0476));
#1006=CARTESIAN_POINT('',(-0.0343315768975406,-0.0221602780943782,0.0476));
#1007=CARTESIAN_POINT('',(-0.0325392419753975,0.,0.0476732050807569));
#1008=CARTESIAN_POINT('',(-0.0143273274738861,0.012752119819189,0.0476732050807569));
#1009=CARTESIAN_POINT('',(-0.0143273274738859,-0.0127521198191892,0.0476732050807569));
#1010=CARTESIAN_POINT('',(-0.0143273274738861,0.012752119819189,0.0481350852961086));
#1011=CARTESIAN_POINT('',(-0.0143273274738861,0.012752119819189,0.0485969655114603));
#1012=CARTESIAN_POINT('',(-0.0325392419753975,0.,0.0485969655114603));
#1013=CARTESIAN_POINT('',(-0.0143273274738861,-0.012752119819189,0.0485969655114603));
#1014=CARTESIAN_POINT('',(-0.0143273274738861,-0.012752119819189,0.0481350852961086));
#1015=CARTESIAN_POINT('',(-0.0326326316652737,-6.93889390390723E-18,0.0475));
#1016=CARTESIAN_POINT('',(-0.030746907053254,0.0211566880034984,0.0475));
#1017=CARTESIAN_POINT('',(-0.0108769034003315,0.00500334659528173,0.0475));
#1018=CARTESIAN_POINT('',(-0.0108768550488534,-0.00500313724956646,0.0505));
#1019=CARTESIAN_POINT('',(-0.0108769034003315,0.00500334659528173,0.0505));
#1020=CARTESIAN_POINT('',(-0.0174908204483289,-0.00608635276690984,0.0505));
#1021=CARTESIAN_POINT('',(-0.0174908204483289,-0.00608635276690984,0.0485));
#1022=CARTESIAN_POINT('',(-0.0310105934383658,-0.00949655666643094,0.0505));
#1023=CARTESIAN_POINT('',(-0.0310105934383658,-0.00949655666643094,0.0485));
#1024=CARTESIAN_POINT('',(-0.0449175857845337,-0.0105012039787079,0.0505));
#1025=CARTESIAN_POINT('',(-0.0449175857845337,-0.0105012039787079,0.0485));
#1026=CARTESIAN_POINT('',(-0.0325392419753975,0.,0.0476732050807569));
#1027=CARTESIAN_POINT('',(-0.0325392419753975,0.,0.0480350852961086));
#1028=CARTESIAN_POINT('',(-0.0141051374895559,-0.0135180497117676,0.0480350852961086));
#1029=CARTESIAN_POINT('',(-0.0141051374895559,0.0135180497117677,0.0480350852961086));
#1030=CARTESIAN_POINT('',(-0.0141051374895559,0.0135180497117677,0.0480350852961086));
#1031=CARTESIAN_POINT('',(-0.0141445186279977,0.0132873378435094,0.0479379807099777));
#1032=CARTESIAN_POINT('',(-0.0141839589644358,0.0130562791675952,0.0478417331871317));
#1033=CARTESIAN_POINT('',(-0.0142234631565826,0.0128248463971159,0.0477464101615138));
#1034=CARTESIAN_POINT('',(-0.0142234631565826,0.0128248463971159,0.0477464101615138));
#1035=CARTESIAN_POINT('',(-0.0139996666561705,0.0129815503937294,0.0479041451884327));
#1036=CARTESIAN_POINT('',(-0.0139996666561705,-0.0129815503937294,0.0479041451884327));
#1037=CARTESIAN_POINT('',(-0.0142234631565826,-0.0128248463971159,0.0477464101615138));
#1038=CARTESIAN_POINT('',(-0.0142234631565826,-0.0128248463971159,0.0477464101615138));
#1039=CARTESIAN_POINT('',(-0.0141839589644358,-0.0130562791675952,0.0478417331871317));
#1040=CARTESIAN_POINT('',(-0.0141445186279977,-0.0132873378435095,0.0479379807099777));
#1041=CARTESIAN_POINT('',(-0.0141051374895559,-0.0135180497117677,0.0480350852961086));
#1042=CARTESIAN_POINT('',(-0.0325392419753975,0.,0.0485969655114603));
#1043=CARTESIAN_POINT('',(-0.0139996666561705,0.0129815503937294,0.0483660254037844));
#1044=CARTESIAN_POINT('',(-0.0142234631565826,0.0128248463971159,0.0485237604307034));
#1045=CARTESIAN_POINT('',(-0.0142234631565826,0.0128248463971159,0.0485237604307034));
#1046=CARTESIAN_POINT('',(-0.0141839589644358,0.0130562791675952,0.0484284374050855));
#1047=CARTESIAN_POINT('',(-0.0141445186279977,0.0132873378435095,0.0483321898822395));
#1048=CARTESIAN_POINT('',(-0.0141051374895559,0.0135180497117677,0.0482350852961086));
#1049=CARTESIAN_POINT('',(-0.0141051374895559,0.0135180497117677,0.0482350852961086));
#1050=CARTESIAN_POINT('',(-0.0325392419753975,0.,0.0482350852961086));
#1051=CARTESIAN_POINT('',(-0.0141051374895559,-0.0135180497117676,0.0482350852961086));
#1052=CARTESIAN_POINT('',(-0.0141051374895559,-0.0135180497117677,0.0482350852961086));
#1053=CARTESIAN_POINT('',(-0.0141445186279977,-0.0132873378435095,0.0483321898822395));
#1054=CARTESIAN_POINT('',(-0.0141839589644358,-0.0130562791675951,0.0484284374050855));
#1055=CARTESIAN_POINT('',(-0.0142234631565826,-0.0128248463971159,0.0485237604307034));
#1056=CARTESIAN_POINT('',(-0.0142234631565826,-0.0128248463971159,0.0485237604307034));
#1057=CARTESIAN_POINT('',(-0.0139996666561705,-0.0129815503937294,0.0483660254037844));
#1058=CARTESIAN_POINT('',(-0.0297662813512457,0.00194164793218978,0.0445843399325645));
#1059=CARTESIAN_POINT('',(-0.0142234631565826,0.0128248463971159,0.0445843399325645));
#1060=CARTESIAN_POINT('',(-0.0297662813512457,-0.00194164793218978,0.0445843399325645));
#1061=CARTESIAN_POINT('',(-0.0142234631565826,-0.0128248463971159,0.0480350852961086));
#1062=CARTESIAN_POINT('',(-0.0325392419753975,0.,0.0482350852961086));
#1063=CARTESIAN_POINT('',(-0.0141051374895559,0.0135180497117677,0.0482350852961086));
#1064=CARTESIAN_POINT('',(-0.0141051374895559,-0.0135180497117677,0.0482350852961086));
#1065=CARTESIAN_POINT('',(-0.0142234631565826,0.0128248463971159,0.0482350852961086));
#1066=CARTESIAN_POINT('',(-0.0142234631565826,-0.0128248463971159,0.0482350852961086));
#1067=CARTESIAN_POINT('',(-0.0308752267678872,-0.012864599551286,0.0485));
#1068=CARTESIAN_POINT('',(-0.030746907053254,0.0211566880034984,0.0476));
#1069=CARTESIAN_POINT('',(-0.030746907053254,0.0211566880034984,0.0476));
#1070=CARTESIAN_POINT('',(-0.0343315768975406,0.0211566880034986,0.0476));
#1071=CARTESIAN_POINT('',(-0.0343315768975406,0.0211566880034986,0.0476));
#1072=CARTESIAN_POINT('',(-0.0326411228153225,0.00075,0.0476));
#1073=CARTESIAN_POINT('',(-0.0343315768975406,-0.0211566880034986,0.0476));
#1074=CARTESIAN_POINT('',(-0.0343315768975406,-0.0211566880034986,0.0476));
#1075=CARTESIAN_POINT('',(-0.030746907053254,-0.0211566880034984,0.0476));
#1076=CARTESIAN_POINT('',(-0.030746907053254,-0.0211566880034984,0.0476));
#1077=CARTESIAN_POINT('',(-0.0326411228153225,-0.00075,0.0476));
#1078=MECHANICAL_DESIGN_GEOMETRIC_PRESENTATION_REPRESENTATION('',(#623),
#1079);
#1079=(
GEOMETRIC_REPRESENTATION_CONTEXT(3)
GLOBAL_UNCERTAINTY_ASSIGNED_CONTEXT((#1080))
GLOBAL_UNIT_ASSIGNED_CONTEXT((#1083,#1082,#1081))
REPRESENTATION_CONTEXT('bigeye','TOP_LEVEL_ASSEMBLY_PART')
);
#1080=UNCERTAINTY_MEASURE_WITH_UNIT(LENGTH_MEASURE(2.E-5),#1083,
'DISTANCE_ACCURACY_VALUE','Maximum Tolerance applied to model');
#1081=(
NAMED_UNIT(*)
SI_UNIT($,.STERADIAN.)
SOLID_ANGLE_UNIT()
);
#1082=(
NAMED_UNIT(*)
PLANE_ANGLE_UNIT()
SI_UNIT($,.RADIAN.)
);
#1083=(
LENGTH_UNIT()
NAMED_UNIT(*)
SI_UNIT($,.METRE.)
);
#1084=PRODUCT_DEFINITION_SHAPE('','',#1085);
#1085=PRODUCT_DEFINITION('','',#1087,#1086);
#1086=PRODUCT_DEFINITION_CONTEXT('',#1093,'design');
#1087=PRODUCT_DEFINITION_FORMATION_WITH_SPECIFIED_SOURCE('','',#1089,
 .NOT_KNOWN.);
#1088=PRODUCT_RELATED_PRODUCT_CATEGORY('','',(#1089));
#1089=PRODUCT('bigeye','bigeye','bigeye',(#1091));
#1090=PRODUCT_CATEGORY('','');
#1091=PRODUCT_CONTEXT('',#1093,'mechanical');
#1092=APPLICATION_PROTOCOL_DEFINITION('international standard',
'ap242_managed_model_based_3d_engineering',2020,#1093);
#1093=APPLICATION_CONTEXT('managed model based 3d engineering');
ENDSEC;
END-ISO-10303-21;
