ISO-10303-21;
HEADER;
/* Generated by software containing ST-Developer
 * from STEP Tools, Inc. (www.steptools.com) 
 */
/* OPTION: using custom renumber hook */

FILE_DESCRIPTION(
/* description */ ('STEP AP242 Edition 2',
'CAx-IF Rec.Pracs.---Representation and Presentation of Product Manufa
cturing Information (PMI)---4.0---2014-10-13',
'CAx-IF Rec.Pracs.---3D Tessellated Geometry---0.4---2014-09-14','2;1',
'CAx-IF Rec.Pracs.---User Defined Attributes---1.5---2016-08-15'),
/* implementation_level */ '2;1');

FILE_NAME(
/* name */ 'RM_Lite_Proto (BETA) - fix_block_r',
/* time_stamp */ '2026-03-25T08:53:54Z',
/* author */ (''),
/* organization */ (''),
/* preprocessor_version */ 'ST-DEVELOPER v20',
/* originating_system */ 'ONSHAPE BY PTC INC, 1.212',
/* authorisation */ '  ');

FILE_SCHEMA (('AP242_MANAGED_MODEL_BASED_3D_ENGINEERING_MIM_LF { 1 0 10303 442 3 1 4 }'));
ENDSEC;

DATA;
#10=SHAPE_REPRESENTATION_RELATIONSHIP('','',#711,#11);
#11=ADVANCED_BREP_SHAPE_REPRESENTATION('',(#709),#1521);
#12=CONICAL_SURFACE('',#774,0.002,0.785398163397436);
#13=CONICAL_SURFACE('',#777,0.002,0.785398163397443);
#14=CONICAL_SURFACE('',#778,0.002,0.785398163397447);
#15=CONICAL_SURFACE('',#781,0.002,0.785398163397441);
#16=TOROIDAL_SURFACE('',#751,0.008,0.002);
#17=TOROIDAL_SURFACE('',#761,0.008,0.002);
#18=TOROIDAL_SURFACE('',#763,0.008,0.002);
#19=TOROIDAL_SURFACE('',#768,0.008,0.002);
#20=(
BOUNDED_SURFACE()
B_SPLINE_SURFACE(3,2,((#1233,#1234,#1235),(#1236,#1237,#1238),(#1239,#1240,
#1241),(#1242,#1243,#1244)),.UNSPECIFIED.,.F.,.F.,.F.)
B_SPLINE_SURFACE_WITH_KNOTS((4,4),(3,3),(0.025552073137461,0.0295197672749991),
(0.,1.),.PIECEWISE_BEZIER_KNOTS.)
GEOMETRIC_REPRESENTATION_ITEM()
RATIONAL_B_SPLINE_SURFACE(((1.,0.775362679227102,1.),(1.,0.775405863833439,
1.),(1.,0.775447593242409,1.),(1.,0.775487107734604,1.)))
REPRESENTATION_ITEM('')
SURFACE()
);
#21=(
BOUNDED_SURFACE()
B_SPLINE_SURFACE(3,2,((#1247,#1248,#1249),(#1250,#1251,#1252),(#1253,#1254,
#1255),(#1256,#1257,#1258),(#1259,#1260,#1261)),.UNSPECIFIED.,.F.,.F.,.F.)
B_SPLINE_SURFACE_WITH_KNOTS((4,1,4),(3,3),(0.00278144718748766,0.00592556213130353,
0.0090696770751194),(0.,1.),.UNSPECIFIED.)
GEOMETRIC_REPRESENTATION_ITEM()
RATIONAL_B_SPLINE_SURFACE(((1.,0.736771706828281,1.),(1.,0.752584144645312,
1.),(1.,0.776763471991204,1.),(1.,0.77919221111131,1.),(1.,0.775362679227106,
1.)))
REPRESENTATION_ITEM('')
SURFACE()
);
#22=(
BOUNDED_SURFACE()
B_SPLINE_SURFACE(3,2,((#1268,#1269,#1270),(#1271,#1272,#1273),(#1274,#1275,
#1276),(#1277,#1278,#1279),(#1280,#1281,#1282)),.UNSPECIFIED.,.F.,.F.,.F.)
B_SPLINE_SURFACE_WITH_KNOTS((4,1,4),(3,3),(0.0039907572631557,0.00714297273336717,
0.0102951882035786),(0.,1.),.UNSPECIFIED.)
GEOMETRIC_REPRESENTATION_ITEM()
RATIONAL_B_SPLINE_SURFACE(((1.,0.775487107734605,1.),(1.,0.775006932410391,
1.),(1.,0.763950234500044,1.),(1.,0.734982750504785,1.),(1.,0.718781955473672,
1.)))
REPRESENTATION_ITEM('')
SURFACE()
);
#23=(
BOUNDED_SURFACE()
B_SPLINE_SURFACE(3,2,((#1289,#1290,#1291),(#1292,#1293,#1294),(#1295,#1296,
#1297),(#1298,#1299,#1300)),.UNSPECIFIED.,.F.,.F.,.F.)
B_SPLINE_SURFACE_WITH_KNOTS((4,4),(3,3),(0.0511244511355118,0.0551573616047206),
(0.,1.),.PIECEWISE_BEZIER_KNOTS.)
GEOMETRIC_REPRESENTATION_ITEM()
RATIONAL_B_SPLINE_SURFACE(((1.,0.736823895954721,1.),(1.,0.736806887039468,
1.),(1.,0.736789469117167,1.),(1.,0.736771706828264,1.)))
REPRESENTATION_ITEM('')
SURFACE()
);
#24=(
BOUNDED_SURFACE()
B_SPLINE_SURFACE(3,2,((#1321,#1322,#1323),(#1324,#1325,#1326),(#1327,#1328,
#1329),(#1330,#1331,#1332)),.UNSPECIFIED.,.F.,.F.,.F.)
B_SPLINE_SURFACE_WITH_KNOTS((4,4),(3,3),(0.0318241224734859,0.0358572573210371),
(0.,1.),.PIECEWISE_BEZIER_KNOTS.)
GEOMETRIC_REPRESENTATION_ITEM()
RATIONAL_B_SPLINE_SURFACE(((1.,0.718781955473675,1.),(1.,0.71873247760364,
1.),(1.,0.718684262274489,1.),(1.,0.718637863366445,1.)))
REPRESENTATION_ITEM('')
SURFACE()
);
#25=(
BOUNDED_SURFACE()
B_SPLINE_SURFACE(3,2,((#1334,#1335,#1336),(#1337,#1338,#1339),(#1340,#1341,
#1342),(#1343,#1344,#1345)),.UNSPECIFIED.,.F.,.F.,.F.)
B_SPLINE_SURFACE_WITH_KNOTS((4,4),(3,3),(0.0317162288740334,0.0356675624485727),
(0.,1.),.PIECEWISE_BEZIER_KNOTS.)
GEOMETRIC_REPRESENTATION_ITEM()
RATIONAL_B_SPLINE_SURFACE(((1.,0.657389974931458,1.),(1.,0.657429382078594,
1.),(1.,0.657470978712868,1.),(1.,0.657513954686424,1.)))
REPRESENTATION_ITEM('')
SURFACE()
);
#26=(
BOUNDED_SURFACE()
B_SPLINE_SURFACE(3,2,((#1348,#1349,#1350),(#1351,#1352,#1353),(#1354,#1355,
#1356),(#1357,#1358,#1359),(#1360,#1361,#1362)),.UNSPECIFIED.,.F.,.F.,.F.)
B_SPLINE_SURFACE_WITH_KNOTS((4,1,4),(3,3),(0.00132314618716875,0.0044819722421139,
0.00764079829705905),(0.,1.),.UNSPECIFIED.)
GEOMETRIC_REPRESENTATION_ITEM()
RATIONAL_B_SPLINE_SURFACE(((1.,0.657513954686412,1.),(1.,0.662259065419141,
1.),(1.,0.688114214879409,1.),(1.,0.723051306937955,1.),(1.,0.73682389595472,
1.)))
REPRESENTATION_ITEM('')
SURFACE()
);
#27=(
BOUNDED_SURFACE()
B_SPLINE_SURFACE(3,2,((#1368,#1369,#1370),(#1371,#1372,#1373),(#1374,#1375,
#1376),(#1377,#1378,#1379),(#1380,#1381,#1382),(#1383,#1384,#1385),(#1386,
#1387,#1388)),.UNSPECIFIED.,.F.,.F.,.F.)
B_SPLINE_SURFACE_WITH_KNOTS((4,1,1,1,4),(3,3),(0.00289728505523805,0.00447871032090741,
0.00606013558657678,0.00764156085224615,0.00922298611791552),(0.,1.),
 .UNSPECIFIED.)
GEOMETRIC_REPRESENTATION_ITEM()
RATIONAL_B_SPLINE_SURFACE(((1.,0.894427190999914,1.),(1.,0.901665689019307,
1.),(1.,0.913140609921218,1.),(1.,0.919361285357602,1.),(1.,0.913155596120991,
1.),(1.,0.901625928363308,1.),(1.,0.894427190999915,1.)))
REPRESENTATION_ITEM('')
SURFACE()
);
#28=(
BOUNDED_SURFACE()
B_SPLINE_SURFACE(3,2,((#1390,#1391,#1392),(#1393,#1394,#1395),(#1396,#1397,
#1398),(#1399,#1400,#1401),(#1402,#1403,#1404),(#1405,#1406,#1407),(#1408,
#1409,#1410)),.UNSPECIFIED.,.F.,.F.,.F.)
B_SPLINE_SURFACE_WITH_KNOTS((4,1,1,1,4),(3,3),(0.00289728505523812,0.00447871032090749,
0.00606013558657686,0.00764156085224623,0.0092229861179156),(0.,1.),
 .UNSPECIFIED.)
GEOMETRIC_REPRESENTATION_ITEM()
RATIONAL_B_SPLINE_SURFACE(((1.,0.894427190999915,1.),(1.,0.901665689016012,
1.),(1.,0.913140609922653,1.),(1.,0.919361285357508,1.),(1.,0.91315559611993,
1.),(1.,0.901625928365848,1.),(1.,0.894427190999915,1.)))
REPRESENTATION_ITEM('')
SURFACE()
);
#29=(
BOUNDED_SURFACE()
B_SPLINE_SURFACE(3,2,((#1412,#1413,#1414),(#1415,#1416,#1417),(#1418,#1419,
#1420),(#1421,#1422,#1423),(#1424,#1425,#1426)),.UNSPECIFIED.,.F.,.F.,.F.)
B_SPLINE_SURFACE_WITH_KNOTS((4,1,4),(3,3),(0.0027434114479567,0.00589098767675709,
0.00903856390555749),(0.,1.),.UNSPECIFIED.)
GEOMETRIC_REPRESENTATION_ITEM()
RATIONAL_B_SPLINE_SURFACE(((1.,0.718637863366494,1.),(1.,0.704234734081629,
1.),(1.,0.67220796648139,1.),(1.,0.656663748822155,1.),(1.,0.657389974931461,
1.)))
REPRESENTATION_ITEM('')
SURFACE()
);
#30=(
BOUNDED_SURFACE()
B_SPLINE_SURFACE(3,2,((#1452,#1453,#1454),(#1455,#1456,#1457),(#1458,#1459,
#1460),(#1461,#1462,#1463),(#1464,#1465,#1466),(#1467,#1468,#1469),(#1470,
#1471,#1472)),.UNSPECIFIED.,.F.,.F.,.F.)
B_SPLINE_SURFACE_WITH_KNOTS((4,1,1,1,4),(3,3),(0.00289728505523806,0.00447871032090742,
0.00606013558657679,0.00764156085224615,0.00922298611791552),(0.,1.),
 .UNSPECIFIED.)
GEOMETRIC_REPRESENTATION_ITEM()
RATIONAL_B_SPLINE_SURFACE(((1.,0.894427190999915,1.),(1.,0.901665689015418,
1.),(1.,0.913140609923042,1.),(1.,0.91936128535705,1.),(1.,0.913155596121387,
1.),(1.,0.901625928362748,1.),(1.,0.894427190999916,1.)))
REPRESENTATION_ITEM('')
SURFACE()
);
#31=(
BOUNDED_SURFACE()
B_SPLINE_SURFACE(3,2,((#1474,#1475,#1476),(#1477,#1478,#1479),(#1480,#1481,
#1482),(#1483,#1484,#1485),(#1486,#1487,#1488),(#1489,#1490,#1491),(#1492,
#1493,#1494)),.UNSPECIFIED.,.F.,.F.,.F.)
B_SPLINE_SURFACE_WITH_KNOTS((4,1,1,1,4),(3,3),(0.00144975033141226,0.00303102337871798,
0.0046122964260237,0.00619356947332943,0.00777484252063515),(0.,1.),
 .UNSPECIFIED.)
GEOMETRIC_REPRESENTATION_ITEM()
RATIONAL_B_SPLINE_SURFACE(((1.,0.894427190999916,1.),(1.,0.901665689015804,
1.),(1.,0.913140609922925,1.),(1.,0.919361285356878,1.),(1.,0.913155596122195,
1.),(1.,0.901625928360982,1.),(1.,0.894427190999917,1.)))
REPRESENTATION_ITEM('')
SURFACE()
);
#32=B_SPLINE_SURFACE_WITH_KNOTS('',3,3,((#1085,#1086,#1087,#1088),(#1089,
#1090,#1091,#1092),(#1093,#1094,#1095,#1096),(#1097,#1098,#1099,#1100),
(#1101,#1102,#1103,#1104),(#1105,#1106,#1107,#1108),(#1109,#1110,#1111,
#1112),(#1113,#1114,#1115,#1116),(#1117,#1118,#1119,#1120),(#1121,#1122,
#1123,#1124),(#1125,#1126,#1127,#1128),(#1129,#1130,#1131,#1132),(#1133,
#1134,#1135,#1136),(#1137,#1138,#1139,#1140)),.UNSPECIFIED.,.F.,.F.,.F.,
(4,2,2,2,2,2,4),(4,4),(0.650111065146688,0.65625,0.6640625,0.671875,0.6796875,
0.6875,0.692605615470687),(0.167129310225336,0.36693274209315),
 .UNSPECIFIED.);
#33=CYLINDRICAL_SURFACE('',#720,0.002);
#34=CYLINDRICAL_SURFACE('',#723,0.002);
#35=CYLINDRICAL_SURFACE('',#726,0.002);
#36=CYLINDRICAL_SURFACE('',#729,0.002);
#37=CYLINDRICAL_SURFACE('',#750,0.002);
#38=CYLINDRICAL_SURFACE('',#754,0.002);
#39=CYLINDRICAL_SURFACE('',#760,0.002);
#40=CYLINDRICAL_SURFACE('',#765,0.002);
#41=CYLINDRICAL_SURFACE('',#769,0.00135);
#42=CYLINDRICAL_SURFACE('',#773,0.00275);
#43=LINE('',#991,#75);
#44=LINE('',#994,#76);
#45=LINE('',#996,#77);
#46=LINE('',#1005,#78);
#47=LINE('',#1013,#79);
#48=LINE('',#1015,#80);
#49=LINE('',#1024,#81);
#50=LINE('',#1032,#82);
#51=LINE('',#1034,#83);
#52=LINE('',#1043,#84);
#53=LINE('',#1051,#85);
#54=LINE('',#1053,#86);
#55=LINE('',#1067,#87);
#56=LINE('',#1072,#88);
#57=LINE('',#1076,#89);
#58=LINE('',#1080,#90);
#59=LINE('',#1192,#91);
#60=LINE('',#1196,#92);
#61=LINE('',#1198,#93);
#62=LINE('',#1203,#94);
#63=LINE('',#1213,#95);
#64=LINE('',#1220,#96);
#65=LINE('',#1228,#97);
#66=LINE('',#1232,#98);
#67=LINE('',#1505,#99);
#68=LINE('',#1506,#100);
#69=LINE('',#1508,#101);
#70=LINE('',#1510,#102);
#71=LINE('',#1512,#103);
#72=LINE('',#1514,#104);
#73=LINE('',#1516,#105);
#74=LINE('',#1518,#106);
#75=VECTOR('',#798,1.);
#76=VECTOR('',#799,1.);
#77=VECTOR('',#800,1.);
#78=VECTOR('',#805,1.);
#79=VECTOR('',#808,1.);
#80=VECTOR('',#809,1.);
#81=VECTOR('',#814,1.);
#82=VECTOR('',#817,1.);
#83=VECTOR('',#818,1.);
#84=VECTOR('',#823,1.);
#85=VECTOR('',#826,1.);
#86=VECTOR('',#827,1.);
#87=VECTOR('',#834,1.);
#88=VECTOR('',#837,1.);
#89=VECTOR('',#840,1.);
#90=VECTOR('',#843,1.);
#91=VECTOR('',#850,1.);
#92=VECTOR('',#853,1.);
#93=VECTOR('',#856,1.);
#94=VECTOR('',#859,1.);
#95=VECTOR('',#864,1.);
#96=VECTOR('',#865,1.);
#97=VECTOR('',#868,1.);
#98=VECTOR('',#871,1.);
#99=VECTOR('',#932,1.);
#100=VECTOR('',#933,1.);
#101=VECTOR('',#936,1.);
#102=VECTOR('',#939,1.);
#103=VECTOR('',#942,1.);
#104=VECTOR('',#945,1.);
#105=VECTOR('',#948,1.);
#106=VECTOR('',#951,1.);
#107=PLANE('',#719);
#108=PLANE('',#722);
#109=PLANE('',#725);
#110=PLANE('',#728);
#111=PLANE('',#731);
#112=PLANE('',#737);
#113=PLANE('',#739);
#114=PLANE('',#741);
#115=PLANE('',#743);
#116=PLANE('',#771);
#117=PLANE('',#775);
#118=PLANE('',#776);
#119=PLANE('',#779);
#120=PLANE('',#780);
#121=B_SPLINE_CURVE_WITH_KNOTS('',3,(#959,#960,#961,#962,#963),
 .UNSPECIFIED.,.F.,.F.,(4,1,4),(0.,0.00254261193547748,0.00508522387095497),
 .UNSPECIFIED.);
#122=B_SPLINE_CURVE_WITH_KNOTS('',3,(#967,#968,#969,#970,#971),
 .UNSPECIFIED.,.F.,.F.,(4,1,4),(0.,0.00254261193547746,0.00508522387095492),
 .UNSPECIFIED.);
#123=B_SPLINE_CURVE_WITH_KNOTS('',3,(#975,#976,#977,#978,#979),
 .UNSPECIFIED.,.F.,.F.,(4,1,4),(0.,0.00254261193547746,0.00508522387095493),
 .UNSPECIFIED.);
#124=B_SPLINE_CURVE_WITH_KNOTS('',3,(#983,#984,#985,#986,#987),
 .UNSPECIFIED.,.F.,.F.,(4,1,4),(0.,0.0025426119354774,0.0050852238709548),
 .UNSPECIFIED.);
#125=B_SPLINE_CURVE_WITH_KNOTS('',3,(#998,#999,#1000,#1001),
 .UNSPECIFIED.,.F.,.F.,(4,4),(2.77555756156289E-17,0.0213346555185063),
 .UNSPECIFIED.);
#126=B_SPLINE_CURVE_WITH_KNOTS('',3,(#1007,#1008,#1009,#1010,#1011),
 .UNSPECIFIED.,.F.,.F.,(4,1,4),(0.00943763368333999,0.0110210170575552,
0.0126044004317704),.UNSPECIFIED.);
#127=B_SPLINE_CURVE_WITH_KNOTS('',3,(#1017,#1018,#1019,#1020),
 .UNSPECIFIED.,.F.,.F.,(4,4),(2.5018537765542E-17,0.0210542241518636),
 .UNSPECIFIED.);
#128=B_SPLINE_CURVE_WITH_KNOTS('',3,(#1026,#1027,#1028,#1029,#1030),
 .UNSPECIFIED.,.F.,.F.,(4,1,4),(0.00941646768237796,0.0109917418189974,
0.0125670159556169),.UNSPECIFIED.);
#129=B_SPLINE_CURVE_WITH_KNOTS('',3,(#1036,#1037,#1038,#1039),
 .UNSPECIFIED.,.F.,.F.,(4,4),(2.77555756156289E-17,0.0213386364915745),
 .UNSPECIFIED.);
#130=B_SPLINE_CURVE_WITH_KNOTS('',3,(#1045,#1046,#1047,#1048,#1049),
 .UNSPECIFIED.,.F.,.F.,(4,1,4),(0.00955076324090591,0.0111263974892347,
0.0127020317375635),.UNSPECIFIED.);
#131=B_SPLINE_CURVE_WITH_KNOTS('',3,(#1055,#1056,#1057,#1058),
 .UNSPECIFIED.,.F.,.F.,(4,4),(1.96261557335472E-17,0.021057480138029),
 .UNSPECIFIED.);
#132=B_SPLINE_CURVE_WITH_KNOTS('',3,(#1061,#1062,#1063,#1064,#1065),
 .UNSPECIFIED.,.F.,.F.,(4,1,4),(0.00959147233638289,0.0111664135222745,
0.0127413547081661),.UNSPECIFIED.);
#133=B_SPLINE_CURVE_WITH_KNOTS('',3,(#1141,#1142,#1143,#1144,#1145),
 .UNSPECIFIED.,.F.,.F.,(4,1,4),(0.,0.00312498577087708,0.00624997154175416),
 .UNSPECIFIED.);
#134=B_SPLINE_CURVE_WITH_KNOTS('',3,(#1148,#1149,#1150,#1151),
 .UNSPECIFIED.,.F.,.F.,(4,4),(0.,1.),.UNSPECIFIED.);
#135=B_SPLINE_CURVE_WITH_KNOTS('',3,(#1153,#1154,#1155,#1156,#1157),
 .UNSPECIFIED.,.F.,.F.,(4,1,4),(0.,0.0031321864844227,0.00626437296884539),
 .UNSPECIFIED.);
#136=B_SPLINE_CURVE_WITH_KNOTS('',3,(#1159,#1160,#1161,#1162),
 .UNSPECIFIED.,.F.,.F.,(4,4),(0.,0.00401244177835904),.UNSPECIFIED.);
#137=B_SPLINE_CURVE_WITH_KNOTS('',3,(#1164,#1165,#1166,#1167,#1168),
 .UNSPECIFIED.,.F.,.F.,(4,1,4),(0.,0.00311873915215496,0.00623747830430992),
 .UNSPECIFIED.);
#138=B_SPLINE_CURVE_WITH_KNOTS('',3,(#1170,#1171,#1172,#1173),
 .UNSPECIFIED.,.F.,.F.,(4,4),(0.,1.),.UNSPECIFIED.);
#139=B_SPLINE_CURVE_WITH_KNOTS('',3,(#1175,#1176,#1177,#1178,#1179),
 .UNSPECIFIED.,.F.,.F.,(4,1,4),(0.,0.00312284168953807,0.00624568337907615),
 .UNSPECIFIED.);
#140=B_SPLINE_CURVE_WITH_KNOTS('',3,(#1181,#1182,#1183,#1184),
 .UNSPECIFIED.,.F.,.F.,(4,4),(0.,0.0040127354776237),.UNSPECIFIED.);
#141=B_SPLINE_CURVE_WITH_KNOTS('',3,(#1186,#1187,#1188,#1189),
 .UNSPECIFIED.,.F.,.F.,(4,4),(0.,0.0040575965678076),.UNSPECIFIED.);
#142=B_SPLINE_CURVE_WITH_KNOTS('',3,(#1205,#1206,#1207,#1208),
 .UNSPECIFIED.,.F.,.F.,(4,4),(0.,0.00405794458499232),.UNSPECIFIED.);
#143=B_SPLINE_CURVE_WITH_KNOTS('',3,(#1215,#1216,#1217,#1218),
 .UNSPECIFIED.,.F.,.F.,(4,4),(0.,0.00400166564894368),.UNSPECIFIED.);
#144=B_SPLINE_CURVE_WITH_KNOTS('',3,(#1222,#1223,#1224,#1225),
 .UNSPECIFIED.,.F.,.F.,(4,4),(0.,0.00400158913824867),.UNSPECIFIED.);
#145=B_SPLINE_CURVE_WITH_KNOTS('',3,(#1263,#1264,#1265,#1266,#1267),
 .UNSPECIFIED.,.F.,.F.,(4,1,4),(0.,0.00159753023098196,0.00319506046196393),
 .UNSPECIFIED.);
#146=B_SPLINE_CURVE_WITH_KNOTS('',3,(#1283,#1284,#1285,#1286,#1287),
 .UNSPECIFIED.,.F.,.F.,(4,1,4),(0.,0.00161065068112608,0.00322130136225217),
 .UNSPECIFIED.);
#147=B_SPLINE_CURVE_WITH_KNOTS('',3,(#1303,#1304,#1305,#1306,#1307,#1308,
#1309),.UNSPECIFIED.,.F.,.F.,(4,1,1,1,4),(0.,0.000818707327490953,0.00163741465498191,
0.00245612198247286,0.00327482930996381),.UNSPECIFIED.);
#148=B_SPLINE_CURVE_WITH_KNOTS('',3,(#1314,#1315,#1316,#1317,#1318,#1319,
#1320),.UNSPECIFIED.,.F.,.F.,(4,1,1,1,4),(0.,0.000818707327490932,0.00163741465498186,
0.0024561219824728,0.00327482930996373),.UNSPECIFIED.);
#149=B_SPLINE_CURVE_WITH_KNOTS('',3,(#1363,#1364,#1365,#1366,#1367),
 .UNSPECIFIED.,.F.,.F.,(4,1,4),(0.,0.00162249301441575,0.00324498602883151),
 .UNSPECIFIED.);
#150=B_SPLINE_CURVE_WITH_KNOTS('',3,(#1427,#1428,#1429,#1430,#1431),
 .UNSPECIFIED.,.F.,.F.,(4,1,4),(3.10316769155909E-17,0.00160328507991619,
0.00320657015983235),.UNSPECIFIED.);
#151=B_SPLINE_CURVE_WITH_KNOTS('',3,(#1433,#1434,#1435,#1436,#1437,#1438,
#1439),.UNSPECIFIED.,.F.,.F.,(4,1,1,1,4),(0.,0.000818707327490935,0.00163741465498187,
0.0024561219824728,0.00327482930996374),.UNSPECIFIED.);
#152=B_SPLINE_CURVE_WITH_KNOTS('',3,(#1445,#1446,#1447,#1448,#1449,#1450,
#1451),.UNSPECIFIED.,.F.,.F.,(4,1,1,1,4),(0.,0.000818707327490968,0.00163741465498194,
0.0024561219824729,0.00327482930996387),.UNSPECIFIED.);
#153=ORIENTED_EDGE('',*,*,#353,.T.);
#154=ORIENTED_EDGE('',*,*,#354,.T.);
#155=ORIENTED_EDGE('',*,*,#355,.T.);
#156=ORIENTED_EDGE('',*,*,#356,.T.);
#157=ORIENTED_EDGE('',*,*,#357,.T.);
#158=ORIENTED_EDGE('',*,*,#358,.T.);
#159=ORIENTED_EDGE('',*,*,#359,.T.);
#160=ORIENTED_EDGE('',*,*,#360,.T.);
#161=ORIENTED_EDGE('',*,*,#361,.T.);
#162=ORIENTED_EDGE('',*,*,#362,.T.);
#163=ORIENTED_EDGE('',*,*,#363,.T.);
#164=ORIENTED_EDGE('',*,*,#364,.F.);
#165=ORIENTED_EDGE('',*,*,#365,.T.);
#166=ORIENTED_EDGE('',*,*,#364,.T.);
#167=ORIENTED_EDGE('',*,*,#366,.T.);
#168=ORIENTED_EDGE('',*,*,#367,.F.);
#169=ORIENTED_EDGE('',*,*,#368,.F.);
#170=ORIENTED_EDGE('',*,*,#367,.T.);
#171=ORIENTED_EDGE('',*,*,#369,.T.);
#172=ORIENTED_EDGE('',*,*,#370,.F.);
#173=ORIENTED_EDGE('',*,*,#371,.T.);
#174=ORIENTED_EDGE('',*,*,#370,.T.);
#175=ORIENTED_EDGE('',*,*,#372,.T.);
#176=ORIENTED_EDGE('',*,*,#373,.F.);
#177=ORIENTED_EDGE('',*,*,#374,.F.);
#178=ORIENTED_EDGE('',*,*,#373,.T.);
#179=ORIENTED_EDGE('',*,*,#375,.T.);
#180=ORIENTED_EDGE('',*,*,#376,.F.);
#181=ORIENTED_EDGE('',*,*,#377,.F.);
#182=ORIENTED_EDGE('',*,*,#376,.T.);
#183=ORIENTED_EDGE('',*,*,#378,.T.);
#184=ORIENTED_EDGE('',*,*,#379,.F.);
#185=ORIENTED_EDGE('',*,*,#380,.F.);
#186=ORIENTED_EDGE('',*,*,#379,.T.);
#187=ORIENTED_EDGE('',*,*,#381,.T.);
#188=ORIENTED_EDGE('',*,*,#382,.F.);
#189=ORIENTED_EDGE('',*,*,#383,.F.);
#190=ORIENTED_EDGE('',*,*,#382,.T.);
#191=ORIENTED_EDGE('',*,*,#384,.T.);
#192=ORIENTED_EDGE('',*,*,#362,.F.);
#193=ORIENTED_EDGE('',*,*,#385,.F.);
#194=ORIENTED_EDGE('',*,*,#386,.T.);
#195=ORIENTED_EDGE('',*,*,#387,.T.);
#196=ORIENTED_EDGE('',*,*,#388,.T.);
#197=ORIENTED_EDGE('',*,*,#389,.T.);
#198=ORIENTED_EDGE('',*,*,#390,.T.);
#199=ORIENTED_EDGE('',*,*,#391,.T.);
#200=ORIENTED_EDGE('',*,*,#392,.T.);
#201=ORIENTED_EDGE('',*,*,#393,.T.);
#202=ORIENTED_EDGE('',*,*,#394,.F.);
#203=ORIENTED_EDGE('',*,*,#395,.F.);
#204=ORIENTED_EDGE('',*,*,#396,.T.);
#205=ORIENTED_EDGE('',*,*,#397,.F.);
#206=ORIENTED_EDGE('',*,*,#398,.T.);
#207=ORIENTED_EDGE('',*,*,#399,.F.);
#208=ORIENTED_EDGE('',*,*,#400,.T.);
#209=ORIENTED_EDGE('',*,*,#401,.F.);
#210=ORIENTED_EDGE('',*,*,#402,.T.);
#211=ORIENTED_EDGE('',*,*,#365,.F.);
#212=ORIENTED_EDGE('',*,*,#368,.T.);
#213=ORIENTED_EDGE('',*,*,#371,.F.);
#214=ORIENTED_EDGE('',*,*,#374,.T.);
#215=ORIENTED_EDGE('',*,*,#377,.T.);
#216=ORIENTED_EDGE('',*,*,#380,.T.);
#217=ORIENTED_EDGE('',*,*,#383,.T.);
#218=ORIENTED_EDGE('',*,*,#385,.T.);
#219=ORIENTED_EDGE('',*,*,#403,.T.);
#220=ORIENTED_EDGE('',*,*,#404,.T.);
#221=ORIENTED_EDGE('',*,*,#405,.T.);
#222=ORIENTED_EDGE('',*,*,#406,.T.);
#223=ORIENTED_EDGE('',*,*,#407,.T.);
#224=ORIENTED_EDGE('',*,*,#408,.T.);
#225=ORIENTED_EDGE('',*,*,#409,.T.);
#226=ORIENTED_EDGE('',*,*,#410,.T.);
#227=ORIENTED_EDGE('',*,*,#411,.T.);
#228=ORIENTED_EDGE('',*,*,#412,.T.);
#229=ORIENTED_EDGE('',*,*,#413,.T.);
#230=ORIENTED_EDGE('',*,*,#414,.T.);
#231=ORIENTED_EDGE('',*,*,#415,.T.);
#232=ORIENTED_EDGE('',*,*,#416,.T.);
#233=ORIENTED_EDGE('',*,*,#417,.T.);
#234=ORIENTED_EDGE('',*,*,#418,.T.);
#235=ORIENTED_EDGE('',*,*,#419,.F.);
#236=ORIENTED_EDGE('',*,*,#400,.F.);
#237=ORIENTED_EDGE('',*,*,#420,.F.);
#238=ORIENTED_EDGE('',*,*,#415,.F.);
#239=ORIENTED_EDGE('',*,*,#420,.T.);
#240=ORIENTED_EDGE('',*,*,#399,.T.);
#241=ORIENTED_EDGE('',*,*,#421,.F.);
#242=ORIENTED_EDGE('',*,*,#422,.F.);
#243=ORIENTED_EDGE('',*,*,#401,.T.);
#244=ORIENTED_EDGE('',*,*,#419,.T.);
#245=ORIENTED_EDGE('',*,*,#423,.F.);
#246=ORIENTED_EDGE('',*,*,#424,.F.);
#247=ORIENTED_EDGE('',*,*,#421,.T.);
#248=ORIENTED_EDGE('',*,*,#398,.F.);
#249=ORIENTED_EDGE('',*,*,#425,.F.);
#250=ORIENTED_EDGE('',*,*,#403,.F.);
#251=ORIENTED_EDGE('',*,*,#422,.T.);
#252=ORIENTED_EDGE('',*,*,#406,.F.);
#253=ORIENTED_EDGE('',*,*,#426,.F.);
#254=ORIENTED_EDGE('',*,*,#416,.F.);
#255=ORIENTED_EDGE('',*,*,#427,.F.);
#256=ORIENTED_EDGE('',*,*,#417,.F.);
#257=ORIENTED_EDGE('',*,*,#428,.F.);
#258=ORIENTED_EDGE('',*,*,#355,.F.);
#259=ORIENTED_EDGE('',*,*,#423,.T.);
#260=ORIENTED_EDGE('',*,*,#418,.F.);
#261=ORIENTED_EDGE('',*,*,#429,.F.);
#262=ORIENTED_EDGE('',*,*,#407,.F.);
#263=ORIENTED_EDGE('',*,*,#424,.T.);
#264=ORIENTED_EDGE('',*,*,#410,.F.);
#265=ORIENTED_EDGE('',*,*,#430,.F.);
#266=ORIENTED_EDGE('',*,*,#402,.F.);
#267=ORIENTED_EDGE('',*,*,#431,.F.);
#268=ORIENTED_EDGE('',*,*,#396,.F.);
#269=ORIENTED_EDGE('',*,*,#432,.F.);
#270=ORIENTED_EDGE('',*,*,#413,.F.);
#271=ORIENTED_EDGE('',*,*,#397,.T.);
#272=ORIENTED_EDGE('',*,*,#431,.T.);
#273=ORIENTED_EDGE('',*,*,#433,.F.);
#274=ORIENTED_EDGE('',*,*,#425,.T.);
#275=ORIENTED_EDGE('',*,*,#428,.T.);
#276=ORIENTED_EDGE('',*,*,#426,.T.);
#277=ORIENTED_EDGE('',*,*,#434,.F.);
#278=ORIENTED_EDGE('',*,*,#356,.F.);
#279=ORIENTED_EDGE('',*,*,#427,.T.);
#280=ORIENTED_EDGE('',*,*,#354,.F.);
#281=ORIENTED_EDGE('',*,*,#435,.F.);
#282=ORIENTED_EDGE('',*,*,#429,.T.);
#283=ORIENTED_EDGE('',*,*,#395,.T.);
#284=ORIENTED_EDGE('',*,*,#430,.T.);
#285=ORIENTED_EDGE('',*,*,#436,.F.);
#286=ORIENTED_EDGE('',*,*,#432,.T.);
#287=ORIENTED_EDGE('',*,*,#433,.T.);
#288=ORIENTED_EDGE('',*,*,#412,.F.);
#289=ORIENTED_EDGE('',*,*,#437,.F.);
#290=ORIENTED_EDGE('',*,*,#404,.F.);
#291=ORIENTED_EDGE('',*,*,#434,.T.);
#292=ORIENTED_EDGE('',*,*,#405,.F.);
#293=ORIENTED_EDGE('',*,*,#438,.F.);
#294=ORIENTED_EDGE('',*,*,#357,.F.);
#295=ORIENTED_EDGE('',*,*,#435,.T.);
#296=ORIENTED_EDGE('',*,*,#353,.F.);
#297=ORIENTED_EDGE('',*,*,#439,.F.);
#298=ORIENTED_EDGE('',*,*,#408,.F.);
#299=ORIENTED_EDGE('',*,*,#436,.T.);
#300=ORIENTED_EDGE('',*,*,#409,.F.);
#301=ORIENTED_EDGE('',*,*,#440,.F.);
#302=ORIENTED_EDGE('',*,*,#414,.F.);
#303=ORIENTED_EDGE('',*,*,#438,.T.);
#304=ORIENTED_EDGE('',*,*,#437,.T.);
#305=ORIENTED_EDGE('',*,*,#441,.F.);
#306=ORIENTED_EDGE('',*,*,#358,.F.);
#307=ORIENTED_EDGE('',*,*,#439,.T.);
#308=ORIENTED_EDGE('',*,*,#360,.F.);
#309=ORIENTED_EDGE('',*,*,#442,.F.);
#310=ORIENTED_EDGE('',*,*,#440,.T.);
#311=ORIENTED_EDGE('',*,*,#441,.T.);
#312=ORIENTED_EDGE('',*,*,#411,.F.);
#313=ORIENTED_EDGE('',*,*,#442,.T.);
#314=ORIENTED_EDGE('',*,*,#359,.F.);
#315=ORIENTED_EDGE('',*,*,#443,.F.);
#316=ORIENTED_EDGE('',*,*,#394,.T.);
#317=ORIENTED_EDGE('',*,*,#443,.T.);
#318=ORIENTED_EDGE('',*,*,#444,.F.);
#319=ORIENTED_EDGE('',*,*,#361,.F.);
#320=ORIENTED_EDGE('',*,*,#444,.T.);
#321=ORIENTED_EDGE('',*,*,#445,.F.);
#322=ORIENTED_EDGE('',*,*,#391,.F.);
#323=ORIENTED_EDGE('',*,*,#446,.F.);
#324=ORIENTED_EDGE('',*,*,#366,.F.);
#325=ORIENTED_EDGE('',*,*,#446,.T.);
#326=ORIENTED_EDGE('',*,*,#390,.F.);
#327=ORIENTED_EDGE('',*,*,#447,.F.);
#328=ORIENTED_EDGE('',*,*,#369,.F.);
#329=ORIENTED_EDGE('',*,*,#445,.T.);
#330=ORIENTED_EDGE('',*,*,#363,.F.);
#331=ORIENTED_EDGE('',*,*,#448,.F.);
#332=ORIENTED_EDGE('',*,*,#392,.F.);
#333=ORIENTED_EDGE('',*,*,#447,.T.);
#334=ORIENTED_EDGE('',*,*,#389,.F.);
#335=ORIENTED_EDGE('',*,*,#449,.F.);
#336=ORIENTED_EDGE('',*,*,#372,.F.);
#337=ORIENTED_EDGE('',*,*,#448,.T.);
#338=ORIENTED_EDGE('',*,*,#384,.F.);
#339=ORIENTED_EDGE('',*,*,#450,.F.);
#340=ORIENTED_EDGE('',*,*,#393,.F.);
#341=ORIENTED_EDGE('',*,*,#449,.T.);
#342=ORIENTED_EDGE('',*,*,#388,.F.);
#343=ORIENTED_EDGE('',*,*,#451,.F.);
#344=ORIENTED_EDGE('',*,*,#375,.F.);
#345=ORIENTED_EDGE('',*,*,#450,.T.);
#346=ORIENTED_EDGE('',*,*,#381,.F.);
#347=ORIENTED_EDGE('',*,*,#452,.F.);
#348=ORIENTED_EDGE('',*,*,#386,.F.);
#349=ORIENTED_EDGE('',*,*,#451,.T.);
#350=ORIENTED_EDGE('',*,*,#387,.F.);
#351=ORIENTED_EDGE('',*,*,#452,.T.);
#352=ORIENTED_EDGE('',*,*,#378,.F.);
#353=EDGE_CURVE('',#453,#454,#513,.F.);
#354=EDGE_CURVE('',#454,#455,#121,.F.);
#355=EDGE_CURVE('',#455,#456,#514,.F.);
#356=EDGE_CURVE('',#456,#457,#122,.F.);
#357=EDGE_CURVE('',#457,#458,#515,.F.);
#358=EDGE_CURVE('',#458,#459,#123,.F.);
#359=EDGE_CURVE('',#459,#460,#516,.F.);
#360=EDGE_CURVE('',#460,#453,#124,.F.);
#361=EDGE_CURVE('',#461,#461,#517,.T.);
#362=EDGE_CURVE('',#462,#463,#43,.T.);
#363=EDGE_CURVE('',#463,#464,#44,.T.);
#364=EDGE_CURVE('',#465,#464,#45,.T.);
#365=EDGE_CURVE('',#465,#462,#125,.T.);
#366=EDGE_CURVE('',#464,#466,#518,.T.);
#367=EDGE_CURVE('',#467,#466,#46,.T.);
#368=EDGE_CURVE('',#465,#467,#126,.F.);
#369=EDGE_CURVE('',#466,#468,#47,.T.);
#370=EDGE_CURVE('',#469,#468,#48,.T.);
#371=EDGE_CURVE('',#469,#467,#127,.T.);
#372=EDGE_CURVE('',#468,#470,#519,.T.);
#373=EDGE_CURVE('',#471,#470,#49,.T.);
#374=EDGE_CURVE('',#469,#471,#128,.F.);
#375=EDGE_CURVE('',#470,#472,#50,.T.);
#376=EDGE_CURVE('',#473,#472,#51,.T.);
#377=EDGE_CURVE('',#471,#473,#129,.T.);
#378=EDGE_CURVE('',#472,#474,#520,.T.);
#379=EDGE_CURVE('',#475,#474,#52,.T.);
#380=EDGE_CURVE('',#473,#475,#130,.F.);
#381=EDGE_CURVE('',#474,#476,#53,.T.);
#382=EDGE_CURVE('',#477,#476,#54,.T.);
#383=EDGE_CURVE('',#475,#477,#131,.T.);
#384=EDGE_CURVE('',#476,#463,#521,.T.);
#385=EDGE_CURVE('',#477,#462,#132,.F.);
#386=EDGE_CURVE('',#478,#479,#55,.T.);
#387=EDGE_CURVE('',#479,#480,#522,.F.);
#388=EDGE_CURVE('',#480,#481,#56,.T.);
#389=EDGE_CURVE('',#481,#482,#523,.F.);
#390=EDGE_CURVE('',#482,#483,#57,.T.);
#391=EDGE_CURVE('',#483,#484,#524,.F.);
#392=EDGE_CURVE('',#484,#485,#58,.T.);
#393=EDGE_CURVE('',#485,#478,#525,.F.);
#394=EDGE_CURVE('',#486,#486,#526,.F.);
#395=EDGE_CURVE('',#487,#488,#133,.T.);
#396=EDGE_CURVE('',#487,#489,#134,.T.);
#397=EDGE_CURVE('',#490,#489,#135,.T.);
#398=EDGE_CURVE('',#490,#491,#136,.T.);
#399=EDGE_CURVE('',#492,#491,#137,.T.);
#400=EDGE_CURVE('',#492,#493,#138,.T.);
#401=EDGE_CURVE('',#494,#493,#139,.T.);
#402=EDGE_CURVE('',#494,#488,#140,.T.);
#403=EDGE_CURVE('',#495,#496,#141,.T.);
#404=EDGE_CURVE('',#496,#497,#59,.F.);
#405=EDGE_CURVE('',#497,#498,#527,.T.);
#406=EDGE_CURVE('',#498,#495,#60,.T.);
#407=EDGE_CURVE('',#499,#500,#61,.T.);
#408=EDGE_CURVE('',#500,#501,#528,.T.);
#409=EDGE_CURVE('',#501,#502,#62,.F.);
#410=EDGE_CURVE('',#502,#499,#142,.T.);
#411=EDGE_CURVE('',#503,#504,#529,.F.);
#412=EDGE_CURVE('',#504,#505,#63,.T.);
#413=EDGE_CURVE('',#505,#506,#143,.T.);
#414=EDGE_CURVE('',#506,#503,#64,.T.);
#415=EDGE_CURVE('',#507,#508,#144,.T.);
#416=EDGE_CURVE('',#508,#509,#65,.F.);
#417=EDGE_CURVE('',#509,#510,#530,.T.);
#418=EDGE_CURVE('',#510,#507,#66,.F.);
#419=EDGE_CURVE('',#493,#507,#531,.T.);
#420=EDGE_CURVE('',#508,#492,#532,.T.);
#421=EDGE_CURVE('',#495,#491,#533,.F.);
#422=EDGE_CURVE('',#508,#495,#145,.F.);
#423=EDGE_CURVE('',#499,#507,#146,.F.);
#424=EDGE_CURVE('',#494,#499,#534,.F.);
#425=EDGE_CURVE('',#496,#490,#535,.T.);
#426=EDGE_CURVE('',#509,#498,#147,.T.);
#427=EDGE_CURVE('',#510,#455,#536,.T.);
#428=EDGE_CURVE('',#456,#509,#537,.T.);
#429=EDGE_CURVE('',#500,#510,#148,.T.);
#430=EDGE_CURVE('',#488,#502,#538,.T.);
#431=EDGE_CURVE('',#489,#505,#539,.T.);
#432=EDGE_CURVE('',#506,#487,#540,.T.);
#433=EDGE_CURVE('',#496,#505,#149,.F.);
#434=EDGE_CURVE('',#457,#498,#541,.F.);
#435=EDGE_CURVE('',#500,#454,#542,.F.);
#436=EDGE_CURVE('',#506,#502,#150,.F.);
#437=EDGE_CURVE('',#497,#504,#151,.T.);
#438=EDGE_CURVE('',#458,#497,#543,.T.);
#439=EDGE_CURVE('',#501,#453,#544,.T.);
#440=EDGE_CURVE('',#503,#501,#152,.T.);
#441=EDGE_CURVE('',#459,#504,#545,.F.);
#442=EDGE_CURVE('',#503,#460,#546,.F.);
#443=EDGE_CURVE('',#511,#511,#547,.T.);
#444=EDGE_CURVE('',#512,#512,#548,.T.);
#445=EDGE_CURVE('',#484,#464,#67,.T.);
#446=EDGE_CURVE('',#466,#483,#68,.T.);
#447=EDGE_CURVE('',#468,#482,#69,.T.);
#448=EDGE_CURVE('',#485,#463,#70,.T.);
#449=EDGE_CURVE('',#470,#481,#71,.T.);
#450=EDGE_CURVE('',#478,#476,#72,.T.);
#451=EDGE_CURVE('',#472,#480,#73,.T.);
#452=EDGE_CURVE('',#479,#474,#74,.T.);
#453=VERTEX_POINT('',#957);
#454=VERTEX_POINT('',#958);
#455=VERTEX_POINT('',#964);
#456=VERTEX_POINT('',#966);
#457=VERTEX_POINT('',#972);
#458=VERTEX_POINT('',#974);
#459=VERTEX_POINT('',#980);
#460=VERTEX_POINT('',#982);
#461=VERTEX_POINT('',#989);
#462=VERTEX_POINT('',#992);
#463=VERTEX_POINT('',#993);
#464=VERTEX_POINT('',#995);
#465=VERTEX_POINT('',#997);
#466=VERTEX_POINT('',#1004);
#467=VERTEX_POINT('',#1006);
#468=VERTEX_POINT('',#1014);
#469=VERTEX_POINT('',#1016);
#470=VERTEX_POINT('',#1023);
#471=VERTEX_POINT('',#1025);
#472=VERTEX_POINT('',#1033);
#473=VERTEX_POINT('',#1035);
#474=VERTEX_POINT('',#1042);
#475=VERTEX_POINT('',#1044);
#476=VERTEX_POINT('',#1052);
#477=VERTEX_POINT('',#1054);
#478=VERTEX_POINT('',#1068);
#479=VERTEX_POINT('',#1069);
#480=VERTEX_POINT('',#1071);
#481=VERTEX_POINT('',#1073);
#482=VERTEX_POINT('',#1075);
#483=VERTEX_POINT('',#1077);
#484=VERTEX_POINT('',#1079);
#485=VERTEX_POINT('',#1081);
#486=VERTEX_POINT('',#1084);
#487=VERTEX_POINT('',#1146);
#488=VERTEX_POINT('',#1147);
#489=VERTEX_POINT('',#1152);
#490=VERTEX_POINT('',#1158);
#491=VERTEX_POINT('',#1163);
#492=VERTEX_POINT('',#1169);
#493=VERTEX_POINT('',#1174);
#494=VERTEX_POINT('',#1180);
#495=VERTEX_POINT('',#1190);
#496=VERTEX_POINT('',#1191);
#497=VERTEX_POINT('',#1193);
#498=VERTEX_POINT('',#1195);
#499=VERTEX_POINT('',#1199);
#500=VERTEX_POINT('',#1200);
#501=VERTEX_POINT('',#1202);
#502=VERTEX_POINT('',#1204);
#503=VERTEX_POINT('',#1211);
#504=VERTEX_POINT('',#1212);
#505=VERTEX_POINT('',#1214);
#506=VERTEX_POINT('',#1219);
#507=VERTEX_POINT('',#1226);
#508=VERTEX_POINT('',#1227);
#509=VERTEX_POINT('',#1229);
#510=VERTEX_POINT('',#1231);
#511=VERTEX_POINT('',#1499);
#512=VERTEX_POINT('',#1502);
#513=CIRCLE('',#714,0.0064);
#514=CIRCLE('',#715,0.0064);
#515=CIRCLE('',#716,0.0064);
#516=CIRCLE('',#717,0.0064);
#517=CIRCLE('',#718,0.00275);
#518=CIRCLE('',#721,0.002);
#519=CIRCLE('',#724,0.002);
#520=CIRCLE('',#727,0.002);
#521=CIRCLE('',#730,0.002);
#522=CIRCLE('',#732,0.0015);
#523=CIRCLE('',#733,0.0015);
#524=CIRCLE('',#734,0.0015);
#525=CIRCLE('',#735,0.0015);
#526=CIRCLE('',#736,0.00135);
#527=CIRCLE('',#738,0.008);
#528=CIRCLE('',#740,0.008);
#529=CIRCLE('',#742,0.008);
#530=CIRCLE('',#744,0.008);
#531=CIRCLE('',#745,0.002);
#532=CIRCLE('',#746,0.002);
#533=CIRCLE('',#747,0.002);
#534=CIRCLE('',#748,0.002);
#535=CIRCLE('',#749,0.002);
#536=CIRCLE('',#752,0.002);
#537=CIRCLE('',#753,0.002);
#538=CIRCLE('',#755,0.002);
#539=CIRCLE('',#756,0.002);
#540=CIRCLE('',#757,0.002);
#541=CIRCLE('',#758,0.002);
#542=CIRCLE('',#759,0.002);
#543=CIRCLE('',#762,0.002);
#544=CIRCLE('',#764,0.002);
#545=CIRCLE('',#766,0.002);
#546=CIRCLE('',#767,0.002);
#547=CIRCLE('',#770,0.00135);
#548=CIRCLE('',#772,0.00275);
#549=EDGE_LOOP('',(#153,#154,#155,#156,#157,#158,#159,#160));
#550=EDGE_LOOP('',(#161));
#551=EDGE_LOOP('',(#162,#163,#164,#165));
#552=EDGE_LOOP('',(#166,#167,#168,#169));
#553=EDGE_LOOP('',(#170,#171,#172,#173));
#554=EDGE_LOOP('',(#174,#175,#176,#177));
#555=EDGE_LOOP('',(#178,#179,#180,#181));
#556=EDGE_LOOP('',(#182,#183,#184,#185));
#557=EDGE_LOOP('',(#186,#187,#188,#189));
#558=EDGE_LOOP('',(#190,#191,#192,#193));
#559=EDGE_LOOP('',(#194,#195,#196,#197,#198,#199,#200,#201));
#560=EDGE_LOOP('',(#202));
#561=EDGE_LOOP('',(#203,#204,#205,#206,#207,#208,#209,#210));
#562=EDGE_LOOP('',(#211,#212,#213,#214,#215,#216,#217,#218));
#563=EDGE_LOOP('',(#219,#220,#221,#222));
#564=EDGE_LOOP('',(#223,#224,#225,#226));
#565=EDGE_LOOP('',(#227,#228,#229,#230));
#566=EDGE_LOOP('',(#231,#232,#233,#234));
#567=EDGE_LOOP('',(#235,#236,#237,#238));
#568=EDGE_LOOP('',(#239,#240,#241,#242));
#569=EDGE_LOOP('',(#243,#244,#245,#246));
#570=EDGE_LOOP('',(#247,#248,#249,#250));
#571=EDGE_LOOP('',(#251,#252,#253,#254));
#572=EDGE_LOOP('',(#255,#256,#257,#258));
#573=EDGE_LOOP('',(#259,#260,#261,#262));
#574=EDGE_LOOP('',(#263,#264,#265,#266));
#575=EDGE_LOOP('',(#267,#268,#269,#270));
#576=EDGE_LOOP('',(#271,#272,#273,#274));
#577=EDGE_LOOP('',(#275,#276,#277,#278));
#578=EDGE_LOOP('',(#279,#280,#281,#282));
#579=EDGE_LOOP('',(#283,#284,#285,#286));
#580=EDGE_LOOP('',(#287,#288,#289,#290));
#581=EDGE_LOOP('',(#291,#292,#293,#294));
#582=EDGE_LOOP('',(#295,#296,#297,#298));
#583=EDGE_LOOP('',(#299,#300,#301,#302));
#584=EDGE_LOOP('',(#303,#304,#305,#306));
#585=EDGE_LOOP('',(#307,#308,#309,#310));
#586=EDGE_LOOP('',(#311,#312,#313,#314));
#587=EDGE_LOOP('',(#315));
#588=EDGE_LOOP('',(#316));
#589=EDGE_LOOP('',(#317));
#590=EDGE_LOOP('',(#318));
#591=EDGE_LOOP('',(#319));
#592=EDGE_LOOP('',(#320));
#593=EDGE_LOOP('',(#321,#322,#323,#324));
#594=EDGE_LOOP('',(#325,#326,#327,#328));
#595=EDGE_LOOP('',(#329,#330,#331,#332));
#596=EDGE_LOOP('',(#333,#334,#335,#336));
#597=EDGE_LOOP('',(#337,#338,#339,#340));
#598=EDGE_LOOP('',(#341,#342,#343,#344));
#599=EDGE_LOOP('',(#345,#346,#347,#348));
#600=EDGE_LOOP('',(#349,#350,#351,#352));
#601=FACE_BOUND('',#549,.T.);
#602=FACE_BOUND('',#550,.T.);
#603=FACE_BOUND('',#551,.T.);
#604=FACE_BOUND('',#552,.T.);
#605=FACE_BOUND('',#553,.T.);
#606=FACE_BOUND('',#554,.T.);
#607=FACE_BOUND('',#555,.T.);
#608=FACE_BOUND('',#556,.T.);
#609=FACE_BOUND('',#557,.T.);
#610=FACE_BOUND('',#558,.T.);
#611=FACE_BOUND('',#559,.T.);
#612=FACE_BOUND('',#560,.T.);
#613=FACE_BOUND('',#561,.T.);
#614=FACE_BOUND('',#562,.T.);
#615=FACE_BOUND('',#563,.T.);
#616=FACE_BOUND('',#564,.T.);
#617=FACE_BOUND('',#565,.T.);
#618=FACE_BOUND('',#566,.T.);
#619=FACE_BOUND('',#567,.T.);
#620=FACE_BOUND('',#568,.T.);
#621=FACE_BOUND('',#569,.T.);
#622=FACE_BOUND('',#570,.T.);
#623=FACE_BOUND('',#571,.T.);
#624=FACE_BOUND('',#572,.T.);
#625=FACE_BOUND('',#573,.T.);
#626=FACE_BOUND('',#574,.T.);
#627=FACE_BOUND('',#575,.T.);
#628=FACE_BOUND('',#576,.T.);
#629=FACE_BOUND('',#577,.T.);
#630=FACE_BOUND('',#578,.T.);
#631=FACE_BOUND('',#579,.T.);
#632=FACE_BOUND('',#580,.T.);
#633=FACE_BOUND('',#581,.T.);
#634=FACE_BOUND('',#582,.T.);
#635=FACE_BOUND('',#583,.T.);
#636=FACE_BOUND('',#584,.T.);
#637=FACE_BOUND('',#585,.T.);
#638=FACE_BOUND('',#586,.T.);
#639=FACE_BOUND('',#587,.T.);
#640=FACE_BOUND('',#588,.T.);
#641=FACE_BOUND('',#589,.T.);
#642=FACE_BOUND('',#590,.T.);
#643=FACE_BOUND('',#591,.T.);
#644=FACE_BOUND('',#592,.T.);
#645=FACE_BOUND('',#593,.T.);
#646=FACE_BOUND('',#594,.T.);
#647=FACE_BOUND('',#595,.T.);
#648=FACE_BOUND('',#596,.T.);
#649=FACE_BOUND('',#597,.T.);
#650=FACE_BOUND('',#598,.T.);
#651=FACE_BOUND('',#599,.T.);
#652=FACE_BOUND('',#600,.T.);
#653=SPHERICAL_SURFACE('',#713,0.008);
#654=ADVANCED_FACE('',(#601,#602),#653,.T.);
#655=ADVANCED_FACE('',(#603),#107,.T.);
#656=ADVANCED_FACE('',(#604),#33,.T.);
#657=ADVANCED_FACE('',(#605),#108,.T.);
#658=ADVANCED_FACE('',(#606),#34,.T.);
#659=ADVANCED_FACE('',(#607),#109,.F.);
#660=ADVANCED_FACE('',(#608),#35,.T.);
#661=ADVANCED_FACE('',(#609),#110,.F.);
#662=ADVANCED_FACE('',(#610),#36,.T.);
#663=ADVANCED_FACE('',(#611,#612),#111,.F.);
#664=ADVANCED_FACE('',(#613,#614),#32,.F.);
#665=ADVANCED_FACE('',(#615),#112,.F.);
#666=ADVANCED_FACE('',(#616),#113,.F.);
#667=ADVANCED_FACE('',(#617),#114,.T.);
#668=ADVANCED_FACE('',(#618),#115,.F.);
#669=ADVANCED_FACE('',(#619),#20,.F.);
#670=ADVANCED_FACE('',(#620),#21,.F.);
#671=ADVANCED_FACE('',(#621),#22,.F.);
#672=ADVANCED_FACE('',(#622),#23,.F.);
#673=ADVANCED_FACE('',(#623),#37,.T.);
#674=ADVANCED_FACE('',(#624),#16,.F.);
#675=ADVANCED_FACE('',(#625),#38,.T.);
#676=ADVANCED_FACE('',(#626),#24,.F.);
#677=ADVANCED_FACE('',(#627),#25,.F.);
#678=ADVANCED_FACE('',(#628),#26,.F.);
#679=ADVANCED_FACE('',(#629),#27,.F.);
#680=ADVANCED_FACE('',(#630),#28,.F.);
#681=ADVANCED_FACE('',(#631),#29,.F.);
#682=ADVANCED_FACE('',(#632),#39,.T.);
#683=ADVANCED_FACE('',(#633),#17,.F.);
#684=ADVANCED_FACE('',(#634),#18,.F.);
#685=ADVANCED_FACE('',(#635),#40,.T.);
#686=ADVANCED_FACE('',(#636),#30,.F.);
#687=ADVANCED_FACE('',(#637),#31,.F.);
#688=ADVANCED_FACE('',(#638),#19,.F.);
#689=ADVANCED_FACE('',(#639,#640),#41,.F.);
#690=ADVANCED_FACE('',(#641,#642),#116,.T.);
#691=ADVANCED_FACE('',(#643,#644),#42,.F.);
#692=ADVANCED_FACE('',(#645),#12,.T.);
#693=ADVANCED_FACE('',(#646),#117,.T.);
#694=ADVANCED_FACE('',(#647),#118,.T.);
#695=ADVANCED_FACE('',(#648),#13,.T.);
#696=ADVANCED_FACE('',(#649),#14,.T.);
#697=ADVANCED_FACE('',(#650),#119,.F.);
#698=ADVANCED_FACE('',(#651),#120,.F.);
#699=ADVANCED_FACE('',(#652),#15,.T.);
#700=CLOSED_SHELL('',(#654,#655,#656,#657,#658,#659,#660,#661,#662,#663,
#664,#665,#666,#667,#668,#669,#670,#671,#672,#673,#674,#675,#676,#677,#678,
#679,#680,#681,#682,#683,#684,#685,#686,#687,#688,#689,#690,#691,#692,#693,
#694,#695,#696,#697,#698,#699));
#701=STYLED_ITEM('',(#702),#709);
#702=PRESENTATION_STYLE_ASSIGNMENT((#703));
#703=SURFACE_STYLE_USAGE(.BOTH.,#704);
#704=SURFACE_SIDE_STYLE('',(#705));
#705=SURFACE_STYLE_FILL_AREA(#706);
#706=FILL_AREA_STYLE('',(#707));
#707=FILL_AREA_STYLE_COLOUR('',#708);
#708=COLOUR_RGB('',0.992156862745098,0.847058823529412,0.207843137254902);
#709=MANIFOLD_SOLID_BREP('fix_block_r',#700);
#710=SHAPE_DEFINITION_REPRESENTATION(#1526,#711);
#711=SHAPE_REPRESENTATION('fix_block_r',(#712),#1521);
#712=AXIS2_PLACEMENT_3D('',#954,#782,#783);
#713=AXIS2_PLACEMENT_3D('',#955,#784,#785);
#714=AXIS2_PLACEMENT_3D('',#956,#786,#787);
#715=AXIS2_PLACEMENT_3D('',#965,#788,#789);
#716=AXIS2_PLACEMENT_3D('',#973,#790,#791);
#717=AXIS2_PLACEMENT_3D('',#981,#792,#793);
#718=AXIS2_PLACEMENT_3D('',#988,#794,#795);
#719=AXIS2_PLACEMENT_3D('',#990,#796,#797);
#720=AXIS2_PLACEMENT_3D('',#1002,#801,#802);
#721=AXIS2_PLACEMENT_3D('',#1003,#803,#804);
#722=AXIS2_PLACEMENT_3D('',#1012,#806,#807);
#723=AXIS2_PLACEMENT_3D('',#1021,#810,#811);
#724=AXIS2_PLACEMENT_3D('',#1022,#812,#813);
#725=AXIS2_PLACEMENT_3D('',#1031,#815,#816);
#726=AXIS2_PLACEMENT_3D('',#1040,#819,#820);
#727=AXIS2_PLACEMENT_3D('',#1041,#821,#822);
#728=AXIS2_PLACEMENT_3D('',#1050,#824,#825);
#729=AXIS2_PLACEMENT_3D('',#1059,#828,#829);
#730=AXIS2_PLACEMENT_3D('',#1060,#830,#831);
#731=AXIS2_PLACEMENT_3D('',#1066,#832,#833);
#732=AXIS2_PLACEMENT_3D('',#1070,#835,#836);
#733=AXIS2_PLACEMENT_3D('',#1074,#838,#839);
#734=AXIS2_PLACEMENT_3D('',#1078,#841,#842);
#735=AXIS2_PLACEMENT_3D('',#1082,#844,#845);
#736=AXIS2_PLACEMENT_3D('',#1083,#846,#847);
#737=AXIS2_PLACEMENT_3D('',#1185,#848,#849);
#738=AXIS2_PLACEMENT_3D('',#1194,#851,#852);
#739=AXIS2_PLACEMENT_3D('',#1197,#854,#855);
#740=AXIS2_PLACEMENT_3D('',#1201,#857,#858);
#741=AXIS2_PLACEMENT_3D('',#1209,#860,#861);
#742=AXIS2_PLACEMENT_3D('',#1210,#862,#863);
#743=AXIS2_PLACEMENT_3D('',#1221,#866,#867);
#744=AXIS2_PLACEMENT_3D('',#1230,#869,#870);
#745=AXIS2_PLACEMENT_3D('',#1245,#872,#873);
#746=AXIS2_PLACEMENT_3D('',#1246,#874,#875);
#747=AXIS2_PLACEMENT_3D('',#1262,#876,#877);
#748=AXIS2_PLACEMENT_3D('',#1288,#878,#879);
#749=AXIS2_PLACEMENT_3D('',#1301,#880,#881);
#750=AXIS2_PLACEMENT_3D('',#1302,#882,#883);
#751=AXIS2_PLACEMENT_3D('',#1310,#884,#885);
#752=AXIS2_PLACEMENT_3D('',#1311,#886,#887);
#753=AXIS2_PLACEMENT_3D('',#1312,#888,#889);
#754=AXIS2_PLACEMENT_3D('',#1313,#890,#891);
#755=AXIS2_PLACEMENT_3D('',#1333,#892,#893);
#756=AXIS2_PLACEMENT_3D('',#1346,#894,#895);
#757=AXIS2_PLACEMENT_3D('',#1347,#896,#897);
#758=AXIS2_PLACEMENT_3D('',#1389,#898,#899);
#759=AXIS2_PLACEMENT_3D('',#1411,#900,#901);
#760=AXIS2_PLACEMENT_3D('',#1432,#902,#903);
#761=AXIS2_PLACEMENT_3D('',#1440,#904,#905);
#762=AXIS2_PLACEMENT_3D('',#1441,#906,#907);
#763=AXIS2_PLACEMENT_3D('',#1442,#908,#909);
#764=AXIS2_PLACEMENT_3D('',#1443,#910,#911);
#765=AXIS2_PLACEMENT_3D('',#1444,#912,#913);
#766=AXIS2_PLACEMENT_3D('',#1473,#914,#915);
#767=AXIS2_PLACEMENT_3D('',#1495,#916,#917);
#768=AXIS2_PLACEMENT_3D('',#1496,#918,#919);
#769=AXIS2_PLACEMENT_3D('',#1497,#920,#921);
#770=AXIS2_PLACEMENT_3D('',#1498,#922,#923);
#771=AXIS2_PLACEMENT_3D('',#1500,#924,#925);
#772=AXIS2_PLACEMENT_3D('',#1501,#926,#927);
#773=AXIS2_PLACEMENT_3D('',#1503,#928,#929);
#774=AXIS2_PLACEMENT_3D('',#1504,#930,#931);
#775=AXIS2_PLACEMENT_3D('',#1507,#934,#935);
#776=AXIS2_PLACEMENT_3D('',#1509,#937,#938);
#777=AXIS2_PLACEMENT_3D('',#1511,#940,#941);
#778=AXIS2_PLACEMENT_3D('',#1513,#943,#944);
#779=AXIS2_PLACEMENT_3D('',#1515,#946,#947);
#780=AXIS2_PLACEMENT_3D('',#1517,#949,#950);
#781=AXIS2_PLACEMENT_3D('',#1519,#952,#953);
#782=DIRECTION('',(0.,0.,1.));
#783=DIRECTION('',(1.,0.,0.));
#784=DIRECTION('',(-0.866025403784439,0.,-0.5));
#785=DIRECTION('',(0.5,-3.69184410520861E-17,-0.866025403784439));
#786=DIRECTION('',(0.866025403784439,2.13611140517839E-16,0.5));
#787=DIRECTION('',(0.5,0.,-0.866025403784439));
#788=DIRECTION('',(-1.66533453693773E-16,1.,-1.38777878078144E-16));
#789=DIRECTION('',(1.,1.66533453693773E-16,0.));
#790=DIRECTION('',(-0.866025403784439,-2.13611140517839E-16,-0.5));
#791=DIRECTION('',(-0.5,0.,0.866025403784439));
#792=DIRECTION('',(1.66533453693773E-16,-1.,1.38777878078144E-16));
#793=DIRECTION('',(-1.,-1.66533453693773E-16,0.));
#794=DIRECTION('',(0.5,0.,-0.866025403784439));
#795=DIRECTION('',(-0.866025403784439,0.,-0.5));
#796=DIRECTION('',(0.866025403784439,0.,0.5));
#797=DIRECTION('',(0.5,0.,-0.866025403784439));
#798=DIRECTION('',(0.5,0.,-0.866025403784439));
#799=DIRECTION('',(0.,1.,0.));
#800=DIRECTION('',(0.5,0.,-0.866025403784439));
#801=DIRECTION('',(0.5,0.,-0.866025403784439));
#802=DIRECTION('',(-0.866025403784439,0.,-0.5));
#803=DIRECTION('',(-0.500000000000009,0.,0.866025403784433));
#804=DIRECTION('',(0.866025403784434,0.,0.500000000000009));
#805=DIRECTION('',(0.5,0.,-0.866025403784439));
#806=DIRECTION('',(0.,1.,0.));
#807=DIRECTION('',(1.,0.,0.));
#808=DIRECTION('',(-0.866025403784439,0.,-0.5));
#809=DIRECTION('',(0.5,0.,-0.866025403784439));
#810=DIRECTION('',(0.5,0.,-0.866025403784439));
#811=DIRECTION('',(-0.866025403784439,0.,-0.5));
#812=DIRECTION('',(-0.5,0.,0.866025403784439));
#813=DIRECTION('',(0.86602540378444,0.,0.5));
#814=DIRECTION('',(0.5,0.,-0.866025403784439));
#815=DIRECTION('',(0.866025403784439,0.,0.5));
#816=DIRECTION('',(0.5,0.,-0.866025403784439));
#817=DIRECTION('',(0.,-1.,0.));
#818=DIRECTION('',(0.5,0.,-0.866025403784439));
#819=DIRECTION('',(0.5,0.,-0.866025403784439));
#820=DIRECTION('',(-0.866025403784439,0.,-0.5));
#821=DIRECTION('',(-0.5,0.,0.866025403784439));
#822=DIRECTION('',(0.86602540378444,0.,0.5));
#823=DIRECTION('',(0.5,0.,-0.866025403784439));
#824=DIRECTION('',(0.,1.,0.));
#825=DIRECTION('',(1.,0.,0.));
#826=DIRECTION('',(0.866025403784439,0.,0.5));
#827=DIRECTION('',(0.5,0.,-0.866025403784439));
#828=DIRECTION('',(0.5,0.,-0.866025403784439));
#829=DIRECTION('',(-0.866025403784439,0.,-0.5));
#830=DIRECTION('',(-0.5,0.,0.866025403784439));
#831=DIRECTION('',(0.86602540378444,0.,0.5));
#832=DIRECTION('',(-0.5,0.,0.866025403784439));
#833=DIRECTION('',(0.866025403784439,0.,0.5));
#834=DIRECTION('',(-0.866025403784439,0.,-0.5));
#835=DIRECTION('',(-0.5,0.,0.866025403784439));
#836=DIRECTION('',(0.866025403784439,0.,0.5));
#837=DIRECTION('',(0.,1.,0.));
#838=DIRECTION('',(-0.5,0.,0.866025403784439));
#839=DIRECTION('',(0.866025403784439,0.,0.5));
#840=DIRECTION('',(0.866025403784439,0.,0.5));
#841=DIRECTION('',(-0.5,0.,0.866025403784439));
#842=DIRECTION('',(0.866025403784439,0.,0.5));
#843=DIRECTION('',(0.,-1.,0.));
#844=DIRECTION('',(-0.5,0.,0.866025403784439));
#845=DIRECTION('',(0.866025403784439,0.,0.5));
#846=DIRECTION('',(-0.5,0.,0.866025403784439));
#847=DIRECTION('',(0.866025403784439,0.,0.5));
#848=DIRECTION('',(-0.866025403784439,-2.13611140517839E-16,-0.5));
#849=DIRECTION('',(-0.5,0.,0.866025403784439));
#850=DIRECTION('',(0.5,-3.6918441052086E-17,-0.866025403784439));
#851=DIRECTION('',(-0.866025403784439,-2.13611140517839E-16,-0.5));
#852=DIRECTION('',(-0.5,0.,0.866025403784439));
#853=DIRECTION('',(0.5,-3.6918441052086E-17,-0.866025403784439));
#854=DIRECTION('',(0.866025403784439,2.13611140517839E-16,0.5));
#855=DIRECTION('',(0.5,0.,-0.866025403784439));
#856=DIRECTION('',(-0.5,3.6918441052086E-17,0.866025403784439));
#857=DIRECTION('',(0.866025403784439,2.13611140517839E-16,0.5));
#858=DIRECTION('',(0.5,0.,-0.866025403784439));
#859=DIRECTION('',(-0.5,3.6918441052086E-17,0.866025403784439));
#860=DIRECTION('',(-1.66533453693773E-16,1.,-1.38777878078144E-16));
#861=DIRECTION('',(1.,1.66533453693773E-16,-2.31111593326468E-32));
#862=DIRECTION('',(-1.66533453693773E-16,1.,-1.38777878078144E-16));
#863=DIRECTION('',(1.,1.66533453693773E-16,0.));
#864=DIRECTION('',(0.5,-3.6918441052086E-17,-0.866025403784439));
#865=DIRECTION('',(-0.5,3.6918441052086E-17,0.866025403784439));
#866=DIRECTION('',(-1.66533453693773E-16,1.,-1.38777878078144E-16));
#867=DIRECTION('',(1.,1.66533453693773E-16,-2.31111593326468E-32));
#868=DIRECTION('',(0.5,-3.6918441052086E-17,-0.866025403784439));
#869=DIRECTION('',(-1.66533453693773E-16,1.,-1.38777878078144E-16));
#870=DIRECTION('',(1.,1.66533453693773E-16,0.));
#871=DIRECTION('',(-0.5,3.6918441052086E-17,0.866025403784439));
#872=DIRECTION('',(0.869051246403971,-5.2510252734271E-14,0.494722074627467));
#873=DIRECTION('',(0.494722074627467,0.,-0.869051246403971));
#874=DIRECTION('',(-0.888415316418467,0.,-0.459040548920328));
#875=DIRECTION('',(-0.459040548920328,0.,0.888415316418467));
#876=DIRECTION('',(-0.0895106190234577,0.983845209536612,0.155036939965604));
#877=DIRECTION('',(0.,-0.155661786939306,0.987810411003479));
#878=DIRECTION('',(-0.0897852008980775,0.983745124917408,0.155512529723249));
#879=DIRECTION('',(0.,-0.156143168135331,0.98773443346107));
#880=DIRECTION('',(0.0783508572865466,-0.987645975362555,-0.135707665636877));
#881=DIRECTION('',(0.,0.136126138298935,-0.990691513273339));
#882=DIRECTION('',(0.5,-3.6918441052086E-17,-0.866025403784439));
#883=DIRECTION('',(-0.866025403784439,0.,-0.5));
#884=DIRECTION('',(-1.66533453693773E-16,1.,-1.38777878078144E-16));
#885=DIRECTION('',(1.,1.66533453693773E-16,0.));
#886=DIRECTION('',(0.963525491562422,0.,0.267616567329815));
#887=DIRECTION('',(0.267616567329815,0.,-0.963525491562422));
#888=DIRECTION('',(-0.713525491562423,0.,-0.700629269222035));
#889=DIRECTION('',(-0.700629269222035,0.,0.713525491562423));
#890=DIRECTION('',(-0.5,3.6918441052086E-17,0.866025403784439));
#891=DIRECTION('',(0.866025403784439,0.,0.5));
#892=DIRECTION('',(0.0786281984660859,-0.987557808750414,-0.136188034650841));
#893=DIRECTION('',(0.,0.136610980795497,-0.990624772517875));
#894=DIRECTION('',(-0.888513123094816,-2.48637345650928E-14,-0.458851206916028));
#895=DIRECTION('',(-0.458851206916028,0.,0.888513123094816));
#896=DIRECTION('',(0.869517345031231,0.,0.493902406037711));
#897=DIRECTION('',(0.493902406037711,0.,-0.869517345031231));
#898=DIRECTION('',(0.125000000000004,0.968245836551852,-0.216506350946116));
#899=DIRECTION('',(0.,0.218217890235999,0.975900072948532));
#900=DIRECTION('',(0.125000000000004,0.968245836551852,-0.216506350946115));
#901=DIRECTION('',(0.,0.218217890235998,0.975900072948532));
#902=DIRECTION('',(-0.5,3.6918441052086E-17,0.866025403784439));
#903=DIRECTION('',(0.866025403784439,0.,0.5));
#904=DIRECTION('',(-0.866025403784439,-2.13611140517839E-16,-0.5));
#905=DIRECTION('',(-0.5,0.,0.866025403784439));
#906=DIRECTION('',(0.125000000000002,-0.968245836551852,-0.216506350946116));
#907=DIRECTION('',(0.,0.218217890235999,-0.975900072948532));
#908=DIRECTION('',(0.866025403784439,2.13611140517839E-16,0.5));
#909=DIRECTION('',(0.5,0.,-0.866025403784439));
#910=DIRECTION('',(0.125000000000004,-0.968245836551852,-0.216506350946116));
#911=DIRECTION('',(0.,0.218217890235999,-0.975900072948532));
#912=DIRECTION('',(0.5,-3.6918441052086E-17,-0.866025403784439));
#913=DIRECTION('',(-0.866025403784439,0.,-0.5));
#914=DIRECTION('',(-0.713525491562421,0.,-0.700629269222037));
#915=DIRECTION('',(-0.700629269222037,0.,0.713525491562421));
#916=DIRECTION('',(0.963525491562421,-3.34290057983085E-15,0.267616567329817));
#917=DIRECTION('',(0.267616567329817,0.,-0.963525491562421));
#918=DIRECTION('',(-1.66533453693773E-16,1.,-1.38777878078144E-16));
#919=DIRECTION('',(1.,1.66533453693773E-16,0.));
#920=DIRECTION('',(0.5,0.,-0.866025403784439));
#921=DIRECTION('',(-0.866025403784439,0.,-0.5));
#922=DIRECTION('',(0.5,0.,-0.866025403784439));
#923=DIRECTION('',(-0.866025403784439,0.,-0.5));
#924=DIRECTION('',(-0.5,0.,0.866025403784439));
#925=DIRECTION('',(0.866025403784439,0.,0.5));
#926=DIRECTION('',(0.5,0.,-0.866025403784439));
#927=DIRECTION('',(-0.866025403784439,0.,-0.5));
#928=DIRECTION('',(0.5,0.,-0.866025403784439));
#929=DIRECTION('',(-0.866025403784439,0.,-0.5));
#930=DIRECTION('',(-0.500000000000009,0.,0.866025403784433));
#931=DIRECTION('',(0.866025403784434,0.,0.500000000000009));
#932=DIRECTION('',(0.258819045102499,0.,0.965925826289074));
#933=DIRECTION('',(0.353553390593274,-0.707106781186547,-0.612372435695796));
#934=DIRECTION('',(0.353553390593275,0.707106781186545,-0.612372435695797));
#935=DIRECTION('',(-0.866025403784439,0.,-0.5));
#936=DIRECTION('',(0.353553390593269,-0.707106781186557,-0.612372435695786));
#937=DIRECTION('',(0.96592582628907,0.,-0.258819045102514));
#938=DIRECTION('',(0.,1.,0.));
#939=DIRECTION('',(0.258819045102514,0.,0.96592582628907));
#940=DIRECTION('',(-0.5,0.,0.866025403784439));
#941=DIRECTION('',(0.86602540378444,0.,0.5));
#942=DIRECTION('',(0.965925826289067,0.,-0.258819045102525));
#943=DIRECTION('',(-0.5,0.,0.866025403784439));
#944=DIRECTION('',(0.86602540378444,0.,0.5));
#945=DIRECTION('',(-0.353553390593269,-0.707106781186557,0.612372435695786));
#946=DIRECTION('',(0.258819045102528,0.,0.965925826289067));
#947=DIRECTION('',(0.,-1.,0.));
#948=DIRECTION('',(0.965925826289068,0.,-0.258819045102523));
#949=DIRECTION('',(-0.35355339059327,0.707106781186555,0.612372435695788));
#950=DIRECTION('',(0.866025403784439,0.,0.5));
#951=DIRECTION('',(-0.353553390593282,-0.707106781186544,0.612372435695794));
#952=DIRECTION('',(-0.5,0.,0.866025403784439));
#953=DIRECTION('',(0.86602540378444,0.,0.5));
#954=CARTESIAN_POINT('',(0.,0.,0.));
#955=CARTESIAN_POINT('',(-0.0527492875430193,-0.169,0.0970311271788103));
#956=CARTESIAN_POINT('',(-0.0569062094811846,-0.169,0.0946311271788103));
#957=CARTESIAN_POINT('',(-0.0538078228042186,-0.1674,0.0892645640328108));
#958=CARTESIAN_POINT('',(-0.0538078228042186,-0.1706,0.0892645640328108));
#959=CARTESIAN_POINT('',(-0.0510365415121084,-0.1738,0.0908645640328108));
#960=CARTESIAN_POINT('',(-0.0518609654874418,-0.1738,0.0906355825307798));
#961=CARTESIAN_POINT('',(-0.0534584125537782,-0.17310931118527,0.0900328086425817));
#962=CARTESIAN_POINT('',(-0.0539147542566951,-0.171428287469254,0.0894497747414272));
#963=CARTESIAN_POINT('',(-0.0538078228042186,-0.1706,0.0892645640328108));
#964=CARTESIAN_POINT('',(-0.0510365415121084,-0.1738,0.0908645640328108));
#965=CARTESIAN_POINT('',(-0.0527492875430193,-0.1738,0.0970311271788103));
#966=CARTESIAN_POINT('',(-0.0482652602199982,-0.1738,0.0924645640328108));
#967=CARTESIAN_POINT('',(-0.045493978927888,-0.1706,0.0940645640328108));
#968=CARTESIAN_POINT('',(-0.0456009330228436,-0.171428462857143,0.0942498139593514));
#969=CARTESIAN_POINT('',(-0.0463374400991346,-0.17311327954189,0.0941441040061621));
#970=CARTESIAN_POINT('',(-0.047654873682464,-0.1738,0.0930639184760544));
#971=CARTESIAN_POINT('',(-0.0482652602199982,-0.1738,0.0924645640328108));
#972=CARTESIAN_POINT('',(-0.045493978927888,-0.1706,0.0940645640328108));
#973=CARTESIAN_POINT('',(-0.048592365604854,-0.169,0.0994311271788103));
#974=CARTESIAN_POINT('',(-0.045493978927888,-0.1674,0.0940645640328108));
#975=CARTESIAN_POINT('',(-0.0482652602199982,-0.1642,0.0924645640328108));
#976=CARTESIAN_POINT('',(-0.047654744434576,-0.1642,0.0930640453879229));
#977=CARTESIAN_POINT('',(-0.0463340034014904,-0.16489068881473,0.0941460881844722));
#978=CARTESIAN_POINT('',(-0.0456009103803645,-0.166571712530746,0.0942497747414272));
#979=CARTESIAN_POINT('',(-0.045493978927888,-0.1674,0.0940645640328108));
#980=CARTESIAN_POINT('',(-0.0482652602199982,-0.1642,0.0924645640328108));
#981=CARTESIAN_POINT('',(-0.0527492875430193,-0.1642,0.0970311271788103));
#982=CARTESIAN_POINT('',(-0.0510365415121084,-0.1642,0.0908645640328108));
#983=CARTESIAN_POINT('',(-0.0538078228042186,-0.1674,0.0892645640328108));
#984=CARTESIAN_POINT('',(-0.0539147768991741,-0.166571537142857,0.0894498139593514));
#985=CARTESIAN_POINT('',(-0.0534549758561341,-0.16488672045811,0.0900347928208917));
#986=CARTESIAN_POINT('',(-0.0518607909545956,-0.1642,0.0906356310068));
#987=CARTESIAN_POINT('',(-0.0510365415121084,-0.1642,0.0908645640328108));
#988=CARTESIAN_POINT('',(-0.0565055323433484,-0.169,0.103537134018647));
#989=CARTESIAN_POINT('',(-0.0588871022037556,-0.169,0.102162134018647));
#990=CARTESIAN_POINT('',(-0.0379239699957137,-0.169,0.0963529239485348));
#991=CARTESIAN_POINT('',(-0.0379239699957138,-0.1795,0.0963529239485348));
#992=CARTESIAN_POINT('',(-0.0336068275047557,-0.1795,0.0888754138106809));
#993=CARTESIAN_POINT('',(-0.0331739699957138,-0.1795,0.0881256826125826));
#994=CARTESIAN_POINT('',(-0.0331739699957138,-0.1585,0.0881256826125826));
#995=CARTESIAN_POINT('',(-0.0331739699957138,-0.1585,0.0881256826125826));
#996=CARTESIAN_POINT('',(-0.0379239699957137,-0.1585,0.0963529239485348));
#997=CARTESIAN_POINT('',(-0.0354415203851934,-0.1585,0.0920531950958839));
#998=CARTESIAN_POINT('',(-0.0354415203851934,-0.1585,0.0920531950958839));
#999=CARTESIAN_POINT('',(-0.0350353321777695,-0.165566512129421,0.0913496564831904));
#1000=CARTESIAN_POINT('',(-0.034444838495008,-0.17258624215644,0.0903268914230991));
#1001=CARTESIAN_POINT('',(-0.0336068275047557,-0.1795,0.0888754138106809));
#1002=CARTESIAN_POINT('',(-0.0396560208032826,-0.1585,0.0953529239485348));
#1003=CARTESIAN_POINT('',(-0.0349060208032827,-0.1585,0.0871256826125826));
#1004=CARTESIAN_POINT('',(-0.0349060208032827,-0.1565,0.0871256826125826));
#1005=CARTESIAN_POINT('',(-0.0396560208032826,-0.1565,0.0953529239485348));
#1006=CARTESIAN_POINT('',(-0.0374289423005909,-0.1565,0.0914955108294283));
#1007=CARTESIAN_POINT('',(-0.0374289423005909,-0.1565,0.0914955108294283));
#1008=CARTESIAN_POINT('',(-0.0369344250408079,-0.1565,0.0916983951635926));
#1009=CARTESIAN_POINT('',(-0.0359440756869205,-0.156934838813306,0.0920455292924872));
#1010=CARTESIAN_POINT('',(-0.0354720881536445,-0.15796820832663,0.0921061400239152));
#1011=CARTESIAN_POINT('',(-0.0354415203851934,-0.1585,0.0920531950958838));
#1012=CARTESIAN_POINT('',(-0.0487492875430192,-0.1565,0.0901029239485348));
#1013=CARTESIAN_POINT('',(-0.0530925542827559,-0.1565,0.0766256826125826));
#1014=CARTESIAN_POINT('',(-0.0530925542827559,-0.1565,0.0766256826125826));
#1015=CARTESIAN_POINT('',(-0.0578425542827559,-0.1565,0.0848529239485348));
#1016=CARTESIAN_POINT('',(-0.0559091280495155,-0.1565,0.081504131479876));
#1017=CARTESIAN_POINT('',(-0.0559091280495155,-0.1565,0.081504131479876));
#1018=CARTESIAN_POINT('',(-0.0501196323350621,-0.1565,0.085480876456427));
#1019=CARTESIAN_POINT('',(-0.0439270678503887,-0.1565,0.0888295414433147));
#1020=CARTESIAN_POINT('',(-0.0374289423005909,-0.1565,0.0914955108294283));
#1021=CARTESIAN_POINT('',(-0.0578425542827559,-0.1585,0.0848529239485348));
#1022=CARTESIAN_POINT('',(-0.0530925542827559,-0.1585,0.0766256826125826));
#1023=CARTESIAN_POINT('',(-0.0548246050903247,-0.1585,0.0756256826125826));
#1024=CARTESIAN_POINT('',(-0.0595746050903247,-0.1585,0.0838529239485348));
#1025=CARTESIAN_POINT('',(-0.0574416428709146,-0.1585,0.0801585250138915));
#1026=CARTESIAN_POINT('',(-0.0574416428709146,-0.1585,0.0801585250138914));
#1027=CARTESIAN_POINT('',(-0.0574723173115734,-0.15797122802073,0.0802116547036063));
#1028=CARTESIAN_POINT('',(-0.0571762622376423,-0.156939443386278,0.080566023930346));
#1029=CARTESIAN_POINT('',(-0.0563481354348583,-0.1565,0.0812025818285008));
#1030=CARTESIAN_POINT('',(-0.0559091280495155,-0.1565,0.0815041314798759));
#1031=CARTESIAN_POINT('',(-0.0595746050903247,-0.169,0.0838529239485348));
#1032=CARTESIAN_POINT('',(-0.0548246050903247,-0.169,0.0756256826125826));
#1033=CARTESIAN_POINT('',(-0.0548246050903247,-0.1795,0.0756256826125826));
#1034=CARTESIAN_POINT('',(-0.0595746050903247,-0.1795,0.0838529239485348));
#1035=CARTESIAN_POINT('',(-0.0555952818753802,-0.1795,0.0769605339605126));
#1036=CARTESIAN_POINT('',(-0.0574416428709146,-0.1585,0.0801585250138915));
#1037=CARTESIAN_POINT('',(-0.0570316820619449,-0.165566984229409,0.079448452063644));
#1038=CARTESIAN_POINT('',(-0.0564365985891147,-0.172586505869135,0.0784177372539577));
#1039=CARTESIAN_POINT('',(-0.0555952818753802,-0.1795,0.0769605339605126));
#1040=CARTESIAN_POINT('',(-0.0578425542827559,-0.1795,0.0848529239485348));
#1041=CARTESIAN_POINT('',(-0.0530925542827559,-0.1795,0.0766256826125826));
#1042=CARTESIAN_POINT('',(-0.0530925542827559,-0.1815,0.0766256826125826));
#1043=CARTESIAN_POINT('',(-0.0578425542827559,-0.1815,0.0848529239485348));
#1044=CARTESIAN_POINT('',(-0.0537067176346536,-0.1815,0.0776894447422163));
#1045=CARTESIAN_POINT('',(-0.0537067176346536,-0.1815,0.0776894447422163));
#1046=CARTESIAN_POINT('',(-0.0541409608938256,-0.1815,0.0773877388389723));
#1047=CARTESIAN_POINT('',(-0.0550634192943097,-0.181052250286276,0.0768750801955492));
#1048=CARTESIAN_POINT('',(-0.0555322650013706,-0.180017839217383,0.0768513855329936));
#1049=CARTESIAN_POINT('',(-0.0555952818753803,-0.1795,0.0769605339605125));
#1050=CARTESIAN_POINT('',(-0.0487492875430192,-0.1815,0.0901029239485348));
#1051=CARTESIAN_POINT('',(-0.0439992875430192,-0.1815,0.0818756826125826));
#1052=CARTESIAN_POINT('',(-0.0349060208032827,-0.1815,0.0871256826125826));
#1053=CARTESIAN_POINT('',(-0.0396560208032826,-0.1815,0.0953529239485348));
#1054=CARTESIAN_POINT('',(-0.0352382933658243,-0.1815,0.0877011955728658));
#1055=CARTESIAN_POINT('',(-0.0537067176346536,-0.1815,0.0776894447422163));
#1056=CARTESIAN_POINT('',(-0.0479373038277121,-0.1815,0.0816979495768812));
#1057=CARTESIAN_POINT('',(-0.0417468144990355,-0.1815,0.0850564748845206));
#1058=CARTESIAN_POINT('',(-0.0352382933658243,-0.1815,0.0877011955728658));
#1059=CARTESIAN_POINT('',(-0.0396560208032826,-0.1795,0.0953529239485348));
#1060=CARTESIAN_POINT('',(-0.0349060208032827,-0.1795,0.0871256826125826));
#1061=CARTESIAN_POINT('',(-0.0336068275047557,-0.1795,0.0888754138106809));
#1062=CARTESIAN_POINT('',(-0.0335444171664815,-0.180014897740938,0.0887673159338725));
#1063=CARTESIAN_POINT('',(-0.0338131326657278,-0.181055913838762,0.088391669946543));
#1064=CARTESIAN_POINT('',(-0.034744560869119,-0.1815,0.0879018224928403));
#1065=CARTESIAN_POINT('',(-0.0352382933658243,-0.1815,0.0877011955728658));
#1066=CARTESIAN_POINT('',(0.00881756906277921,-0.178440388292074,0.111792158722501));
#1067=CARTESIAN_POINT('',(0.00881756906277921,-0.181,0.111792158722501));
#1068=CARTESIAN_POINT('',(-0.0346560208032827,-0.181,0.0866926699106904));
#1069=CARTESIAN_POINT('',(-0.0528425542827559,-0.181,0.0761926699106904));
#1070=CARTESIAN_POINT('',(-0.0528425542827559,-0.1795,0.0761926699106904));
#1071=CARTESIAN_POINT('',(-0.0541415923884325,-0.1795,0.0754426699106904));
#1072=CARTESIAN_POINT('',(-0.0541415923884325,-0.178440388292074,0.0754426699106904));
#1073=CARTESIAN_POINT('',(-0.0541415923884325,-0.1585,0.0754426699106904));
#1074=CARTESIAN_POINT('',(-0.0528425542827559,-0.1585,0.0761926699106904));
#1075=CARTESIAN_POINT('',(-0.0528425542827559,-0.157,0.0761926699106904));
#1076=CARTESIAN_POINT('',(-0.0346560208032827,-0.157,0.0866926699106904));
#1077=CARTESIAN_POINT('',(-0.0346560208032827,-0.157,0.0866926699106904));
#1078=CARTESIAN_POINT('',(-0.0346560208032827,-0.1585,0.0866926699106904));
#1079=CARTESIAN_POINT('',(-0.033356982697606,-0.1585,0.0874426699106904));
#1080=CARTESIAN_POINT('',(-0.033356982697606,-0.1795,0.0874426699106904));
#1081=CARTESIAN_POINT('',(-0.033356982697606,-0.1795,0.0874426699106904));
#1082=CARTESIAN_POINT('',(-0.0346560208032827,-0.1795,0.0866926699106904));
#1083=CARTESIAN_POINT('',(-0.0437492875430192,-0.169,0.0814426699106904));
#1084=CARTESIAN_POINT('',(-0.0425801532479103,-0.169,0.0821176699106904));
#1085=CARTESIAN_POINT('',(-0.0580291456272758,-0.1565,0.0800066939468003));
#1086=CARTESIAN_POINT('',(-0.0574798406593519,-0.165275228320776,0.0792632280869475));
#1087=CARTESIAN_POINT('',(-0.0566074671155616,-0.173724822749568,0.0780798919120327));
#1088=CARTESIAN_POINT('',(-0.0554246471779796,-0.1815,0.0764675337954715));
#1089=CARTESIAN_POINT('',(-0.0570002298867669,-0.1565,0.0807538281828989));
#1090=CARTESIAN_POINT('',(-0.0564603114366681,-0.165275228320776,0.0800040410550916));
#1091=CARTESIAN_POINT('',(-0.0556029113720415,-0.173724822749568,0.0788105246842979));
#1092=CARTESIAN_POINT('',(-0.0544405948751434,-0.1815,0.0771839352465452));
#1093=CARTESIAN_POINT('',(-0.0559569625226483,-0.1565,0.0814811521885368));
#1094=CARTESIAN_POINT('',(-0.0554265938141871,-0.165275228320776,0.0807252487872443));
#1095=CARTESIAN_POINT('',(-0.0545844213081361,-0.173724822749568,0.0795218744979628));
#1096=CARTESIAN_POINT('',(-0.0534429371394667,-0.1815,0.0778814807400287));
#1097=CARTESIAN_POINT('',(-0.0535551572831593,-0.1565,0.0830878129621033));
#1098=CARTESIAN_POINT('',(-0.0530468453186902,-0.165275228320776,0.0823184808936526));
#1099=CARTESIAN_POINT('',(-0.0522398295669519,-0.173724822749568,0.0810934455321302));
#1100=CARTESIAN_POINT('',(-0.0511464002882059,-0.1815,0.0794226671713169));
#1101=CARTESIAN_POINT('',(-0.0521882066916934,-0.1565,0.083954536593745));
#1102=CARTESIAN_POINT('',(-0.0516924981909044,-0.165275228320776,0.08317802060998));
#1103=CARTESIAN_POINT('',(-0.0509055616674157,-0.173724822749568,0.0819413844298888));
#1104=CARTESIAN_POINT('',(-0.0498395487780388,-0.1815,0.0802542949458593));
#1105=CARTESIAN_POINT('',(-0.0494136100460923,-0.1565,0.0856199378016332));
#1106=CARTESIAN_POINT('',(-0.0489435794233895,-0.165275228320776,0.0848297318828677));
#1107=CARTESIAN_POINT('',(-0.0481975331845468,-0.173724822749568,0.0835709643138599));
#1108=CARTESIAN_POINT('',(-0.0471872964438396,-0.1815,0.0818526844353927));
#1109=CARTESIAN_POINT('',(-0.0480059642554542,-0.1565,0.0864186152199456));
#1110=CARTESIAN_POINT('',(-0.0475490080411148,-0.165275228320776,0.085621903285116));
#1111=CARTESIAN_POINT('',(-0.0468237728497385,-0.173724822749568,0.0843526051511127));
#1112=CARTESIAN_POINT('',(-0.0458418958582477,-0.1815,0.082619446007468));
#1113=CARTESIAN_POINT('',(-0.0451533626122856,-0.1565,0.0879459815562401));
#1114=CARTESIAN_POINT('',(-0.0447229905568387,-0.165275228320776,0.0871369380026343));
#1115=CARTESIAN_POINT('',(-0.0440400534064867,-0.173724822749568,0.0858476559671998));
#1116=CARTESIAN_POINT('',(-0.0431157655464496,-0.1815,0.0840861886598854));
#1117=CARTESIAN_POINT('',(-0.0437084070306843,-0.1565,0.0886746703294076));
#1118=CARTESIAN_POINT('',(-0.0432915447195533,-0.165275228320776,0.0878598011764108));
#1119=CARTESIAN_POINT('',(-0.0426300945535774,-0.173724822749568,0.0865610658094482));
#1120=CARTESIAN_POINT('',(-0.0417350360654089,-0.1815,0.0847861696091837));
#1121=CARTESIAN_POINT('',(-0.040784659721292,-0.1565,0.0900602825286854));
#1122=CARTESIAN_POINT('',(-0.0403952146025145,-0.165275228320776,0.0892344413103725));
#1123=CARTESIAN_POINT('',(-0.0397773554695593,-0.173724822749568,0.0879178778771357));
#1124=CARTESIAN_POINT('',(-0.038941548233753,-0.1815,0.0861175864348688));
#1125=CARTESIAN_POINT('',(-0.0393058682712093,-0.1565,0.0907172058234495));
#1126=CARTESIAN_POINT('',(-0.0389303305941009,-0.165275228320776,0.0898862181422236));
#1127=CARTESIAN_POINT('',(-0.0383345755003788,-0.173724822749568,0.0885612799786919));
#1128=CARTESIAN_POINT('',(-0.0375287901344381,-0.1815,0.0867490221923995));
#1129=CARTESIAN_POINT('',(-0.0368356229518149,-0.1565,0.0917427794650019));
#1130=CARTESIAN_POINT('',(-0.0364833776558946,-0.165275228320776,0.0909038392142357));
#1131=CARTESIAN_POINT('',(-0.0359246312393118,-0.173724822749568,0.0895659413921165));
#1132=CARTESIAN_POINT('',(-0.0351690765094734,-0.1815,0.0877351109000942));
#1133=CARTESIAN_POINT('',(-0.0358528436675566,-0.1565,0.0921324477848062));
#1134=CARTESIAN_POINT('',(-0.0355098806926947,-0.165275228320776,0.0912905083680026));
#1135=CARTESIAN_POINT('',(-0.0349658797942488,-0.173724822749568,0.0899477179040426));
#1136=CARTESIAN_POINT('',(-0.0342303297795932,-0.1815,0.0881098604694788));
#1137=CARTESIAN_POINT('',(-0.0348641039481179,-0.1565,0.0925062478151175));
#1138=CARTESIAN_POINT('',(-0.034530494050238,-0.165275228320776,0.0916614518755475));
#1139=CARTESIAN_POINT('',(-0.0340013483469003,-0.173724822749568,0.0903139967290027));
#1140=CARTESIAN_POINT('',(-0.0332859435796875,-0.1815,0.0884694257486585));
#1141=CARTESIAN_POINT('',(-0.0483346402028959,-0.162728646316562,0.0853568870179818));
#1142=CARTESIAN_POINT('',(-0.0492455870422013,-0.162728479995632,0.0848394780648807));
#1143=CARTESIAN_POINT('',(-0.0509447803318513,-0.163618058946264,0.0836912699799366));
#1144=CARTESIAN_POINT('',(-0.0514937976269774,-0.165651735091566,0.0829876601003703));
#1145=CARTESIAN_POINT('',(-0.0514113005249761,-0.166685657268956,0.0828451887130032));
#1146=CARTESIAN_POINT('',(-0.0483346402028959,-0.162728646316562,0.0853568870179818));
#1147=CARTESIAN_POINT('',(-0.0514113005249762,-0.166685657268956,0.0828451887130032));
#1148=CARTESIAN_POINT('',(-0.0483346402028959,-0.162728646316561,0.0853568870179818));
#1149=CARTESIAN_POINT('',(-0.0471976057277505,-0.162728863678779,0.0860027100138859));
#1150=CARTESIAN_POINT('',(-0.0460477612179111,-0.162729081040735,0.0866258358912823));
#1151=CARTESIAN_POINT('',(-0.0448860204041439,-0.162729298402429,0.0872257555405716));
#1152=CARTESIAN_POINT('',(-0.0448860204041439,-0.16272929840243,0.0872257555405716));
#1153=CARTESIAN_POINT('',(-0.0410666425594597,-0.166687752793734,0.0884529168712963));
#1154=CARTESIAN_POINT('',(-0.0411490235822389,-0.165650208251695,0.0885954474156261));
#1155=CARTESIAN_POINT('',(-0.042061445745232,-0.163615626037595,0.0885062460066587));
#1156=CARTESIAN_POINT('',(-0.0439520154303023,-0.16272948040315,0.0877080719359489));
#1157=CARTESIAN_POINT('',(-0.0448860204041439,-0.16272929840243,0.0872257555405716));
#1158=CARTESIAN_POINT('',(-0.0410666425594597,-0.166687752793734,0.0884529168712963));
#1159=CARTESIAN_POINT('',(-0.0410666425594597,-0.166687752793734,0.0884529168712963));
#1160=CARTESIAN_POINT('',(-0.0409617564874332,-0.16800873629085,0.08827144948434));
#1161=CARTESIAN_POINT('',(-0.0408496028135663,-0.169327373180535,0.0880773987024257));
#1162=CARTESIAN_POINT('',(-0.0407297863595248,-0.170643273691937,0.0878700800635023));
#1163=CARTESIAN_POINT('',(-0.0407297863595248,-0.170643273691937,0.0878700800635023));
#1164=CARTESIAN_POINT('',(-0.0438723076775437,-0.174595250862647,0.0854729419968303));
#1165=CARTESIAN_POINT('',(-0.0429430542726357,-0.17459546543543,0.0859530335076481));
#1166=CARTESIAN_POINT('',(-0.0411918873309034,-0.173708730190839,0.0870215852183431));
#1167=CARTESIAN_POINT('',(-0.0406361515857333,-0.171671630337129,0.0877080636358455));
#1168=CARTESIAN_POINT('',(-0.0407297863595247,-0.170643273691937,0.0878700800635023));
#1169=CARTESIAN_POINT('',(-0.0438723076775437,-0.174595250862647,0.0854729419968303));
#1170=CARTESIAN_POINT('',(-0.0438723076775437,-0.174595250862647,0.0854729419968303));
#1171=CARTESIAN_POINT('',(-0.0450337041617962,-0.174594993569988,0.0848729130462635));
#1172=CARTESIAN_POINT('',(-0.0461830420900534,-0.174594736276756,0.0842492228659858));
#1173=CARTESIAN_POINT('',(-0.0473193724821097,-0.17459447898295,0.0836024089344706));
#1174=CARTESIAN_POINT('',(-0.0473193724821098,-0.17459447898295,0.0836024089344707));
#1175=CARTESIAN_POINT('',(-0.0510728879824684,-0.170641058315626,0.0822606979622666));
#1176=CARTESIAN_POINT('',(-0.0509786201568188,-0.171671843007975,0.082097867378268));
#1177=CARTESIAN_POINT('',(-0.0500792626054552,-0.173708161124196,0.0821993711871753));
#1178=CARTESIAN_POINT('',(-0.048230587974831,-0.17459428212291,0.0830837310559007));
#1179=CARTESIAN_POINT('',(-0.0473193724821098,-0.17459447898295,0.0836024089344707));
#1180=CARTESIAN_POINT('',(-0.0510728879824684,-0.170641058315626,0.0822606979622666));
#1181=CARTESIAN_POINT('',(-0.0510728879824684,-0.170641058315626,0.0822606979622666));
#1182=CARTESIAN_POINT('',(-0.0511932260263057,-0.169325205185037,0.0824685601232981));
#1183=CARTESIAN_POINT('',(-0.0513059012034314,-0.168006609076755,0.0826631655000208));
#1184=CARTESIAN_POINT('',(-0.0514113005249761,-0.166685657268956,0.0828451887130032));
#1185=CARTESIAN_POINT('',(-0.0472851859278815,-0.165,0.0955670255636725));
#1186=CARTESIAN_POINT('',(-0.043293689452307,-0.171,0.0886535508697453));
#1187=CARTESIAN_POINT('',(-0.0434147568697206,-0.169669302034184,0.088863245787847));
#1188=CARTESIAN_POINT('',(-0.0435280797272303,-0.168335837851318,0.0890595267347126));
#1189=CARTESIAN_POINT('',(-0.0436340529640555,-0.167,0.0892430777651364));
#1190=CARTESIAN_POINT('',(-0.043293689452307,-0.171,0.0886535508697453));
#1191=CARTESIAN_POINT('',(-0.0436340529640555,-0.167,0.0892430777651364));
#1192=CARTESIAN_POINT('',(-0.0464567588031353,-0.167,0.0941321476932439));
#1193=CARTESIAN_POINT('',(-0.0454122025816741,-0.167,0.0923229232463109));
#1194=CARTESIAN_POINT('',(-0.0492851859278815,-0.169,0.0990311271788103));
#1195=CARTESIAN_POINT('',(-0.0454122025816741,-0.171,0.0923229232463109));
#1196=CARTESIAN_POINT('',(-0.0472851859278815,-0.171,0.0955670255636725));
#1197=CARTESIAN_POINT('',(-0.054213389158157,-0.165,0.0915670255636725));
#1198=CARTESIAN_POINT('',(-0.054213389158157,-0.171,0.0915670255636725));
#1199=CARTESIAN_POINT('',(-0.0503817055098214,-0.171,0.0849303548062244));
#1200=CARTESIAN_POINT('',(-0.0523404058119496,-0.171,0.0883229232463109));
#1201=CARTESIAN_POINT('',(-0.056213389158157,-0.169,0.0950311271788103));
#1202=CARTESIAN_POINT('',(-0.0523404058119496,-0.167,0.0883229232463109));
#1203=CARTESIAN_POINT('',(-0.0498888643362651,-0.167,0.0840767288535629));
#1204=CARTESIAN_POINT('',(-0.0507232246778718,-0.167,0.0855218833570463));
#1205=CARTESIAN_POINT('',(-0.0507232246778718,-0.167,0.0855218833570463));
#1206=CARTESIAN_POINT('',(-0.0506168661349992,-0.168335846574006,0.0853376649569719));
#1207=CARTESIAN_POINT('',(-0.0505031559465927,-0.169669309931951,0.0851407131333137));
#1208=CARTESIAN_POINT('',(-0.0503817055098214,-0.171,0.0849303548062244));
#1209=CARTESIAN_POINT('',(-0.0471701957222009,-0.165,0.0909585515436041));
#1210=CARTESIAN_POINT('',(-0.0527492875430193,-0.165,0.0970311271788103));
#1211=CARTESIAN_POINT('',(-0.0506083550043807,-0.165,0.0893229232463109));
#1212=CARTESIAN_POINT('',(-0.047144253389243,-0.165,0.0913229232463109));
#1213=CARTESIAN_POINT('',(-0.0445830324751697,-0.165,0.086886758493728));
#1214=CARTESIAN_POINT('',(-0.0457952778816126,-0.165,0.0889864291289292));
#1215=CARTESIAN_POINT('',(-0.0457952778816126,-0.165,0.0889864291289292));
#1216=CARTESIAN_POINT('',(-0.0469805105711384,-0.165,0.0883743442469739));
#1217=CARTESIAN_POINT('',(-0.0481534176932518,-0.165,0.0877386825458943));
#1218=CARTESIAN_POINT('',(-0.0493133109272521,-0.165,0.087079841106683));
#1219=CARTESIAN_POINT('',(-0.0493133109272521,-0.165,0.0870798411066831));
#1220=CARTESIAN_POINT('',(-0.051652911225842,-0.165,0.0911321476932439));
#1221=CARTESIAN_POINT('',(-0.0471701957222009,-0.173,0.0909585515436041));
#1222=CARTESIAN_POINT('',(-0.0482882642512481,-0.173,0.0853044081837145));
#1223=CARTESIAN_POINT('',(-0.0471290065182278,-0.173,0.0859643351938659));
#1224=CARTESIAN_POINT('',(-0.0459564802067609,-0.173,0.0866006765851946));
#1225=CARTESIAN_POINT('',(-0.0447713920171269,-0.173,0.0872130067904883));
#1226=CARTESIAN_POINT('',(-0.0482882642512481,-0.173,0.0853044081837145));
#1227=CARTESIAN_POINT('',(-0.0447713920171269,-0.173,0.0872130067904883));
#1228=CARTESIAN_POINT('',(-0.0469929613970003,-0.173,0.0910608778289683));
#1229=CARTESIAN_POINT('',(-0.047144253389243,-0.173,0.0913229232463109));
#1230=CARTESIAN_POINT('',(-0.0527492875430193,-0.173,0.0970311271788103));
#1231=CARTESIAN_POINT('',(-0.0506083550043807,-0.173,0.0893229232463109));
#1232=CARTESIAN_POINT('',(-0.0504570630121381,-0.173,0.0890608778289683));
#1233=CARTESIAN_POINT('',(-0.0438723076775437,-0.174595250862647,0.0854729419968303));
#1234=CARTESIAN_POINT('',(-0.0440236347349907,-0.173,0.0857658165063713));
#1235=CARTESIAN_POINT('',(-0.044771392017127,-0.173,0.0872130067904883));
#1236=CARTESIAN_POINT('',(-0.0450323754662556,-0.174594982992798,0.0848736020381136));
#1237=CARTESIAN_POINT('',(-0.0451876775518225,-0.172999999999991,0.0851646164086779));
#1238=CARTESIAN_POINT('',(-0.045954967081979,-0.173,0.0866014584105863));
#1239=CARTESIAN_POINT('',(-0.0461846630902029,-0.174594724126943,0.0842483029791535));
#1240=CARTESIAN_POINT('',(-0.0463439872384142,-0.173000000000247,0.0845373269832178));
#1241=CARTESIAN_POINT('',(-0.0471305934446587,-0.173,0.0859634318092807));
#1242=CARTESIAN_POINT('',(-0.0473193724821098,-0.17459447898295,0.0836024089344707));
#1243=CARTESIAN_POINT('',(-0.0474827075653819,-0.173,0.0838893307537689));
#1244=CARTESIAN_POINT('',(-0.0482882642512482,-0.173,0.0853044081837144));
#1245=CARTESIAN_POINT('',(-0.0482882642512482,-0.175,0.0853044081837144));
#1246=CARTESIAN_POINT('',(-0.0447713920171269,-0.175,0.0872130067904883));
#1247=CARTESIAN_POINT('',(-0.0407297863595247,-0.170643273691937,0.0878700800635023));
#1248=CARTESIAN_POINT('',(-0.0423908064292611,-0.170671421408509,0.0870897116005385));
#1249=CARTESIAN_POINT('',(-0.0432936894523069,-0.171,0.0886535508697453));
#1250=CARTESIAN_POINT('',(-0.0406356347103582,-0.171677307088351,0.0877071692659812));
#1251=CARTESIAN_POINT('',(-0.0422637116357752,-0.171226851408635,0.0870378123031404));
#1252=CARTESIAN_POINT('',(-0.0431985243169059,-0.171522998075173,0.0884887200201215));
#1253=CARTESIAN_POINT('',(-0.041197111889219,-0.173721708248965,0.0870164282143348));
#1254=CARTESIAN_POINT('',(-0.0424442786360263,-0.172472177297873,0.0866857909875231));
#1255=CARTESIAN_POINT('',(-0.0434057073374805,-0.172557461035412,0.087998906014443));
#1256=CARTESIAN_POINT('',(-0.0429580639188741,-0.174595461966861,0.085945278891829));
#1257=CARTESIAN_POINT('',(-0.0434939742066281,-0.173019833696574,0.0860346756847793));
#1258=CARTESIAN_POINT('',(-0.0442927579680581,-0.173,0.0874327697259414));
#1259=CARTESIAN_POINT('',(-0.0438723076775437,-0.174595250862647,0.0854729419968303));
#1260=CARTESIAN_POINT('',(-0.0440236347349907,-0.173,0.0857658165063713));
#1261=CARTESIAN_POINT('',(-0.044771392017127,-0.173,0.0872130067904883));
#1262=CARTESIAN_POINT('',(-0.0415616386447381,-0.171,0.0896535508697452));
#1263=CARTESIAN_POINT('',(-0.043293689452307,-0.171,0.0886535508697453));
#1264=CARTESIAN_POINT('',(-0.0432014311851834,-0.171507022826676,0.0884937548636691));
#1265=CARTESIAN_POINT('',(-0.0433874382855071,-0.172533664968027,0.0880159948197852));
#1266=CARTESIAN_POINT('',(-0.0442802417406032,-0.173,0.0874385165018524));
#1267=CARTESIAN_POINT('',(-0.0447713920171269,-0.173,0.0872130067904883));
#1268=CARTESIAN_POINT('',(-0.0473193724821096,-0.17459447898295,0.0836024089344709));
#1269=CARTESIAN_POINT('',(-0.0474827075653817,-0.173,0.0838893307537691));
#1270=CARTESIAN_POINT('',(-0.0482882642512482,-0.173,0.0853044081837145));
#1271=CARTESIAN_POINT('',(-0.048227379451337,-0.174594282804937,0.083085557399496));
#1272=CARTESIAN_POINT('',(-0.0480093823384876,-0.172997358493027,0.0835903334011001));
#1273=CARTESIAN_POINT('',(-0.0487530759925549,-0.173,0.0850435373177156));
#1274=CARTESIAN_POINT('',(-0.0500733105427311,-0.173719352930057,0.0822005055839221));
#1275=CARTESIAN_POINT('',(-0.0490991700942394,-0.172397840344177,0.0830946522559579));
#1276=CARTESIAN_POINT('',(-0.0497338116833336,-0.172557267356896,0.0846599156941228));
#1277=CARTESIAN_POINT('',(-0.050979258139454,-0.171664866863251,0.0820989693850793));
#1278=CARTESIAN_POINT('',(-0.0494568971178004,-0.171179446186258,0.0831526196822708));
#1279=CARTESIAN_POINT('',(-0.0502871802749072,-0.171517840012072,0.0847666322967556));
#1280=CARTESIAN_POINT('',(-0.0510728879824684,-0.170641058315625,0.0822606979622666));
#1281=CARTESIAN_POINT('',(-0.0494301866251957,-0.170652624192789,0.0832822757536915));
#1282=CARTESIAN_POINT('',(-0.0503817055098215,-0.171,0.0849303548062244));
#1283=CARTESIAN_POINT('',(-0.0482882642512481,-0.173,0.0853044081837145));
#1284=CARTESIAN_POINT('',(-0.0487637720882494,-0.173,0.0850375342405165));
#1285=CARTESIAN_POINT('',(-0.0497582608604617,-0.172530909725351,0.0846564752503329));
#1286=CARTESIAN_POINT('',(-0.050288357729669,-0.171511389531505,0.0847686717082267));
#1287=CARTESIAN_POINT('',(-0.0503817055098214,-0.171,0.0849303548062244));
#1288=CARTESIAN_POINT('',(-0.0521137563173903,-0.171,0.0839303548062244));
#1289=CARTESIAN_POINT('',(-0.0410666425594597,-0.166687752793734,0.0884529168712964));
#1290=CARTESIAN_POINT('',(-0.0427278223779928,-0.166712431599628,0.0876734403467029));
#1291=CARTESIAN_POINT('',(-0.0436340529640555,-0.167,0.0892430777651363));
#1292=CARTESIAN_POINT('',(-0.0409618073112305,-0.168008096191873,0.0882715374166431));
#1293=CARTESIAN_POINT('',(-0.0426229394664705,-0.168033933988663,0.0874917778156492));
#1294=CARTESIAN_POINT('',(-0.043528162895962,-0.168334789475016,0.0890596707871816));
#1295=CARTESIAN_POINT('',(-0.0408495117166043,-0.169328373663845,0.0880772410774731));
#1296=CARTESIAN_POINT('',(-0.0425105906094518,-0.169355368630274,0.0872971838871149));
#1297=CARTESIAN_POINT('',(-0.0434147035704793,-0.169669887865915,0.0888631534708527));
#1298=CARTESIAN_POINT('',(-0.0407297863595247,-0.170643273691937,0.0878700800635023));
#1299=CARTESIAN_POINT('',(-0.0423908064292612,-0.170671421408509,0.0870897116005384));
#1300=CARTESIAN_POINT('',(-0.0432936894523071,-0.171,0.0886535508697453));
#1301=CARTESIAN_POINT('',(-0.0419020021564866,-0.167,0.0902430777651363));
#1302=CARTESIAN_POINT('',(-0.0490172367354504,-0.171,0.0945670255636725));
#1303=CARTESIAN_POINT('',(-0.047144253389243,-0.173,0.0913229232463109));
#1304=CARTESIAN_POINT('',(-0.0469948950794782,-0.173,0.0915556775246171));
#1305=CARTESIAN_POINT('',(-0.0466689138562259,-0.172910796766156,0.0919987510276375));
#1306=CARTESIAN_POINT('',(-0.046128526233836,-0.172458293151534,0.0924710040039019));
#1307=CARTESIAN_POINT('',(-0.0456637946821985,-0.171751493672988,0.092580241296923));
#1308=CARTESIAN_POINT('',(-0.0454757163409194,-0.171245987731812,0.0924329323043035));
#1309=CARTESIAN_POINT('',(-0.0454122025816741,-0.171,0.0923229232463109));
#1310=CARTESIAN_POINT('',(-0.0527492875430193,-0.175,0.0970311271788103));
#1311=CARTESIAN_POINT('',(-0.0506083550043807,-0.175,0.0893229232463109));
#1312=CARTESIAN_POINT('',(-0.047144253389243,-0.175,0.0913229232463109));
#1313=CARTESIAN_POINT('',(-0.0524813383505881,-0.171,0.0925670255636725));
#1314=CARTESIAN_POINT('',(-0.0523404058119496,-0.171,0.0883229232463109));
#1315=CARTESIAN_POINT('',(-0.0524038517934348,-0.171245725229676,0.0884328149097793));
#1316=CARTESIAN_POINT('',(-0.0524369606756924,-0.171749570001679,0.0886685676437201));
#1317=CARTESIAN_POINT('',(-0.0521144756817571,-0.172453685898692,0.0890150144787892));
#1318=CARTESIAN_POINT('',(-0.0514334876254442,-0.172910773874861,0.0892491075229986));
#1319=CARTESIAN_POINT('',(-0.0508849003883946,-0.173,0.0893099384383974));
#1320=CARTESIAN_POINT('',(-0.0506083550043807,-0.173,0.0893229232463109));
#1321=CARTESIAN_POINT('',(-0.0510728879824684,-0.170641058315626,0.0822606979622666));
#1322=CARTESIAN_POINT('',(-0.0494301866251957,-0.170652624192789,0.0832822757536915));
#1323=CARTESIAN_POINT('',(-0.0503817055098214,-0.171,0.0849303548062244));
#1324=CARTESIAN_POINT('',(-0.0511931363940191,-0.169326185282365,0.0824684052996421));
#1325=CARTESIAN_POINT('',(-0.0495501108948474,-0.169337121507449,0.0834899906816144));
#1326=CARTESIAN_POINT('',(-0.0505031038734356,-0.16966988047908,0.0851406229399599));
#1327=CARTESIAN_POINT('',(-0.0513059532026977,-0.168005957379128,0.0826632553019894));
#1328=CARTESIAN_POINT('',(-0.0496625988041821,-0.168016379525088,0.0836848254553897));
#1329=CARTESIAN_POINT('',(-0.0506169501293791,-0.168334791618212,0.0853378104395056));
#1330=CARTESIAN_POINT('',(-0.0514113005249761,-0.166685657268955,0.0828451887130033));
#1331=CARTESIAN_POINT('',(-0.0497676218058277,-0.166695664064981,0.0838667306308074));
#1332=CARTESIAN_POINT('',(-0.0507232246778717,-0.167,0.0855218833570463));
#1333=CARTESIAN_POINT('',(-0.0524552754854406,-0.167,0.0845218833570463));
#1334=CARTESIAN_POINT('',(-0.0483346402028958,-0.162728646316562,0.0853568870179819));
#1335=CARTESIAN_POINT('',(-0.0481810136898357,-0.165,0.0850864268701279));
#1336=CARTESIAN_POINT('',(-0.0493133109272521,-0.165,0.0870798411066831));
#1337=CARTESIAN_POINT('',(-0.0471995398550403,-0.162728853563477,0.086001612985855));
#1338=CARTESIAN_POINT('',(-0.0470497016456336,-0.165000000000024,0.0857293119679935));
#1339=CARTESIAN_POINT('',(-0.0481553741784309,-0.165,0.087737571225063));
#1340=CARTESIAN_POINT('',(-0.0460461237109928,-0.162729072344024,0.0866266828794085));
#1341=CARTESIAN_POINT('',(-0.0459000718303336,-0.164999999999967,0.0863526582630718));
#1342=CARTESIAN_POINT('',(-0.0469787383333678,-0.165,0.0883752594765183));
#1343=CARTESIAN_POINT('',(-0.0448860204041439,-0.16272929840243,0.0872257555405716));
#1344=CARTESIAN_POINT('',(-0.0447436866973597,-0.165,0.0869501425217317));
#1345=CARTESIAN_POINT('',(-0.0457952778816126,-0.165,0.0889864291289292));
#1346=CARTESIAN_POINT('',(-0.0457952778816127,-0.163,0.0889864291289291));
#1347=CARTESIAN_POINT('',(-0.0493133109272521,-0.163,0.0870798411066831));
#1348=CARTESIAN_POINT('',(-0.044886020404144,-0.162729298402429,0.0872257555405716));
#1349=CARTESIAN_POINT('',(-0.0447436866973599,-0.165,0.0869501425217316));
#1350=CARTESIAN_POINT('',(-0.0457952778816126,-0.165,0.0889864291289292));
#1351=CARTESIAN_POINT('',(-0.0439557274699254,-0.162729479691915,0.0877061550518234));
#1352=CARTESIAN_POINT('',(-0.0443685245467644,-0.164971548005859,0.0871484968890138));
#1353=CARTESIAN_POINT('',(-0.0453082482075016,-0.165,0.0892097972220686));
#1354=CARTESIAN_POINT('',(-0.0420681023133805,-0.163603169486232,0.0885051496103138));
#1355=CARTESIAN_POINT('',(-0.0435418606354163,-0.165143796753515,0.0875456301978376));
#1356=CARTESIAN_POINT('',(-0.0442818191135008,-0.165441188296157,0.0895071031011652));
#1357=CARTESIAN_POINT('',(-0.0411484030285932,-0.165658023836462,0.08859437376405));
#1358=CARTESIAN_POINT('',(-0.0428426667084412,-0.166139716299376,0.0877198267960792));
#1359=CARTESIAN_POINT('',(-0.0437166360782763,-0.166479502311216,0.0893861159148143));
#1360=CARTESIAN_POINT('',(-0.0410666425594597,-0.166687752793734,0.0884529168712964));
#1361=CARTESIAN_POINT('',(-0.0427278223779928,-0.166712431599628,0.087673440346703));
#1362=CARTESIAN_POINT('',(-0.0436340529640554,-0.167,0.0892430777651364));
#1363=CARTESIAN_POINT('',(-0.0457952778816126,-0.165,0.0889864291289292));
#1364=CARTESIAN_POINT('',(-0.0452959941803576,-0.165,0.0892154173309865));
#1365=CARTESIAN_POINT('',(-0.0442657249889093,-0.16546291075023,0.0895063646643003));
#1366=CARTESIAN_POINT('',(-0.0437170042045707,-0.166477182115911,0.0893867535282597));
#1367=CARTESIAN_POINT('',(-0.0436340529640555,-0.167,0.0892430777651364));
#1368=CARTESIAN_POINT('',(-0.0482652602199983,-0.1738,0.0924645640328108));
#1369=CARTESIAN_POINT('',(-0.0478448826584651,-0.173,0.0920364487378733));
#1370=CARTESIAN_POINT('',(-0.047144253389243,-0.173,0.0913229232463109));
#1371=CARTESIAN_POINT('',(-0.0479599106671818,-0.173799999998381,0.0927643947121105));
#1372=CARTESIAN_POINT('',(-0.0476413861439809,-0.173032111671787,0.092270020446835));
#1373=CARTESIAN_POINT('',(-0.0469868431099592,-0.173,0.0915682254063026));
#1374=CARTESIAN_POINT('',(-0.0473323424246042,-0.173639419948154,0.093332050916013));
#1375=CARTESIAN_POINT('',(-0.0472004710267033,-0.172969103739649,0.0927236879694889));
#1376=CARTESIAN_POINT('',(-0.0466501818855875,-0.172899637467131,0.0920192587396427));
#1377=CARTESIAN_POINT('',(-0.0464458673218564,-0.172923801148116,0.0939606092636551));
#1378=CARTESIAN_POINT('',(-0.0465459729929467,-0.172465760532698,0.0932179097049898));
#1379=CARTESIAN_POINT('',(-0.0461277318049407,-0.172452375717683,0.0924668350712252));
#1380=CARTESIAN_POINT('',(-0.0457754521159093,-0.171842406733593,0.0942311755108651));
#1381=CARTESIAN_POINT('',(-0.0460595158896164,-0.171652169515261,0.093382646499859));
#1382=CARTESIAN_POINT('',(-0.0456771940636315,-0.171776504208519,0.092581330465838));
#1383=CARTESIAN_POINT('',(-0.0455471781985243,-0.171012079775488,0.0941567078709027));
#1384=CARTESIAN_POINT('',(-0.045918658999871,-0.171041422318768,0.0932640048811623));
#1385=CARTESIAN_POINT('',(-0.0454787016696988,-0.171257549859551,0.0924381030454266));
#1386=CARTESIAN_POINT('',(-0.0454939789278881,-0.1706,0.0940645640328108));
#1387=CARTESIAN_POINT('',(-0.0458963254999501,-0.17075,0.0931614487378733));
#1388=CARTESIAN_POINT('',(-0.0454122025816741,-0.171,0.0923229232463109));
#1389=CARTESIAN_POINT('',(-0.0436801517741052,-0.171,0.0933229232463109));
#1390=CARTESIAN_POINT('',(-0.0538078228042187,-0.1706,0.0892645640328108));
#1391=CARTESIAN_POINT('',(-0.0528245287302255,-0.17075,0.0891614487378733));
#1392=CARTESIAN_POINT('',(-0.0523404058119496,-0.171,0.0883229232463109));
#1393=CARTESIAN_POINT('',(-0.0538613159071178,-0.17101435580941,0.0893572168081992));
#1394=CARTESIAN_POINT('',(-0.0529026036419308,-0.171043019005598,0.0892324551081617));
#1395=CARTESIAN_POINT('',(-0.0524072721932023,-0.171258972380675,0.0884387392159589));
#1396=CARTESIAN_POINT('',(-0.053811159790304,-0.171841673952061,0.0895915039659131));
#1397=CARTESIAN_POINT('',(-0.0529342521924591,-0.171651696459411,0.08941328786995));
#1398=CARTESIAN_POINT('',(-0.0524314935463762,-0.171776046220116,0.0886814168960214));
#1399=CARTESIAN_POINT('',(-0.0532419707027397,-0.172923663084676,0.0900368771472568));
#1400=CARTESIAN_POINT('',(-0.0525487239690132,-0.172465619251117,0.0897522198130833));
#1401=CARTESIAN_POINT('',(-0.052107347225689,-0.172452289427959,0.089014502498406));
#1402=CARTESIAN_POINT('',(-0.0522550104885168,-0.173639542807718,0.0904902007402122));
#1403=CARTESIAN_POINT('',(-0.051793852328426,-0.172969271857891,0.0900719258132885));
#1404=CARTESIAN_POINT('',(-0.0514589688539129,-0.172899714254602,0.0892432212342698));
#1405=CARTESIAN_POINT('',(-0.0514466123360241,-0.173799999999209,0.0907506679835494));
#1406=CARTESIAN_POINT('',(-0.0511783421906905,-0.173031936693352,0.090227325375088));
#1407=CARTESIAN_POINT('',(-0.0508978988135099,-0.173,0.0893093281156681));
#1408=CARTESIAN_POINT('',(-0.0510365415121084,-0.1738,0.0908645640328108));
#1409=CARTESIAN_POINT('',(-0.0508759715717105,-0.173,0.0902864487378734));
#1410=CARTESIAN_POINT('',(-0.0506083550043807,-0.173,0.0893229232463109));
#1411=CARTESIAN_POINT('',(-0.0540724566195185,-0.171,0.0873229232463109));
#1412=CARTESIAN_POINT('',(-0.051411300524976,-0.166685657268956,0.0828451887130033));
#1413=CARTESIAN_POINT('',(-0.0497676218058279,-0.166695664064981,0.0838667306308075));
#1414=CARTESIAN_POINT('',(-0.0507232246778718,-0.167,0.0855218833570462));
#1415=CARTESIAN_POINT('',(-0.0514942513047822,-0.165646049115109,0.0829884436163817));
#1416=CARTESIAN_POINT('',(-0.0497423561187791,-0.166141160314552,0.0839861715436716));
#1417=CARTESIAN_POINT('',(-0.0508069055670948,-0.166474490595194,0.0856668229088029));
#1418=CARTESIAN_POINT('',(-0.0509396322534426,-0.163604275394591,0.0836969519188118));
#1419=CARTESIAN_POINT('',(-0.0492612370686907,-0.165226525288058,0.0844338210887633));
#1420=CARTESIAN_POINT('',(-0.0506081826706206,-0.165442602667385,0.0861744093544526));
#1421=CARTESIAN_POINT('',(-0.0492298897401881,-0.16272848286439,0.0848483939794628));
#1422=CARTESIAN_POINT('',(-0.0485451615139007,-0.165004234411281,0.0848786973170676));
#1423=CARTESIAN_POINT('',(-0.0497717862227342,-0.165,0.0868236621158027));
#1424=CARTESIAN_POINT('',(-0.0483346402028958,-0.162728646316562,0.0853568870179819));
#1425=CARTESIAN_POINT('',(-0.0481810136898358,-0.165,0.0850864268701278));
#1426=CARTESIAN_POINT('',(-0.0493133109272521,-0.165,0.0870798411066831));
#1427=CARTESIAN_POINT('',(-0.0507232246778718,-0.167,0.0855218833570462));
#1428=CARTESIAN_POINT('',(-0.0508053946919406,-0.166483978772108,0.0856642059962719));
#1429=CARTESIAN_POINT('',(-0.0506208781746688,-0.165466126364722,0.0861579291325364));
#1430=CARTESIAN_POINT('',(-0.0497867870777258,-0.165,0.086815280194915));
#1431=CARTESIAN_POINT('',(-0.0493133109272521,-0.165,0.0870798411066831));
#1432=CARTESIAN_POINT('',(-0.0469929613970003,-0.167,0.0910608778289683));
#1433=CARTESIAN_POINT('',(-0.0454122025816741,-0.167,0.0923229232463109));
#1434=CARTESIAN_POINT('',(-0.0454756485631592,-0.166754274770324,0.0924328149097793));
#1435=CARTESIAN_POINT('',(-0.0456632619786348,-0.166250429998321,0.0925793644098758));
#1436=CARTESIAN_POINT('',(-0.046124536235833,-0.165546314101308,0.092473307630323));
#1437=CARTESIAN_POINT('',(-0.046667760787124,-0.165089226125139,0.0920006011959869));
#1438=CARTESIAN_POINT('',(-0.0469947355237197,-0.165,0.0915559261702095));
#1439=CARTESIAN_POINT('',(-0.047144253389243,-0.165,0.0913229232463109));
#1440=CARTESIAN_POINT('',(-0.0475531351203126,-0.169,0.10003112717881));
#1441=CARTESIAN_POINT('',(-0.0436801517741052,-0.167,0.0933229232463109));
#1442=CARTESIAN_POINT('',(-0.0579454399657259,-0.169,0.0940311271788103));
#1443=CARTESIAN_POINT('',(-0.0540724566195185,-0.167,0.0873229232463109));
#1444=CARTESIAN_POINT('',(-0.0504570630121381,-0.167,0.0890608778289683));
#1445=CARTESIAN_POINT('',(-0.0506083550043807,-0.165,0.0893229232463109));
#1446=CARTESIAN_POINT('',(-0.0508846052771159,-0.165,0.0893099522949414));
#1447=CARTESIAN_POINT('',(-0.0514313087981013,-0.165089203233844,0.0892491810259584));
#1448=CARTESIAN_POINT('',(-0.0521104856837541,-0.165541706848466,0.0890173181052103));
#1449=CARTESIAN_POINT('',(-0.0524374537303699,-0.166248506327012,0.0886694674220625));
#1450=CARTESIAN_POINT('',(-0.0524039195711949,-0.166754012268188,0.0884329323043035));
#1451=CARTESIAN_POINT('',(-0.0523404058119496,-0.167,0.0883229232463109));
#1452=CARTESIAN_POINT('',(-0.045493978927888,-0.1674,0.0940645640328108));
#1453=CARTESIAN_POINT('',(-0.04589632549995,-0.16725,0.0931614487378733));
#1454=CARTESIAN_POINT('',(-0.0454122025816741,-0.167,0.0923229232463109));
#1455=CARTESIAN_POINT('',(-0.045547472033641,-0.166985644190589,0.0941572168065798));
#1456=CARTESIAN_POINT('',(-0.0459187813645883,-0.166956980994434,0.0932645667799822));
#1457=CARTESIAN_POINT('',(-0.0454790689629431,-0.166741027619325,0.092438739215987));
#1458=CARTESIAN_POINT('',(-0.0457754487224303,-0.166158326047939,0.0942309239140672));
#1459=CARTESIAN_POINT('',(-0.046059562854883,-0.166348303540575,0.0933823916095839));
#1460=CARTESIAN_POINT('',(-0.0456771233221979,-0.166223953779884,0.0925810543631409));
#1461=CARTESIAN_POINT('',(-0.0464457477554123,-0.165076336915324,0.0939606782953719));
#1462=CARTESIAN_POINT('',(-0.046545850639508,-0.165534380748888,0.0932179803457859));
#1463=CARTESIAN_POINT('',(-0.0461276570758511,-0.165547710572042,0.0924668782160866));
#1464=CARTESIAN_POINT('',(-0.0473318176101579,-0.16436045719228,0.0933326074738068));
#1465=CARTESIAN_POINT('',(-0.047200159977722,-0.165030728142104,0.0927240953285467));
#1466=CARTESIAN_POINT('',(-0.0466499224973159,-0.165100285745398,0.0920197254428087));
#1467=CARTESIAN_POINT('',(-0.0479615879359936,-0.164200000000795,0.0927627477590338));
#1468=CARTESIAN_POINT('',(-0.0476424950148496,-0.164968063306657,0.0922687476938603));
#1469=CARTESIAN_POINT('',(-0.0469877077561739,-0.165,0.0915668779751747));
#1470=CARTESIAN_POINT('',(-0.0482652602199983,-0.1642,0.0924645640328108));
#1471=CARTESIAN_POINT('',(-0.0478448826584651,-0.165,0.0920364487378734));
#1472=CARTESIAN_POINT('',(-0.047144253389243,-0.165,0.0913229232463109));
#1473=CARTESIAN_POINT('',(-0.047144253389243,-0.163,0.0913229232463109));
#1474=CARTESIAN_POINT('',(-0.0510365415121084,-0.1642,0.0908645640328108));
#1475=CARTESIAN_POINT('',(-0.0508759715717105,-0.165,0.0902864487378733));
#1476=CARTESIAN_POINT('',(-0.0506083550043807,-0.165,0.0893229232463109));
#1477=CARTESIAN_POINT('',(-0.0514488772736211,-0.16420000000163,0.0907500389026798));
#1478=CARTESIAN_POINT('',(-0.0511799988625266,-0.164967888328191,0.0902270014412931));
#1479=CARTESIAN_POINT('',(-0.050899498046186,-0.165,0.0893092530256499));
#1480=CARTESIAN_POINT('',(-0.0522542660881098,-0.16436058005184,0.0904903769639618));
#1481=CARTESIAN_POINT('',(-0.0517933440206432,-0.16503089626036,0.0900719915100516));
#1482=CARTESIAN_POINT('',(-0.0514584349829874,-0.165100362532867,0.0892432125195164));
#1483=CARTESIAN_POINT('',(-0.0532418511363011,-0.165076198851889,0.0900369461789756));
#1484=CARTESIAN_POINT('',(-0.0525486016155742,-0.165534239467302,0.0897522904538817));
#1485=CARTESIAN_POINT('',(-0.0521072724965974,-0.165547624282324,0.0890145456432685));
#1486=CARTESIAN_POINT('',(-0.0538113759827638,-0.166157593266396,0.0895916327031508));
#1487=CARTESIAN_POINT('',(-0.0529344964165303,-0.16634783048473,0.0894133746419592));
#1488=CARTESIAN_POINT('',(-0.0524316972876049,-0.166223495791457,0.0886816162112394));
#1489=CARTESIAN_POINT('',(-0.0538610220734936,-0.166987920224535,0.0893567078716864));
#1490=CARTESIAN_POINT('',(-0.0529021782056708,-0.166958577681255,0.0892320681878247));
#1491=CARTESIAN_POINT('',(-0.0524069048999693,-0.166742450140501,0.0884381030454179));
#1492=CARTESIAN_POINT('',(-0.0538078228042187,-0.1674,0.0892645640328108));
#1493=CARTESIAN_POINT('',(-0.0528245287302256,-0.16725,0.0891614487378734));
#1494=CARTESIAN_POINT('',(-0.0523404058119497,-0.167,0.0883229232463109));
#1495=CARTESIAN_POINT('',(-0.0506083550043807,-0.163,0.0893229232463109));
#1496=CARTESIAN_POINT('',(-0.0527492875430193,-0.163,0.0970311271788103));
#1497=CARTESIAN_POINT('',(-0.0567492875430193,-0.169,0.103959330409086));
#1498=CARTESIAN_POINT('',(-0.0495055323433485,-0.169,0.0914127783656647));
#1499=CARTESIAN_POINT('',(-0.0506746666384575,-0.169,0.0907377783656647));
#1500=CARTESIAN_POINT('',(-0.0471239624829413,-0.169,0.0927877783656647));
#1501=CARTESIAN_POINT('',(-0.0495055323433485,-0.169,0.0914127783656647));
#1502=CARTESIAN_POINT('',(-0.0518871022037557,-0.169,0.0900377783656647));
#1503=CARTESIAN_POINT('',(-0.0567492875430193,-0.169,0.103959330409086));
#1504=CARTESIAN_POINT('',(-0.0349060208032827,-0.1585,0.0871256826125826));
#1505=CARTESIAN_POINT('',(-0.033356982697606,-0.1585,0.0874426699106904));
#1506=CARTESIAN_POINT('',(-0.0349060208032827,-0.1565,0.0871256826125826));
#1507=CARTESIAN_POINT('',(0.00881756906277921,-0.157,0.111792158722501));
#1508=CARTESIAN_POINT('',(-0.0530925542827559,-0.1565,0.0766256826125826));
#1509=CARTESIAN_POINT('',(-0.033356982697606,-0.178440388292074,0.0874426699106904));
#1510=CARTESIAN_POINT('',(-0.033356982697606,-0.1795,0.0874426699106904));
#1511=CARTESIAN_POINT('',(-0.0530925542827559,-0.1585,0.0766256826125826));
#1512=CARTESIAN_POINT('',(-0.0548246050903247,-0.1585,0.0756256826125826));
#1513=CARTESIAN_POINT('',(-0.0349060208032827,-0.1795,0.0871256826125826));
#1514=CARTESIAN_POINT('',(-0.0346560208032827,-0.181,0.0866926699106904));
#1515=CARTESIAN_POINT('',(-0.0548246050903247,-0.169,0.0756256826125826));
#1516=CARTESIAN_POINT('',(-0.0548246050903247,-0.1795,0.0756256826125826));
#1517=CARTESIAN_POINT('',(-0.0439992875430192,-0.1815,0.0818756826125826));
#1518=CARTESIAN_POINT('',(-0.0528425542827559,-0.181,0.0761926699106904));
#1519=CARTESIAN_POINT('',(-0.0530925542827559,-0.1795,0.0766256826125826));
#1520=MECHANICAL_DESIGN_GEOMETRIC_PRESENTATION_REPRESENTATION('',(#701),
#1521);
#1521=(
GEOMETRIC_REPRESENTATION_CONTEXT(3)
GLOBAL_UNCERTAINTY_ASSIGNED_CONTEXT((#1522))
GLOBAL_UNIT_ASSIGNED_CONTEXT((#1525,#1524,#1523))
REPRESENTATION_CONTEXT('fix_block_r','TOP_LEVEL_ASSEMBLY_PART')
);
#1522=UNCERTAINTY_MEASURE_WITH_UNIT(LENGTH_MEASURE(2.E-5),#1525,
'DISTANCE_ACCURACY_VALUE','Maximum Tolerance applied to model');
#1523=(
NAMED_UNIT(*)
SI_UNIT($,.STERADIAN.)
SOLID_ANGLE_UNIT()
);
#1524=(
NAMED_UNIT(*)
PLANE_ANGLE_UNIT()
SI_UNIT($,.RADIAN.)
);
#1525=(
LENGTH_UNIT()
NAMED_UNIT(*)
SI_UNIT($,.METRE.)
);
#1526=PRODUCT_DEFINITION_SHAPE('','',#1527);
#1527=PRODUCT_DEFINITION('','',#1529,#1528);
#1528=PRODUCT_DEFINITION_CONTEXT('',#1535,'design');
#1529=PRODUCT_DEFINITION_FORMATION_WITH_SPECIFIED_SOURCE('','',#1531,
 .NOT_KNOWN.);
#1530=PRODUCT_RELATED_PRODUCT_CATEGORY('','',(#1531));
#1531=PRODUCT('fix_block_r','fix_block_r','fix_block_r',(#1533));
#1532=PRODUCT_CATEGORY('','');
#1533=PRODUCT_CONTEXT('',#1535,'mechanical');
#1534=APPLICATION_PROTOCOL_DEFINITION('international standard',
'ap242_managed_model_based_3d_engineering',2020,#1535);
#1535=APPLICATION_CONTEXT('managed model based 3d engineering');
ENDSEC;
END-ISO-10303-21;
